<?xml version="1.0" encoding="UTF-8" standalone="no"?>
<svg
   version="1.1"
   x="0px"
   y="0px"
   viewBox="0 0 9000.0996 9013.375"
   enable-background="new 0 0 100 100"
   xml:space="preserve"
   id="svg369"
   width="9000.0996"
   height="9013.375"
   xmlns="http://www.w3.org/2000/svg"
   xmlns:svg="http://www.w3.org/2000/svg"><defs
     id="defs373" /><path
     d="m -418.573,-1763.0321 h -41.573 -1.416 -41.571 c -1.481,0 -2.757,1.126 -2.757,2.607 v 51.246 0.181 4.747 0.299 c 0,1.48 1.275,2.726 2.757,2.726 h 33.296 c -0.039,0.848 -0.304,4.503 -2.042,6.274 -1.369,1.395 -3.271,2.704 -2.528,3.376 0.18,0.41 1.033,0.651 2.975,0.651 4.283,0 8.92,0 10.618,0 0.429,0 0.669,0 0.669,0 1.697,0 6.337,0 10.618,0 2.211,0 2.984,-0.362 2.991,-0.903 h -0.075 v -0.179 h -0.078 c -0.1,-0.729 -1.574,-1.809 -2.69,-2.943 -1.737,-1.771 -2.002,-5.425 -2.041,-6.274 h 32.85 c 1.482,0 2.681,-1.244 2.681,-2.726 v -0.299 -4.747 -0.181 -51.246 c -0.002,-1.483 -1.203,-2.609 -2.684,-2.609 z m -42.318,59.208 c -0.967,0 -1.749,-0.782 -1.749,-1.749 0,-0.967 0.782,-1.749 1.749,-1.749 0.966,0 1.75,0.782 1.75,1.749 0,0.967 -0.784,1.749 -1.75,1.749 z m 41.205,-9.148 h -82.408 v -46.444 h 82.409 v 46.444 z"
     id="path363" /></svg>
