<?xml version="1.0" encoding="UTF-8" standalone="no"?>
<svg
   version="1.1"
   x="0px"
   y="0px"
   viewBox="0 0 5352 11247.5"
   xml:space="preserve"
   id="svg896"
   sodipodi:docname="noun-iphone-2814560.svg"
   width="5352"
   height="11247.5"
   xmlns:inkscape="http://www.inkscape.org/namespaces/inkscape"
   xmlns:sodipodi="http://sodipodi.sourceforge.net/DTD/sodipodi-0.dtd"
   xmlns="http://www.w3.org/2000/svg"
   xmlns:svg="http://www.w3.org/2000/svg"><defs
     id="defs900" /><sodipodi:namedview
     id="namedview898"
     pagecolor="#ffffff"
     bordercolor="#000000"
     borderopacity="0.25"
     inkscape:showpageshadow="2"
     inkscape:pageopacity="0.0"
     inkscape:pagecheckerboard="0"
     inkscape:deskcolor="#d1d1d1"
     showgrid="false" /><g
     id="g890"
     transform="translate(-2324,-625)"><path
       d="M 69.64,5 H 30.36 c -3.93,0 -7.12,3.19 -7.12,7.12 v 75.74 c 0,3.93 3.19,7.12 7.12,7.12 h 39.28 c 3.93,0 7.12,-3.19 7.12,-7.12 V 12.12 C 76.76,8.19 73.57,5 69.64,5 Z m 3.83,82.81 c 0,2.14 -1.74,3.88 -3.88,3.88 H 30.41 c -2.14,0 -3.88,-1.74 -3.88,-3.88 V 12.17 c 0,-2.14 1.74,-3.88 3.88,-3.88 h 8.91 v 1.82 c 0,1.28 1.04,2.32 2.32,2.32 h 16.72 c 1.28,0 2.32,-1.04 2.32,-2.32 V 8.29 h 8.91 c 2.14,0 3.88,1.74 3.88,3.88 z"
       id="path886" /><path
       d="M 58.02,88.02 H 41.98 c -0.4,0 -0.72,0.32 -0.72,0.72 0,0.4 0.32,0.72 0.72,0.72 h 16.03 c 0.4,0 0.72,-0.32 0.72,-0.72 0,-0.4 -0.32,-0.72 -0.71,-0.72 z"
       id="path888" /></g></svg>
