<?xml version="1.0" encoding="UTF-8" standalone="no"?>
<!-- Created with Inkscape (http://www.inkscape.org/) -->

<svg
   width="235.02541mm"
   height="77.808792mm"
   viewBox="0 0 235.02541 77.808792"
   version="1.1"
   id="svg1"
   xml:space="preserve"
   xmlns="http://www.w3.org/2000/svg"
   xmlns:svg="http://www.w3.org/2000/svg"><defs
     id="defs1" /><g
     id="layer1"
     transform="translate(12.554744,-109.23684)"><g
       id="g7"><path
         style="fill:#a4d6db"
         d="m 23.774629,186.86497 c -15.9210154,-1.57125 -29.7153185,-12.38411 -34.509583,-27.05084 -5.918151,-18.10495 3.0279835,-38.42469 20.6011919,-46.79238 25.7714771,-12.2714 56.3291541,6.83147 56.3291541,35.21368 0,22.55348 -20.075497,40.83479 -42.420763,38.62954 z m 11.267077,-1.02437 c 15.287212,-3.36035 26.811861,-14.99478 30.173977,-30.46142 0.693843,-3.19187 0.693253,-11.1004 -0.0011,-14.2875 -3.44499,-15.8134 -15.074641,-27.26079 -31.236424,-30.74686 -3.848498,-0.83012 -11.281357,-0.82685 -15.148205,0.007 -15.4004399,3.31963 -27.3072986,15.42414 -30.428258,30.93336 -0.668892,3.32398 -0.65589,10.70292 0.0246,13.96204 3.4614062,16.5779 17.0826956,28.86922 34.554548,31.18065 2.240069,0.29635 9.692361,-0.0663 12.060827,-0.58694 z M 20.80792,185.0107 c -12.3732037,-2.57709 -21.7150244,-9.51827 -27.0604605,-20.10652 -4.0649435,-8.05185 -4.8958025,-18.40479 -2.2151505,-27.60193 0.8358584,-2.86777 2.2684821,-6.02892 3.1396102,-6.9277 0.4411121,-0.45511 1.2001702,-1.65827 1.6867958,-2.67369 1.4611922,-3.049 4.26830178,-5.7581 6.8641852,-6.62454 0.9077616,-0.30298 0.953289,-0.34571 0.2552166,-0.23954 -2.0480405,0.31151 -0.7095461,-1.34701 3.1430484,-3.89452 4.0189888,-2.65754 8.6411298,-4.59829 13.4564018,-5.6501 2.776744,-0.60652 11.352101,-0.69664 13.883521,-0.14589 4.375149,0.95187 10.411911,3.35755 10.676932,4.2548 0.08253,0.27942 -0.04597,0.32343 -0.521197,0.17852 -1.532358,-0.46728 -7.265279,-0.48775 -9.513699,-0.034 -7.114796,1.4359 -13.075042,6.00986 -15.873354,12.18141 -0.413201,0.91129 -0.912189,1.71865 -1.108863,1.79412 -0.595705,0.22859 -1.190856,9.44641 -0.636101,9.85206 0.228346,0.16697 0.699389,1.08659 1.046762,2.04359 1.407306,3.87708 3.221631,6.61803 5.714618,8.63323 2.24104,1.81154 2.938891,2.17177 6.324242,3.26461 2.030504,0.65547 1.989899,0.89129 -0.299159,1.73742 -1.807739,0.66821 -2.223728,1.28851 -0.812082,1.21093 0.422712,-0.0232 1.661536,-0.36771 2.752942,-0.76552 10.734195,-3.91248 22.501842,5.19319 20.278374,15.69118 -1.944308,9.17995 -12.007796,13.64171 -17.77068,7.87882 -4.435285,-4.43528 -3.462615,-11.92993 1.857931,-14.3158 0.770906,-0.34569 0.774713,-0.35616 0.132292,-0.36371 -1.119411,-0.0131 -3.28692,1.1798 -4.305294,2.36954 -1.386918,1.6203 -1.868808,3.27755 -1.728784,5.94537 0.245005,4.66795 3.278469,7.97259 8.52906,9.29149 1.015412,0.25507 1.720506,0.56704 1.667612,0.73785 -0.140426,0.45347 -4.787709,1.9176 -7.582655,2.38891 -3.372201,0.56866 -8.96933,0.51708 -11.982065,-0.11041 z m 13.153168,-0.53028 c 1.309687,-0.29133 3.149191,-0.78466 4.087785,-1.0963 l 1.706535,-0.56662 -1.918811,-0.62301 c -2.309444,-0.74984 -4.309563,-1.98792 -5.69183,-3.52328 -3.268123,-3.63006 -3.318441,-9.54067 -0.108548,-12.75057 4.237528,-4.23752 12.370069,-2.20641 13.409999,3.34916 1.014812,5.4214 -3.989582,8.89542 -8.467249,5.87792 -3.681591,-2.48102 -2.294289,-7.97599 1.818867,-7.20436 3.095004,0.58063 4.615341,3.10712 2.901219,4.82124 -1.106222,1.10622 -2.697983,0.19832 -1.683846,-0.96042 1.057577,-1.20838 0.43645,-2.66667 -1.13581,-2.66667 -2.061116,0 -2.822852,3.14362 -1.163754,4.80272 2.279602,2.2796 6.008168,-0.12845 6.002557,-3.87668 -0.0058,-3.85457 -4.096639,-6.34573 -7.619875,-4.64016 -5.029601,2.43478 -5.788785,9.30271 -1.49106,13.48882 3.743559,3.64634 9.549589,3.06566 13.651947,-1.36537 9.64109,-10.41353 -1.853129,-26.20663 -15.920462,-21.87477 -3.32603,1.02421 -3.350651,1.04847 -3.146254,3.10021 0.343736,3.45041 -0.897298,7.08775 -3.24112,9.49936 -2.7125,2.79096 -7.342892,3.71503 -10.709561,2.13728 -1.75242,-0.82125 -1.95407,-1.08365 -0.530767,-0.69066 5.52624,1.52587 11.946965,-3.10017 13.043643,-9.39776 0.750299,-4.30854 -1.144778,-8.00131 -5.667503,-11.04378 -5.930125,-3.98924 -14.8916053,-1.75009 -19.6041119,4.89834 -5.16968,7.29343 -4.7773965,15.94126 0.9989754,22.02228 6.2625453,6.59283 15.6780195,8.74116 24.1290345,5.50553 2.724358,-1.04307 3.163438,-1.08623 3.671489,-0.36089 0.236254,0.3373 0.429552,0.74912 0.429552,0.91515 0,0.39916 -2.649634,1.57382 -4.854294,2.15206 -0.968159,0.25393 -1.760289,0.57146 -1.760289,0.70563 0,0.39538 6.242766,-0.0515 8.863542,-0.6344 z M 18.11875,165.02618 c -0.121311,-0.31613 0.166815,-0.7442 0.986612,-1.46581 4.464469,-3.92979 -0.331308,-9.86266 -5.551964,-6.86836 -2.419703,1.38782 -4.0319987,3.88887 -4.0877582,6.34107 l -0.021489,0.94506 -0.3634521,-0.79375 c -1.819602,-3.97387 2.0425373,-9.19654 6.5017773,-8.79219 5.436895,0.493 8.646486,7.45105 4.74227,10.28074 -1.004507,0.72804 -2.000944,0.8876 -2.205996,0.35324 z m -4.486482,-3.47339 c -0.801226,-0.80123 0.490021,-3.65326 1.336091,-2.95108 0.502399,0.41695 0.418875,0.90236 -0.357014,2.07481 -0.766225,1.15784 -0.729961,1.12539 -0.979077,0.87627 z m 29.410508,13.48099 c 0.389342,-0.29019 0.927606,-0.9028 1.196141,-1.36135 0.570888,-0.97485 0.96655,-4.20025 0.478225,-3.89845 -0.167757,0.10368 -0.305012,0.50108 -0.305012,0.88311 0,1.79909 -1.810771,3.91457 -4.101042,4.79116 -0.731087,0.27982 -0.682534,0.29628 0.615022,0.20848 0.871031,-0.0589 1.678981,-0.29673 2.116666,-0.62295 z M 37.69565,174.6704 c -1.444528,-1.13626 -1.89987,-3.17056 -1.06922,-4.77686 0.560615,-1.08411 0.219551,-1.32925 -0.571184,-0.41054 -1.233267,1.43286 -0.721373,4.06873 1.004821,5.17407 1.123639,0.71951 1.544561,0.72833 0.635583,0.0133 z m -37.99444067,-2.83852 c -3.65888793,-7.20022 -2.74233503,-15.26193 2.38981677,-21.02007 0.7208773,-0.80881 1.310686,-1.54078 1.310686,-1.6266 0,-0.0858 -0.8739232,-0.15603 -1.9420516,-0.15603 -3.1091547,0 -8.278457,-1.57218 -8.596964,-2.61467 -0.1455168,-0.47628 0.7615022,-0.30138 3.3952655,0.6547 5.2191931,1.89462 11.9679233,0.29255 16.076947,-3.81648 5.602069,-5.60206 5.785112,-13.915 0.424434,-19.27568 -5.8540222,-5.85402 -16.3802385,-1.48279 -16.3649309,6.79588 0.01047,5.66226 4.8827315,8.78855 9.6516511,6.19298 3.3067745,-1.79978 3.8295871,-6.33531 1.0043066,-8.71263 -2.8642933,-2.41014 -7.62752661,2.28565 -4.9919269,4.92125 1.9135846,1.91358 4.5355741,-0.51401 3.0326312,-2.80779 -0.3933507,-0.60033 -0.3933507,-0.65215 0,-0.65215 1.1390853,0 2.0224146,1.87911 1.4888533,3.16724 -0.8501169,2.05237 -3.6611701,2.31236 -5.5054781,0.50921 -3.5292792,-3.45052 0.8133026,-8.4234 5.5022629,-6.30087 5.3761798,2.4336 4.7244848,9.56722 -1.0492108,11.48494 -4.1403259,1.37519 -9.7822529,-1.92353 -10.7388266,-6.27878 -0.2390807,-1.08853 -0.581559,-0.89357 -1.3053668,0.74309 -5.732988,12.9633 -3.395839,29.15615 5.67957699,39.35073 1.4285374,1.6047 1.5653616,1.46281 0.53832434,-0.55827 z M 29.607384,154.68208 c 1.222996,-0.48935 1.161712,-0.61437 -0.623309,-1.27157 -1.534187,-0.56485 -1.626722,-0.50328 -1.108326,0.73742 0.469528,1.12374 0.350142,1.08691 1.731635,0.53415 z M 8.0276519,147.86857 c 2.1023591,-0.76311 3.8407271,-1.869 3.8407271,-2.44333 0,-0.23918 -0.143025,-0.35783 -0.330729,-0.27438 -0.181901,0.0809 -1.8785419,0.81975 -3.7703128,1.64193 -1.8917708,0.82219 -3.4891927,1.54266 -3.5498264,1.60105 -0.3918834,0.37741 2.3736645,-0.004 3.8101411,-0.52527 z m 11.7782271,-1.57991 c 0,-0.0521 -0.411574,-0.88429 -0.91461,-1.84937 -0.503036,-0.96509 -1.057663,-2.23217 -1.232505,-2.81574 -0.399031,-1.33184 -0.55355,-1.3254 -1.521931,0.0634 -0.431228,0.61846 -1.274993,1.66026 -1.875034,2.3151 l -1.090983,1.19063 2.197917,0.31659 c 1.208854,0.17412 2.493384,0.43446 2.85451,0.57854 0.656436,0.26189 1.582636,0.37941 1.582636,0.20081 z m -1.602526,-18.51291 c 0.524601,-1.58956 2.85233,-4.8036 4.860424,-6.71109 4.694443,-4.45926 10.880577,-6.71369 17.36714,-6.32916 3.172512,0.18808 3.19384,0.0389 0.167268,-1.17024 -11.681465,-4.66673 -24.868547,-2.86427 -35.4105353,4.84005 -2.121224,1.55024 -2.1861091,1.74479 -0.5291667,1.58667 4.4236038,-0.42215 9.833751,2.76929 12.107675,7.1423 0.919459,1.76822 1.046604,1.82497 1.437195,0.64147 z m 34.802583,45.66124 c 2.071771,-8.17009 -2.71744,-16.0245 -11.438077,-18.75871 -1.200547,-0.37641 -2.175604,-0.81918 -2.166792,-0.98393 0.0088,-0.16475 0.939519,-0.74197 2.06824,-1.28271 7.005946,-3.35637 9.396263,-11.324 5.308383,-17.69441 -1.200238,-1.87041 -1.780309,-2.2215 -0.944172,-0.57146 3.908917,7.71388 -0.482341,16.34662 -9.382225,18.44446 -4.946516,1.16596 -8.900735,-0.0518 -12.832264,-3.95177 -10.30026,-10.21769 -4.222607,-27.49697 11.135809,-31.66003 1.669152,-0.45244 2.871847,-0.57562 5.688541,-0.58262 6.01722,-0.0149 8.194829,0.86576 12.310356,4.97879 11.288669,11.28182 14.24741,28.09605 7.510875,42.68354 -2.266035,4.90693 -8.005068,12.32228 -7.258674,9.37885 z m 3.830668,-4.17625 c 10.554808,-15.26807 8.126943,-36.3881 -5.629049,-48.96717 -7.017147,-6.41678 -21.556022,-3.98337 -28.083771,4.70046 -6.546542,8.70882 -5.053232,20.26453 3.312449,25.63277 8.027887,5.15148 19.866464,-0.56407 20.30826,-9.80463 0.361241,-7.55566 -5.157549,-12.38475 -11.459112,-10.02703 -3.55401,1.32972 -5.293043,3.75644 -5.293043,7.38612 0,3.69314 1.199141,5.29512 4.121846,5.50653 3.441455,0.24893 5.800029,-1.66751 5.800029,-4.71278 0,-2.86254 -1.681895,-4.00272 -3.905023,-2.64726 -1.893294,1.15435 -2.283191,2.86887 -0.967194,4.25311 1.179826,1.241 0.06376,1.44808 -1.308904,0.24287 -1.900888,-1.66901 -2.099653,-3.82791 -0.493493,-5.36012 3.224171,-3.07572 8.765347,-0.063 8.78547,4.77667 0.02974,7.1529 -10.418432,7.23655 -13.693653,0.10964 -2.850799,-6.20337 3.394147,-13.11757 10.572336,-11.70535 9.157649,1.80166 13.325161,12.74953 7.685067,20.18834 -1.120891,1.47836 -3.617666,3.46858 -5.291797,4.21819 -1.28276,0.57436 -1.267277,0.86867 0.05879,1.11744 0.50505,0.0948 1.845819,0.63988 2.979485,1.21141 6.493629,3.27369 9.878364,8.68504 9.515394,15.21277 l -0.147119,2.64583 0.89769,-1.02141 c 0.49373,-0.56178 1.499636,-1.89216 2.235347,-2.9564 z M 38.734534,144.5631 c 1.445743,-0.65671 2.431865,-1.89306 2.645335,-3.31658 0.196241,-1.30863 -0.231116,-2.59306 -0.535694,-1.61005 -0.929058,2.9985 -3.337134,4.82499 -6.486212,4.91969 -0.850879,0.0256 -0.872354,0.045 -0.264584,0.23968 1.214292,0.38889 3.528087,0.27286 4.641155,-0.23274 z m 74.701926,14.08491 c -0.31108,-0.37483 -0.29123,-0.47596 0.14282,-0.72761 1.52029,-0.88139 1.4766,-0.63738 1.4766,-8.24716 0,-7.21229 -0.10843,-8.0524 -1.03933,-8.0524 -0.56907,0 -0.95125,-0.76108 -0.57242,-1.13991 0.78419,-0.7842 4.25758,-0.49767 4.25758,0.35121 0,0.66667 0.0399,0.66151 1.24503,-0.16137 4.866,-3.32255 9.19916,6.87967 5.05654,11.90539 -1.34399,1.6305 -3.47497,2.20739 -4.97865,1.34781 -1.03541,-0.59189 -1.08629,-0.51477 -1.00378,1.52135 0.0705,1.7403 0.13118,1.92584 0.65384,2.00026 0.72924,0.10384 1.24908,0.71692 1.0493,1.23752 -0.2352,0.61294 -5.77538,0.58202 -6.28753,-0.0351 z m 5.85275,-0.35841 c 0,-0.14553 -0.17859,-0.26459 -0.39687,-0.26459 -0.98323,0 -1.45521,-0.9818 -1.45521,-3.02709 0,-2.32336 0.16442,-2.4968 1.50316,-1.58566 2.35105,1.60013 5.43016,-0.42359 6.18629,-4.06586 1.22632,-5.90716 -3.0894,-11.0261 -6.6125,-7.84319 l -1.04124,0.94069 -0.084,-0.87455 -0.084,-0.87455 -1.78594,-0.0782 c -1.90482,-0.0834 -2.28909,0.20516 -1.05833,0.79485 l 0.7276,0.34862 0.0702,7.74561 0.0702,7.74562 -0.79609,0.45302 c -1.26946,0.72239 -0.97262,0.84989 1.97869,0.84989 1.67569,0 2.77812,-0.10499 2.77812,-0.26458 z m -0.28777,-5.57945 c -2.28181,-2.2818 -1.84629,-10.32203 0.60633,-11.19346 2.11485,-0.75142 3.20125,1.06177 3.23298,5.39582 0.0247,3.37803 -0.19271,4.50344 -1.07204,5.54846 -0.81228,0.96534 -1.94878,1.06768 -2.76727,0.24918 z m 2.33946,-0.30753 c 0.86072,-0.92088 1.19466,-2.76868 1.07451,-5.94565 -0.14529,-3.8417 -0.91719,-5.23699 -2.60147,-4.70243 -1.41382,0.44874 -2.40579,5.8332 -1.61329,8.75704 0.5837,2.15346 2.06257,3.04403 3.14025,1.89104 z m 90.61911,6.27428 c -1.28623,-0.90091 -1.41408,-3.45189 -0.21246,-4.23922 1.31538,-0.86187 2.64003,0.79159 1.87029,2.33456 -0.49045,0.98312 -0.49059,0.98819 -0.0282,0.98819 0.58373,0 1.62469,-1.40932 1.98038,-2.68116 0.3137,-1.12169 0.26498,-1.32078 -1.67459,-6.84384 -1.25355,-3.56954 -2.19751,-5.8537 -2.5341,-6.13193 -0.49865,-0.41216 -2.6677,-0.45229 -3.89973,-0.0721 -0.34901,0.1077 -0.50301,9.41601 -0.17013,10.28348 0.51163,1.33329 1.95607,-0.13562 1.95607,-1.98921 0,-0.80885 0.14607,-1.35287 0.42551,-1.58479 1.15605,-0.95943 1.46297,2.24949 0.39446,4.12421 -0.80439,1.41132 -2.67991,1.8758 -4.26485,1.05619 -1.32347,-0.68439 -1.43946,-1.17794 -1.5822,-6.73273 l -0.1323,-5.14797 -0.66145,-0.15454 c -0.98188,-0.22941 -0.95861,-1.08306 0.0469,-1.72035 1.1754,-0.74497 1.76443,-1.65008 2.0382,-3.13192 0.53725,-2.90803 1.61906,-2.20802 1.61906,1.04765 v 2.21656 l 1.38906,0.0352 c 0.76399,0.0194 2.70407,0.007 4.31131,-0.0264 2.3746,-0.0501 2.98627,0.0155 3.26392,0.35005 0.41366,0.49843 0.19436,0.91525 -0.65056,1.23649 -0.34689,0.13188 -0.58284,0.39243 -0.52434,0.57899 1.07346,3.42322 2.08528,6.31368 2.2446,6.41214 0.27354,0.16906 2.21285,-6.15471 2.03199,-6.62601 -0.0787,-0.20514 -0.31087,-0.37297 -0.5159,-0.37297 -0.65219,0 -1.08343,-0.73123 -0.70216,-1.19063 0.33781,-0.40703 3.2021,-0.57293 4.0794,-0.23627 0.64717,0.24834 0.50386,1.14297 -0.22765,1.42109 -0.56923,0.21641 -0.90241,1.04268 -2.79802,6.93876 -1.18351,3.6812 -2.29172,7.10176 -2.46268,7.60125 -0.77084,2.25212 -3.03461,3.3606 -4.60984,2.25727 z m 2.78846,-0.2725 c 0.91699,-0.64228 1.42226,-1.87369 3.62969,-8.84606 2.19743,-6.94079 2.5307,-7.78689 3.16273,-8.02942 0.97517,-0.37421 0.30044,-0.70183 -1.44542,-0.70183 -1.9337,0 -2.30994,0.23562 -1.19063,0.74561 0.48078,0.21906 0.65765,0.50168 0.64751,1.03466 -0.0199,1.04741 -1.91333,7.02148 -2.26196,7.13696 -0.28375,0.094 -2.30803,-5.25046 -2.64769,-6.99038 -0.14428,-0.73909 -0.0749,-0.89289 0.52662,-1.16695 1.22794,-0.55949 0.74775,-0.7599 -1.82073,-0.7599 -2.76786,0 -2.85581,0.0522 -1.75262,1.03907 0.81599,0.72998 4.53075,10.80361 4.53075,12.2864 0,2.16601 -1.9872,4.48941 -3.26602,3.81857 -0.4662,-0.24456 -0.46235,-0.28312 0.0864,-0.86722 0.67336,-0.71677 0.64204,-1.91763 -0.0615,-2.35815 -1.36712,-0.85601 -2.14798,2.14751 -0.88632,3.40917 0.76455,0.76456 1.87055,0.86492 2.74922,0.24947 z m -6.14436,-4.73549 c 1.10428,-0.4614 1.70177,-1.6694 1.70177,-3.44061 0,-1.70254 -0.42704,-1.48725 -0.63917,0.32223 -0.32512,2.77327 -2.15973,3.71159 -2.79377,1.42889 -0.30942,-1.11402 -0.36242,-9.54095 -0.063,-10.01193 0.11009,-0.17314 0.85241,-0.35173 1.64959,-0.39687 1.81353,-0.10268 1.90205,-0.58467 0.12652,-0.68887 -1.74813,-0.1026 -1.98437,-0.46161 -1.98437,-3.01564 0,-2.23589 -0.36837,-2.75398 -0.66949,-0.94162 -0.26134,1.57286 -0.75352,2.42256 -1.96909,3.39942 -1.11566,0.89657 -1.16131,1.29693 -0.14786,1.29693 h 0.62192 l 0.092,5.22553 c 0.10092,5.72975 0.21534,6.20869 1.6303,6.82419 1.07529,0.46775 1.32155,0.46758 2.44458,-0.002 z m -121.999926,0.28151 c -2.449126,-1.06696 -3.695179,-3.39561 -3.695179,-6.90562 0,-3.60009 1.059581,-5.52702 3.629523,-6.60054 3.314683,-1.38463 7.099439,1.89004 6.77215,5.85943 l -0.08292,1.0057 -3.638021,0.0736 -3.63802,0.0736 v 0.73826 c 0,1.34991 0.77964,3.43064 1.496823,3.99477 1.526037,1.20038 3.667276,0.26872 4.391133,-1.91059 0.483257,-1.45495 1.520377,-1.77145 1.520377,-0.46398 0,3.15673 -3.743035,5.44789 -6.755863,4.13535 z m 3.33132,-0.15854 c 1.406744,-0.3908 3.15996,-2.58814 3.15996,-3.96045 0,-0.62527 -0.551095,-0.20361 -0.935119,0.71549 -1.701633,4.07258 -5.636816,3.2596 -6.44554,-1.3316 -0.402054,-2.2825 -0.369482,-2.30281 3.693274,-2.30281 2.007719,0 3.459253,-0.10951 3.557446,-0.26839 0.09123,-0.14761 0.03181,-0.91418 -0.132047,-1.70347 -1.198061,-5.77103 -7.763209,-5.93047 -9.420732,-0.22879 -1.509235,5.19158 2.155596,10.29322 6.522758,9.08002 z m -4.344264,-8.07054 c -0.223416,-0.58221 0.219567,-2.65541 0.735696,-3.44312 0.919748,-1.40372 2.659007,-1.52199 3.500292,-0.23803 0.489629,0.74727 0.94264,3.09651 0.712671,3.6958 -0.217251,0.56615 -4.730914,0.55278 -4.948659,-0.0146 z m 4.515533,-1.34286 c -0.169173,-1.63913 -0.678119,-2.61696 -1.469849,-2.824 -1.293154,-0.33817 -2.683999,1.37527 -2.684799,3.30751 l -4.11e-4,0.99219 h 2.153682 2.153683 z m 8.238561,9.40768 c -3.746195,-1.97909 -4.600807,-8.14979 -1.612255,-11.64124 2.984451,-3.48666 8.004051,-2.36356 8.004051,1.79084 0,1.41879 -0.52552,2.183 -1.50118,2.183 -1.39046,0 -2.05677,-2.53996 -0.90992,-3.46861 0.73812,-0.5977 0.12355,-1.14434 -1.24302,-1.1056 -2.472216,0.0701 -3.810715,4.79006 -2.556271,9.01423 0.923772,3.11068 4.304331,2.84061 5.068461,-0.40491 0.17787,-0.75548 0.38249,-1.01374 0.85711,-1.0818 0.59364,-0.0851 0.61689,-0.0311 0.4861,1.12932 -0.3706,3.28791 -3.71399,5.10577 -6.593076,3.58477 z m 3.903516,-0.23363 c 1.16831,-0.53059 2.04759,-1.71236 2.35536,-3.16564 0.26639,-1.25791 -0.3759,-0.98333 -0.84077,0.35943 -1.05372,3.04359 -4.174889,3.29978 -5.444417,0.44689 -0.75114,-1.68797 -0.810606,-5.70203 -0.111321,-7.51432 0.909745,-2.35773 2.948488,-3.26663 4.532488,-2.02066 l 0.72026,0.56656 -0.69951,0.64862 c -0.85679,0.79446 -0.83829,2.06062 0.0386,2.63941 1.28579,0.84872 2.15532,-1.34046 1.27189,-3.20216 -0.77076,-1.62425 -3.54433,-2.32106 -5.40627,-1.35821 -6.290623,3.25301 -2.806683,15.50228 3.58372,12.60008 z m 28.80534,0.39789 c -2.44913,-1.06696 -3.69518,-3.39561 -3.69518,-6.90562 0,-3.60009 1.05958,-5.52702 3.62952,-6.60054 3.31468,-1.38463 7.09944,1.89004 6.77215,5.85943 l -0.0829,1.0057 -3.63802,0.0736 -3.63803,0.0736 v 0.73826 c 0,1.34991 0.77964,3.43064 1.49683,3.99477 1.52603,1.20038 3.66727,0.26872 4.39113,-1.91059 0.48326,-1.45495 1.52038,-1.77145 1.52038,-0.46398 0,3.15673 -3.74304,5.44789 -6.75586,4.13535 z m 3.33131,-0.15854 c 1.40675,-0.3908 3.15996,-2.58814 3.15996,-3.96045 0,-0.62527 -0.55109,-0.20361 -0.93511,0.71549 -1.70164,4.07258 -5.63682,3.2596 -6.44554,-1.3316 -0.40206,-2.2825 -0.36949,-2.30281 3.69327,-2.30281 2.00772,0 3.45925,-0.10951 3.55745,-0.26839 0.0912,-0.14761 0.0318,-0.91418 -0.13205,-1.70347 -1.19806,-5.77103 -7.76321,-5.93047 -9.42073,-0.22879 -1.50924,5.19158 2.15559,10.29322 6.52275,9.08002 z m -4.34426,-8.07054 c -0.22342,-0.58221 0.21957,-2.65541 0.7357,-3.44312 0.91975,-1.40372 2.659,-1.52199 3.50029,-0.23803 0.48963,0.74727 0.94264,3.09651 0.71267,3.6958 -0.21725,0.56615 -4.73091,0.55278 -4.94866,-0.0146 z m 4.51553,-1.34286 c -0.16917,-1.63913 -0.67812,-2.61696 -1.46985,-2.824 -1.29315,-0.33817 -2.68399,1.37527 -2.68479,3.30751 l -4.2e-4,0.99219 h 2.15369 2.15368 z m 15.91148,9.40768 c -5.12747,-2.70881 -4.15259,-12.68838 1.32999,-13.61466 5.37752,-0.90852 8.11184,8.83529 3.59279,12.80306 -1.67676,1.47221 -3.19767,1.72296 -4.92278,0.8116 z m 3.9364,-0.51588 c 4.87135,-2.97019 3.31125,-12.57548 -2.04252,-12.57548 -5.32805,0 -6.84022,9.60518 -1.98437,12.60461 1.05561,0.65204 2.93197,0.63847 4.02689,-0.0291 z m -2.43939,0.0479 c -1.63716,-0.33578 -2.36964,-2.3436 -2.34121,-6.41758 0.0287,-4.11152 0.89415,-5.80896 2.96175,-5.80896 1.80805,0 2.55776,1.90681 2.54868,6.48229 -0.008,4.20874 -1.09072,6.17054 -3.16922,5.74425 z m 1.64831,-0.9156 c 0.81523,-0.88252 1.12908,-2.40018 1.108,-5.35782 -0.0224,-3.13685 -0.38058,-4.51197 -1.36731,-5.24867 -1.01334,-0.75656 -2.01152,-0.38233 -2.71185,1.01671 -0.55557,1.10985 -0.78037,6.51469 -0.33655,8.09158 0.54462,1.935 2.20816,2.68849 3.30771,1.4982 z m 18.00033,1.50405 c -1.37894,-0.7482 -1.60097,-1.63673 -1.73675,-6.94996 -0.12237,-4.78889 -0.13191,-4.85422 -0.74969,-5.1357 -0.80634,-0.36739 -0.81603,-1.20066 -0.0163,-1.40138 0.3352,-0.0841 1.25793,-0.11616 2.05052,-0.0712 l 1.44107,0.0818 0.13229,5.5824 c 0.1389,5.86143 0.26535,6.45614 1.37271,6.45614 1.92324,0 2.58272,-1.67075 2.59023,-6.5622 l 0.006,-3.78408 -0.79375,-0.2767 c -0.96791,-0.33741 -1.08145,-1.20098 -0.18741,-1.42537 0.33348,-0.0837 1.31575,-0.11573 2.18281,-0.0712 l 1.57647,0.081 0.1323,5.8176 0.13229,5.8176 0.7276,0.3484 c 1.04048,0.49822 0.96352,1.30962 -0.14393,1.51738 -1.59913,0.3 -2.92355,0.0517 -3.25133,-0.60958 -0.26829,-0.54126 -0.33404,-0.55962 -0.64827,-0.18099 -0.95707,1.15319 -3.39003,1.54013 -4.81668,0.76604 z m 3.33418,-0.21522 c 0.48022,-0.20065 1.11861,-0.6769 1.41864,-1.05833 0.71907,-0.91415 1.13083,-0.87766 1.13083,0.10022 v 0.79375 h 1.5875 c 1.68205,0 2.13773,-0.42686 0.99219,-0.92944 -0.58532,-0.2568 -0.59754,-0.35889 -0.72761,-6.08201 l -0.13229,-5.82084 -1.65741,0.0258 c -1.60236,0.025 -2.43129,0.30701 -1.68295,0.57266 1.27823,0.45374 1.41896,0.98411 1.30549,4.92032 -0.12124,4.20587 -0.57566,5.61669 -2.05563,6.38201 -1.03829,0.53692 -1.42043,0.50782 -2.02006,-0.15387 -0.45232,-0.49915 -0.51759,-1.1302 -0.63631,-6.15156 l -0.1323,-5.59537 -1.5306,0.0313 c -1.86617,0.0382 -2.12947,0.24739 -1.18089,0.93838 l 0.72712,0.52967 v 4.67841 c 0,4.04932 0.066,4.80238 0.49093,5.60033 0.74052,1.39062 2.46552,1.90289 4.10335,1.21856 z m -102.141184,-0.0616 c -0.116298,-0.30307 0.09528,-0.66142 0.668909,-1.13292 l 0.839012,-0.68964 -0.0024,-4.41013 c -0.0026,-4.8786 -0.05621,-5.18012 -0.982858,-5.53244 -0.46477,-0.1767 -0.620231,-0.41011 -0.559228,-0.83962 0.07901,-0.55633 0.212956,-0.59489 2.066269,-0.59489 h 1.981777 l 0.145865,0.79375 c 0.144387,0.78571 0.149183,0.78775 0.473462,0.20118 1.454271,-2.63056 5.331812,-0.84729 4.418016,2.03182 -0.5982,1.88477 -2.686779,1.46073 -2.833926,-0.57536 l -0.08155,-1.12847 -0.507236,0.74864 c -0.823623,1.21561 -1.212556,3.27497 -1.212556,6.42037 0,3.1587 0.07518,3.35618 1.40472,3.68987 0.560983,0.1408 0.720845,0.3222 0.659978,0.74888 -0.111113,0.77892 -6.185795,1.03112 -6.478265,0.26896 z m 5.980275,-0.0843 c 0.28725,-0.1818 0.146236,-0.33406 -0.596995,-0.64461 -1.350636,-0.56433 -1.584769,-1.3274 -1.409646,-4.59425 0.22731,-4.24036 1.330694,-7.215 2.676258,-7.215 0.489394,0 0.513414,0.27622 0.102456,1.17817 -0.592963,1.30141 0.640991,2.61539 1.577053,1.67933 0.174625,-0.17463 0.3175,-0.74345 0.3175,-1.26405 0,-2.61348 -2.332257,-2.95892 -3.956587,-0.58603 -0.690979,1.00941 -0.826699,0.9567 -1.053495,-0.40919 l -0.165231,-0.99511 -1.36973,0.0107 c -1.72018,0.0134 -1.920916,0.21325 -1.037052,1.03239 l 0.702928,0.65145 v 4.88822 4.88822 l -0.683637,0.53775 c -0.376001,0.29576 -0.607099,0.66159 -0.513552,0.81295 0.209335,0.33872 4.880843,0.36382 5.40973,0.0291 z m 28.251429,0.34275 c -0.40665,-0.40665 -0.13952,-1.04652 0.61649,-1.47674 l 0.79795,-0.45408 -0.072,-4.96655 -0.072,-4.96656 -0.72761,-0.34848 c -1.64015,-0.78556 -0.7108,-1.63214 1.79917,-1.63892 2.00098,-0.005 1.97061,-0.10074 1.9752,6.20086 0.004,5.86341 0.0333,6.04739 1.00356,6.3503 0.43312,0.13522 0.58701,0.35719 0.52916,0.76326 -0.077,0.54017 -0.23963,0.57681 -2.87332,0.64715 -1.53547,0.041 -2.87492,-0.009 -2.97657,-0.11024 z m 5.35765,-0.34707 c 0.30683,-0.19411 0.24116,-0.30701 -0.32992,-0.56721 -1.05316,-0.47986 -1.24065,-1.58428 -1.24231,-7.31827 l -0.001,-5.09323 h -1.70418 c -1.90146,0 -2.3811,0.31774 -1.27755,0.84633 l 0.73277,0.35098 0.0717,5.21015 0.0717,5.21016 -0.79988,0.59137 c -0.57436,0.42464 -0.70646,0.65067 -0.46857,0.80172 0.45862,0.2912 4.47794,0.2652 4.94771,-0.032 z m 26.47332,0.1196 c -0.39773,-0.47923 -0.33711,-0.56238 0.83777,-1.14908 l 0.88083,-0.43985 0.0718,-5.07692 0.0718,-5.07692 -0.99565,-0.0825 c -1.67688,-0.13887 -1.47825,-1.52365 0.21998,-1.53361 0.65133,-0.004 0.69909,-0.0948 0.83467,-1.59006 0.22924,-2.52803 1.43925,-4.0837 3.42725,-4.40631 2.05917,-0.33416 3.64618,0.7759 3.64618,2.55036 0,1.72648 -1.67322,2.51262 -2.53817,1.19253 -0.41296,-0.63025 -0.40881,-1.00135 0.0229,-2.05005 0.14508,-0.3524 0.061,-0.46302 -0.35185,-0.46302 -0.91066,0 -1.36623,0.99012 -1.36623,2.96929 v 1.79321 l 0.8599,0.004 c 1.93229,0.009 2.16936,1.39425 0.2623,1.53252 l -1.1222,0.0814 v 4.85794 c 0,5.58082 0.009,5.62302 1.23037,5.85218 0.74095,0.139 0.89943,0.27857 0.83435,0.7348 -0.0762,0.53431 -0.24461,0.56699 -3.28259,0.63718 -2.63598,0.0609 -3.26259,0.001 -3.54344,-0.33713 z m 6.50222,-0.36413 c -0.0783,-0.12673 -0.50403,-0.30274 -0.94602,-0.39114 -1.17615,-0.23523 -1.32406,-0.93515 -1.32406,-6.26554 0,-5.2604 0.008,-5.28375 1.85031,-5.28375 0.4838,0 0.75892,-0.10975 0.66324,-0.26458 -0.0899,-0.14552 -0.55864,-0.26459 -1.04156,-0.26459 -1.28371,0 -1.54902,-0.4873 -1.42831,-2.62353 0.10804,-1.91208 0.53706,-2.7461 1.54866,-3.01064 0.77967,-0.20389 1.51736,0.44505 1.09054,0.95934 -0.59482,0.71671 -0.27588,1.8844 0.54047,1.97871 1.36925,0.15819 1.64996,-1.71412 0.42773,-2.8528 -0.62791,-0.58499 -2.32251,-0.72673 -3.47046,-0.29028 -1.10304,0.41937 -1.86099,1.78398 -1.98453,3.57294 -0.12973,1.87851 -0.36986,2.26626 -1.40348,2.26626 -0.41875,0 -0.76136,0.11907 -0.76136,0.26459 0,0.14552 0.28916,0.26458 0.64256,0.26458 1.35425,0 1.47411,0.44118 1.47411,5.42563 0,5.12845 -0.13388,5.76189 -1.30402,6.16981 -1.3616,0.47465 -0.94526,0.57539 2.37797,0.57539 1.75484,0 3.12653,-0.10368 3.04821,-0.2304 z m 13.85263,0.34236 c -0.30948,-0.37291 -0.28714,-0.48423 0.15916,-0.79302 1.19418,-0.82626 1.18063,-0.76261 1.18063,-5.54708 0,-4.26699 -0.0404,-4.66018 -0.52916,-5.14894 -0.29104,-0.29104 -0.64823,-0.52917 -0.79375,-0.52917 -0.4316,0 -0.30077,-0.98783 0.15393,-1.16231 0.23018,-0.0883 1.12613,-0.1606 1.99099,-0.1606 1.5427,0 1.57554,0.0153 1.73455,0.81037 l 0.16207,0.81038 0.8235,-0.78119 c 1.08495,-1.0292 1.81159,-1.22247 2.75738,-0.73338 1.87137,0.96772 1.6898,4.12715 -0.23718,4.12715 -0.93705,0 -1.41232,-0.79178 -1.2129,-2.02066 0.30908,-1.90462 -0.85019,-0.53099 -1.53241,1.81577 -0.31038,1.06766 -0.40354,2.32545 -0.34888,4.71019 l 0.0746,3.25356 0.92604,0.31137 c 0.62661,0.21068 0.92605,0.47483 0.92605,0.81692 0,0.7198 -5.65425,0.9199 -6.23459,0.22064 z m 5.83771,-0.37654 c 0,-0.14552 -0.23812,-0.26458 -0.52917,-0.26458 -1.21266,0 -1.58784,-0.86229 -1.5829,-3.63802 0.008,-4.42866 0.96399,-7.59443 2.45162,-8.1176 0.94399,-0.33198 1.15439,-0.0542 0.59991,0.79207 -0.8153,1.2443 0.26118,2.83775 1.3222,1.95718 1.0904,-0.90496 0.0816,-3.42905 -1.37052,-3.42905 -0.68508,0 -2.47864,1.56122 -2.47864,2.15756 0,0.75174 -0.67984,-0.0941 -0.79375,-0.98762 l -0.13229,-1.03765 -1.45521,0.093 c -1.81726,0.11608 -1.88103,0.18236 -0.9157,0.95164 l 0.78341,0.62431 0.0904,4.15408 c 0.1084,4.98044 -0.019,5.8695 -0.89843,6.2702 -1.2047,0.5489 -0.65631,0.7391 2.13094,0.7391 1.67569,0 2.77812,-0.10499 2.77812,-0.26458 z m 17.03388,0.40955 c -0.19855,-0.5174 0.0853,-0.92186 0.8512,-1.21307 l 0.63576,-0.24171 v -5.0474 -5.0474 l -0.80811,-0.2817 c -0.60896,-0.21229 -0.78827,-0.4208 -0.7276,-0.84613 0.0731,-0.5129 0.26811,-0.57149 2.13539,-0.64178 l 2.05489,-0.0774 0.16399,0.81991 0.16398,0.81991 0.69154,-0.64408 c 1.4678,-1.36706 2.98461,-1.61235 4.44901,-0.71945 1.55114,0.94579 1.76227,1.72689 1.88246,6.96458 l 0.10797,4.70491 0.78053,0.40362 c 1.49897,0.77515 0.89202,1.29906 -1.50497,1.29906 h -2.11304 l -0.13229,-5.5824 c -0.14205,-5.99407 -0.25039,-6.45614 -1.51375,-6.45614 -1.77694,0 -2.71959,2.43479 -2.71959,7.02448 0,2.89266 0.10802,3.19144 1.43019,3.95573 0.29662,0.17147 0.39488,0.42753 0.2792,0.7276 -0.2439,0.63266 -5.86639,0.70523 -6.10676,0.0788 z m 5.63092,-0.27726 c 0.0471,-0.14552 -0.28131,-0.47353 -0.72992,-0.72891 l -0.81565,-0.46433 0.0934,-4.03359 c 0.0746,-3.21862 0.18737,-4.20682 0.5584,-4.89099 0.9132,-1.68395 2.76923,-2.25438 3.67911,-1.13073 0.4271,0.52745 0.47901,1.17308 0.47901,5.95789 0,6.03819 -0.13087,5.68754 2.12269,5.68754 1.20946,0 2.08879,-0.49235 1.33066,-0.74506 -1.21327,-0.40443 -1.33668,-0.9105 -1.33668,-5.48115 0,-5.93812 -0.49263,-7.00296 -3.23979,-7.00296 -1.1198,0 -1.40962,0.12874 -2.45125,1.08888 -1.21944,1.12405 -1.33893,1.10063 -1.50589,-0.29513 -0.0747,-0.62445 -0.16476,-0.65971 -1.60972,-0.63016 -1.50058,0.0307 -2.26552,0.31146 -1.54518,0.56717 1.2572,0.44627 1.35599,0.87495 1.35599,5.88382 0,4.99262 -0.1063,5.4594 -1.33669,5.86953 -0.1966,0.0655 -0.25833,0.25425 -0.14379,0.43959 0.24623,0.3984 4.964,0.31377 5.09528,-0.0914 z m 8.47626,0.49349 c -0.40665,-0.40665 -0.13953,-1.04652 0.61649,-1.47674 l 0.79794,-0.45408 -0.072,-4.96655 -0.072,-4.96656 -0.7276,-0.34848 c -1.64015,-0.78556 -0.7108,-1.63214 1.79916,-1.63892 2.00098,-0.005 1.97062,-0.10074 1.9752,6.20086 0.004,5.86341 0.0333,6.04739 1.00356,6.3503 0.43313,0.13522 0.58702,0.35719 0.52917,0.76326 -0.0769,0.54017 -0.23963,0.57681 -2.87333,0.64715 -1.53546,0.041 -2.87492,-0.009 -2.97656,-0.11024 z m 5.35764,-0.34707 c 0.30683,-0.19411 0.24117,-0.30701 -0.32991,-0.56721 -1.05317,-0.47986 -1.24065,-1.58428 -1.24231,-7.31827 l -0.001,-5.09323 h -1.70417 c -1.90147,0 -2.38111,0.31774 -1.27755,0.84633 l 0.73276,0.35098 0.0717,5.21015 0.0717,5.21016 -0.79987,0.59137 c -0.57436,0.42464 -0.70647,0.65067 -0.46858,0.80172 0.45862,0.2912 4.47795,0.2652 4.94771,-0.032 z m -92.77225,-15.56783 c -0.58092,-0.36938 -0.88435,-1.58897 -0.58876,-2.36643 0.74543,-1.96065 3.00758,-1.41744 3.00758,0.72222 0,1.54838 -1.24189,2.39256 -2.41882,1.64421 z m 1.71647,-0.37421 c 0.52772,-0.52772 0.39692,-2.26721 -0.19428,-2.58361 -1.01432,-0.54285 -1.86947,0.058 -1.86947,1.31361 0,1.27684 1.27332,2.06042 2.06375,1.27 z m 87.44811,0.37421 c -0.58092,-0.36938 -0.88435,-1.58897 -0.58876,-2.36643 0.74544,-1.96065 3.00758,-1.41744 3.00758,0.72222 0,1.54838 -1.24189,2.39256 -2.41882,1.64421 z m 1.71647,-0.37421 c 0.52772,-0.52772 0.39692,-2.26721 -0.19427,-2.58361 -1.01432,-0.54285 -1.86948,0.058 -1.86948,1.31361 0,1.27684 1.27333,2.06042 2.06375,1.27 z"
         id="path10" /><path
         style="fill:#5ac5b2"
         d="m 25.416699,186.40407 c 0.975899,-0.0508 2.642774,-0.0511 3.704167,-7.5e-4 1.061393,0.0503 0.26293,0.0919 -1.774362,0.0923 -2.037291,4.1e-4 -2.905704,-0.0408 -1.929805,-0.0916 z m 7.618347,-0.45883 c 3.411513,-0.57755 9.786387,-2.69001 12.499373,-4.14196 0.255866,-0.13693 0.465211,-0.1798 0.465211,-0.0952 0,0.23403 -4.172371,2.10186 -6.455442,2.88987 -2.342553,0.80854 -6.544581,1.7397 -7.699767,1.70626 -0.436563,-0.0126 0.09922,-0.17416 1.190625,-0.35892 z m -11.641667,-0.53629 c -2.129523,-0.40353 -3.229535,-0.69468 -3.102925,-0.82129 0.05319,-0.0532 0.921943,0.0933 1.930551,0.32548 1.008608,0.2322 3.798364,0.50724 6.199458,0.6112 l 4.365625,0.18901 -3.836459,0.0107 c -2.110052,0.006 -4.610364,-0.1359 -5.55625,-0.31514 z m 11.641667,-0.28941 c 2.671451,-0.49237 7.207836,-1.96832 7.337594,-2.38734 0.05289,-0.17081 -0.6522,-0.48278 -1.667612,-0.73785 -2.211082,-0.5554 -4.053984,-1.4823 -5.459335,-2.7458 -1.087569,-0.97779 -2.594791,-3.0822 -2.58871,-3.6144 0.0018,-0.15341 0.307353,0.25685 0.679112,0.9117 0.701272,1.23527 2.429428,3.175 2.828695,3.175 0.12573,0 -0.181263,-0.50602 -0.682207,-1.12448 -0.906967,-1.11974 -1.781583,-2.62686 -1.758134,-3.02957 0.0068,-0.11637 0.31231,0.36498 0.678965,1.06966 1.414838,2.71921 4.238466,4.72094 7.177245,5.08812 0.778847,0.0973 1.352143,0.24087 1.27399,0.31902 -0.07815,0.0782 -0.0093,0.30206 0.152922,0.49757 0.55624,0.67023 -5.143137,2.56131 -8.606328,2.85562 -1.43415,0.12187 -1.363122,0.0908 0.633803,-0.27725 z m 13.758334,-3.90095 c 0,-0.0658 0.579111,-0.49128 1.286913,-0.94547 2.421285,-1.55374 4.176518,-3.67756 4.402946,-5.32755 0.10887,-0.79334 0.302526,-1.68056 0.430347,-1.9716 0.167979,-0.38248 0.189541,-0.2908 0.07778,0.33073 -0.08877,0.49366 -0.04342,0.8599 0.106468,0.8599 0.466362,0 2.735807,-2.71662 4.464309,-5.34396 9.915255,-15.07129 7.923803,-34.72155 -4.808412,-47.44604 -4.115527,-4.11303 -6.293136,-4.99374 -12.310356,-4.97879 -18.353949,0.0456 -28.902562,20.26126 -16.82435,32.24265 3.931529,3.90001 7.885748,5.11773 12.832264,3.95177 8.899884,-2.09784 13.291142,-10.73058 9.382225,-18.44446 -0.836137,-1.65004 -0.256066,-1.29895 0.944172,0.57146 4.08788,6.37041 1.697563,14.33804 -5.308383,17.69441 -1.128721,0.54074 -2.059429,1.11796 -2.06824,1.28271 -0.0088,0.16475 0.966245,0.60752 2.166792,0.98393 2.933291,0.91968 5.213219,2.3085 7.459181,4.54375 1.604248,1.5966 3.601179,4.56443 3.581164,5.32231 -0.0033,0.12515 -0.410017,-0.5221 -0.903804,-1.43834 -0.493787,-0.91624 -1.04383,-1.84185 -1.222319,-2.05691 -0.572446,-0.68976 -0.553503,-0.21137 0.03085,0.77903 0.311329,0.52767 0.497819,0.95939 0.414421,0.95939 -0.0834,0 -0.332259,-0.34929 -0.553026,-0.77621 -0.661606,-1.27941 -3.344406,-4.00953 -4.985765,-5.07371 -2.18557,-1.41702 -4.595393,-2.15319 -7.723305,-2.35936 l -2.645833,-0.17441 2.116667,-0.0495 c 2.595038,-0.0607 2.180027,-0.51625 -0.621434,-0.68209 -1.653442,-0.0979 -2.958146,0.12453 -4.607088,0.78538 -0.345438,0.13844 -0.426828,0.0846 -0.314549,-0.20796 0.113522,-0.29584 -0.266885,-0.52977 -1.518354,-0.9337 -3.389717,-1.09409 -4.086751,-1.45381 -6.328477,-3.2659 -2.492987,-2.0152 -4.307312,-4.75615 -5.714618,-8.63323 -0.347373,-0.957 -0.818416,-1.87662 -1.046762,-2.04359 -0.554755,-0.40565 0.0404,-9.62347 0.636101,-9.85206 0.196674,-0.0755 0.695662,-0.88283 1.108863,-1.79412 2.798312,-6.17155 8.758558,-10.74551 15.873354,-12.18141 2.24842,-0.45377 7.981341,-0.4333 9.513699,0.034 0.995509,0.30356 0.567791,-0.44711 -0.644209,-1.13063 -2.456398,-1.38531 -7.25577,-2.93994 -10.839775,-3.51124 l -1.582168,-0.2522 1.455208,0.11168 c 0.800365,0.0614 1.931459,0.17531 2.513542,0.25306 l 1.058333,0.14137 -0.888716,-0.27855 c -0.488794,-0.1532 -1.917544,-0.43885 -3.175,-0.63477 -1.257456,-0.19592 -1.888268,-0.36775 -1.401804,-0.38184 0.486464,-0.0141 2.041974,0.21026 3.456689,0.49856 15.841026,3.22819 27.710035,14.92608 31.145694,30.69665 0.694319,3.1871 0.694909,11.09563 0.0011,14.2875 -1.983442,9.12436 -6.884909,17.09511 -14.016344,22.79332 -2.582519,2.0635 -4.405959,3.32415 -4.405959,3.04609 z M 18.077261,135.36696 c 0.205044,-1.52673 -0.07921,-4.0896 -0.388819,-3.50561 -0.276717,0.52195 -0.577999,5.12378 -0.350358,5.35142 0.286608,0.28661 0.536641,-0.33775 0.739177,-1.84581 z m 32.887211,-16.83101 c -0.113634,-0.35342 -3.865862,-2.70853 -4.039176,-2.53522 -0.219485,0.21949 0.329778,0.70657 1.98475,1.76007 1.818915,1.15787 2.226984,1.31183 2.054426,0.77515 z m -10.653384,56.9123 c 2.290271,-0.87659 4.101042,-2.99207 4.101042,-4.79116 0,-0.38203 0.137255,-0.77943 0.305012,-0.88311 0.488325,-0.3018 0.09266,2.9236 -0.478225,3.89845 -0.757583,1.29365 -1.732056,1.87733 -3.312807,1.9843 -1.297556,0.0878 -1.346109,0.0713 -0.615022,-0.20848 z m -3.251021,-0.79118 c -1.726194,-1.10534 -2.238088,-3.74121 -1.004821,-5.17407 0.790735,-0.91871 1.131799,-0.67357 0.571184,0.41054 -0.83065,1.6063 -0.375308,3.6406 1.06922,4.77686 0.908978,0.715 0.488056,0.70618 -0.635583,-0.0133 z m -6.115121,-2.15727 c -0.01461,-0.2608 0.159417,-1.37458 0.38673,-2.47508 0.227313,-1.10049 0.348491,-2.0657 0.269285,-2.1449 -0.226539,-0.22654 -1.195529,2.09651 -1.241969,2.97748 -0.03371,0.63939 -0.0643,0.67678 -0.157314,0.19226 -0.479676,-2.49862 3.303749,-6.69338 6.008368,-6.66161 0.642421,0.008 0.638614,0.018 -0.132292,0.36371 -2.236582,1.00294 -4.084675,3.55489 -4.738828,6.54364 -0.202077,0.92327 -0.379368,1.46529 -0.39398,1.2045 z m 43.836991,-18.90349 c 0.768862,-0.0536 1.959487,-0.053 2.645833,0.001 0.686346,0.0543 0.05728,0.0982 -1.397932,0.0975 -1.455208,-6.8e-4 -2.016764,-0.0451 -1.247901,-0.0987 z m 75.595823,-0.2969 c -2.76279,-1.70656 -3.78461,-6.30873 -2.14487,-9.66023 2.47803,-5.06493 8.34959,-3.41686 9.04972,2.54014 0.59563,5.06791 -3.45878,9.24871 -6.90485,7.12009 z m 4.14808,-1.57949 c 0.64515,-1.32221 0.87289,-5.83873 0.40545,-8.04077 -0.44077,-2.07639 -2.12062,-3.12934 -3.66977,-2.30026 -2.02189,1.08208 -2.31469,9.53795 -0.39161,11.30929 1.29871,1.19624 2.7929,0.8005 3.65593,-0.96826 z m -15.39288,1.66112 c 0,-0.0803 0.36569,-0.27354 0.81265,-0.42934 1.17014,-0.40792 1.30402,-1.04136 1.30402,-6.16981 0,-4.98445 -0.11986,-5.42563 -1.47411,-5.42563 -0.3534,0 -0.64256,-0.11906 -0.64256,-0.26458 0,-0.14552 0.34261,-0.26459 0.76136,-0.26459 1.03362,0 1.27375,-0.38775 1.40348,-2.26626 0.12354,-1.78896 0.88149,-3.15357 1.98453,-3.57294 1.14795,-0.43645 2.84255,-0.29471 3.47046,0.29028 1.22223,1.13868 0.94152,3.01099 -0.42773,2.8528 -0.81635,-0.0943 -1.13529,-1.262 -0.54047,-1.97871 0.42682,-0.51429 -0.31087,-1.16323 -1.09054,-0.95934 -1.0116,0.26454 -1.44062,1.09856 -1.54866,3.01064 -0.12071,2.13623 0.1446,2.62353 1.42831,2.62353 0.48292,0 0.95162,0.11907 1.04156,0.26459 0.0957,0.15483 -0.17944,0.26458 -0.66324,0.26458 -1.84213,0 -1.85031,0.0234 -1.85031,5.28375 0,5.33039 0.14791,6.03031 1.32406,6.26554 1.79585,0.35917 0.90845,0.62154 -2.10219,0.62154 -1.75484,0 -3.19062,-0.0657 -3.19062,-0.14605 z m 20.37292,-0.0761 c 0,-0.12216 0.29123,-0.35481 0.64719,-0.51699 0.87945,-0.4007 1.00683,-1.28976 0.89843,-6.2702 l -0.0904,-4.15408 -0.78341,-0.62431 c -0.96533,-0.76928 -0.90156,-0.83556 0.9157,-0.95164 l 1.45521,-0.093 0.13229,1.03765 c 0.11391,0.89348 0.79375,1.73936 0.79375,0.98762 0,-0.59634 1.79356,-2.15756 2.47864,-2.15756 1.4521,0 2.46092,2.52409 1.37052,3.42905 -1.06102,0.88057 -2.1375,-0.71288 -1.3222,-1.95718 0.55448,-0.84625 0.34408,-1.12405 -0.59991,-0.79207 -1.48763,0.52317 -2.44373,3.68894 -2.45162,8.1176 -0.005,2.77573 0.37024,3.63802 1.5829,3.63802 0.29105,0 0.52917,0.11906 0.52917,0.26458 0,0.15959 -1.10243,0.26458 -2.77812,0.26458 -1.52797,0 -2.77813,-0.0999 -2.77813,-0.22211 z m -84.823541,-5.8633 c 0,-2.4011 0.04011,-3.38336 0.08914,-2.18281 0.04903,1.20054 0.04903,3.16507 0,4.36562 -0.04903,1.20055 -0.08914,0.21828 -0.08914,-2.18281 z M 108.8152,147.0448 c 2.8e-4,-2.61937 0.0399,-3.65515 0.088,-2.30172 0.0481,1.35343 0.0479,3.49656 -5e-4,4.7625 -0.0484,1.26595 -0.0878,0.1586 -0.0875,-2.46078 z m 89.16459,0 c 2.7e-4,-2.61937 0.0399,-3.65515 0.088,-2.30172 0.0481,1.35343 0.0479,3.49656 -5.1e-4,4.7625 -0.0484,1.26595 -0.0878,0.1586 -0.0875,-2.46078 z m -18.89528,-1.11179 c -0.0725,-2.93983 -0.0398,-5.25295 0.0726,-5.14027 0.11238,0.11267 0.17166,2.51798 0.13175,5.34513 l -0.0726,5.14027 z m 25.50935,0.71492 c 0,-2.54662 0.0397,-3.58841 0.0882,-2.31511 0.0485,1.27331 0.0485,3.3569 0,4.63021 -0.0485,1.27331 -0.0882,0.23151 -0.0882,-2.3151 z M 4.2175108,148.39384 c 0.060634,-0.0584 1.6580556,-0.77886 3.5498264,-1.60105 1.8917709,-0.82218 3.5884118,-1.56105 3.7703128,-1.64193 0.187704,-0.0834 0.330729,0.0352 0.330729,0.27438 0,0.97205 -4.5618581,3.07477 -6.6707163,3.07477 -0.5997172,0 -1.0407856,-0.0478 -0.9801519,-0.10617 z m 29.8758682,-3.598 c -0.60777,-0.19464 -0.586295,-0.21409 0.264584,-0.23968 3.149078,-0.0947 5.557154,-1.92119 6.486212,-4.91969 0.304578,-0.98301 0.731935,0.30142 0.535694,1.61005 -0.424769,2.83257 -4.034364,4.59084 -7.28649,3.54932 z M -5.0242327,129.41065 c 0.6324467,-0.96754 1.2953734,-1.97957 1.4731704,-2.24896 0.1777971,-0.26939 0.035745,0.15597 -0.3156711,0.94526 -0.3514161,0.78928 -1.0143428,1.80131 -1.4731704,2.24896 -0.7633056,0.7447 -0.7364672,0.66433 0.3156711,-0.94526 z m 5.3731933,-7.10917 c 1.3041638,-1.37982 2.4804795,-2.62782 2.614035,-2.77334 0.1335555,-0.14553 0.04836,0.0426 -0.1893224,0.41799 -0.5290384,0.83561 -0.3541328,1.04935 0.7254203,0.88646 0.6913366,-0.10432 0.6532757,-0.066 -0.229673,0.23125 -1.5991805,0.53836 -2.2319029,0.93541 -3.82946888,2.40309 -0.84193412,0.77348 -0.45633292,0.2791 0.90900898,-1.16545 z M 25.692858,110.46839 c 0.982266,-0.0509 2.58961,-0.0509 3.571875,0 0.982266,0.0509 0.178594,0.0926 -1.785937,0.0926 -1.964531,0 -2.768203,-0.0417 -1.785938,-0.0926 z m -0.926041,-0.79344 c 0.909505,-0.0517 2.397786,-0.0517 3.307291,0 0.909506,0.0517 0.165365,0.0939 -1.653645,0.0939 -1.819011,0 -2.563152,-0.0423 -1.653646,-0.0939 z"
         id="path9" /><path
         style="fill:#4d98b6"
         d="M 22.584004,186.16922 C 12.817869,184.7137 5.6629232,181.19146 -0.9811431,174.56854 -8.4728064,167.10072 -12.037693,158.66162 -12.049024,148.36772 c -0.02729,-24.7922 22.781279,-42.997 47.020948,-37.53006 0.992522,0.22385 1.755288,0.4563 1.695036,0.51655 -0.06025,0.0603 -1.05091,-0.0966 -2.201461,-0.3486 -3.000937,-0.65724 -10.775475,-0.65473 -13.83273,0.004 -7.952494,1.71468 -14.2360004,5.09897 -19.5478364,10.52848 -2.6477341,2.70638 -3.415323,3.69946 -6.3308452,8.1906 -5.3647524,8.26399 -6.3582424,22.12396 -2.3172743,32.32781 5.5413531,13.99246 19.6380099,23.72748 34.3805249,23.74288 6.113682,0.006 15.15473,-2.09651 14.161083,-3.29378 -0.361461,-0.43553 -0.176674,-0.55367 1.18475,-0.75744 0.582083,-0.0871 0.909505,-0.0928 0.727604,-0.0127 -0.181901,0.0801 -0.330729,0.25484 -0.330729,0.38823 0,0.46508 1.202806,0.23649 2.910417,-0.55311 0.945885,-0.43738 1.49688,-0.62188 1.224432,-0.41 -1.29453,1.00674 -8.607018,3.73227 -12.138961,4.52446 -1.868647,0.41913 -10.158068,0.75406 -11.97193,0.48373 z M 9.7945108,181.72591 c -1.5044295,-0.77922 -2.8676952,-1.54913 -3.0294792,-1.71091 -0.161784,-0.16179 -0.4170413,-0.29415 -0.5672383,-0.29415 -0.1501971,0 0.2010373,0.32446 0.7805208,0.72104 1.2392087,0.84806 4.8929959,2.72247 5.2819449,2.70966 0.148268,-0.005 -0.961319,-0.64642 -2.4657482,-1.42564 z m -9.65511666,-7.045 C -4.8970951,169.33067 -8.228251,163.0034 -9.7439046,155.90835 c -0.6900834,-3.23041 -0.6812394,-12.14798 0.015212,-15.33873 0.9068237,-4.15457 3.3005242,-10.34037 4.5073324,-11.64784 0.3362674,-0.36432 1.128317,-1.43532 1.7601102,-2.38 0.6317931,-0.94468 1.8254831,-2.44508 2.65264427,-3.33422 0.82716121,-0.88913 1.58462547,-1.84262 1.68325392,-2.11885 0.22594801,-0.63282 3.08794721,-3.04392 5.76821001,-4.85945 3.4044928,-2.3061 2.6085802,-2.03554 -1.3890625,0.47219 -10.3501794,6.49269 -17.0055057,18.82885 -17.0124987,31.53398 -0.0055,10.03725 3.5304951,18.50607 10.79868613,25.86302 3.51700637,3.55996 4.28563647,3.96717 1.09941101,0.58246 z m 33.24506286,4.4045 c -2.997102,-2.69465 -4.003554,-7.24809 -2.321157,-10.50149 0.64311,-1.24363 0.725751,-0.77349 0.260211,1.48033 -0.677942,3.28213 0.16916,6.31887 2.490748,8.92899 1.3957,1.56916 1.248161,1.6008 -0.429802,0.0922 z m 16.253193,-0.33329 c 1.409242,-1.3823 2.069564,-2.47086 1.498837,-2.47086 -0.08515,0 -0.948349,0.68974 -1.91823,1.53275 -2.262027,1.96613 -3.265443,2.66585 -1.3889,0.96853 5.23266,-4.73291 6.073195,-12.54098 1.948985,-18.10492 l -0.691439,-0.93282 0.856608,0.79375 c 2.268212,2.10178 3.915575,7.61467 3.254881,10.89245 -0.171058,0.84863 -0.474441,2.35496 -0.674185,3.34739 -0.377504,1.87563 -1.548591,3.44654 -3.746452,5.02553 -0.436563,0.31363 -0.04961,-0.15967 0.859895,-1.0518 z m 162.88123,-20.24281 c -1.45936,-0.70664 -1.53834,-3.92388 -0.0963,-3.92388 1.05194,0 1.37093,1.54023 0.48914,2.36175 -0.47266,0.44035 -0.51204,0.59915 -0.23219,0.93635 0.8784,1.0584 2.51845,-0.19306 3.25934,-2.48706 l 0.43652,-1.35162 -2.00252,-5.74898 c -2.28367,-6.55614 -2.2945,-6.58066 -3.00834,-6.80723 -1.18801,-0.37706 -0.39168,-0.66155 1.8518,-0.66155 2.42626,0 2.79272,0.14491 1.85208,0.73235 -0.73134,0.45673 -0.68659,0.79681 0.61849,4.69937 1.64159,4.90886 1.55802,4.95977 3.63473,-2.21444 l 0.48559,-1.67752 -0.64961,-0.64961 c -0.88497,-0.88497 -0.87875,-0.89015 1.07018,-0.89015 1.89461,0 2.0333,0.11947 1.06349,0.91611 -0.51994,0.4271 -1.12937,2.02324 -2.93341,7.68285 -2.39996,7.52911 -2.85882,8.5824 -3.95687,9.0827 -0.805,0.36678 -1.12556,0.36688 -1.88209,5.6e-4 z m 0.69742,-2.56403 c 0,-0.11021 -0.16571,-0.427 -0.36824,-0.70398 -0.7184,-0.98247 -1.57031,0.50269 -1.05647,1.84175 0.13738,0.358 0.26131,0.31794 0.79375,-0.25657 0.34703,-0.37445 0.63096,-0.77099 0.63096,-0.8812 z m 4.06587,-4.11896 c 0.52293,-1.57821 0.52112,-1.47423 0.0258,-1.47423 -0.76448,0 -3.18901,-6.87552 -2.94808,-8.36021 l 0.14609,-0.9002 h -1.4847 -1.48469 l 0.54098,0.59531 c 0.29753,0.32742 1.41962,3.11911 2.49351,6.20376 1.0739,3.08464 2.02601,5.52542 2.11581,5.42396 0.0898,-0.10147 0.35769,-0.77125 0.59531,-1.48839 z m 3.55029,-10.27162 c 0.37454,-0.42995 0.33516,-0.46302 -0.55139,-0.46302 h -0.95474 l 0.45071,0.78775 c 0.2479,0.43326 0.49602,0.64162 0.55139,0.46302 0.0554,-0.1786 0.28218,-0.53309 0.50403,-0.78775 z m -106.37189,16.31591 0.85989,-0.6777 v -7.65763 -7.65763 l -0.7928,-0.48213 c -1.04041,-0.63272 -0.77557,-0.83301 1.10148,-0.83301 1.42298,0 1.54372,0.0464 1.54746,0.59531 0.008,1.18952 0.45421,1.4637 1.11678,0.68639 3.91395,-4.59173 9.09483,3.39147 6.07152,9.35556 -1.23076,2.42792 -3.95461,3.41762 -5.67705,2.06274 -1.11291,-0.87542 -1.25072,-0.70051 -1.25072,1.5875 0,2.20014 0.44681,3.175 1.45521,3.175 0.21828,0 0.39687,0.11906 0.39687,0.26459 0,0.16016 -1.12252,0.26342 -2.84427,0.26164 l -2.84427,-0.003 z m 3.24114,-0.11018 c -0.72,-0.72001 -0.81051,-5.55625 -0.10398,-5.55625 0.30134,0 0.36952,-0.13486 0.23409,-0.46302 -0.68767,-1.66623 -0.87126,-5.30796 -0.37593,-7.45709 0.22492,-0.97589 0.20158,-1.21174 -0.13876,-1.40221 -0.24586,-0.13759 -0.40917,-0.59333 -0.40917,-1.14187 0,-0.89433 -0.0224,-0.9129 -1.09934,-0.9129 h -1.09934 l 0.50403,0.55695 c 0.47108,0.52054 0.50403,1.05488 0.50403,8.1743 0,7.11943 -0.0329,7.65377 -0.50403,8.17431 l -0.50403,0.55695 h 1.7608 1.7608 z m 3.69853,-4.75948 c 1.45825,-0.78044 2.0993,-7.82523 0.92719,-10.18948 -1.09752,-2.21382 -3.08647,-2.04739 -4.17701,0.34951 -0.84524,1.85775 -0.83748,6.84048 0.0131,8.4337 0.84368,1.58023 1.98504,2.07613 3.23669,1.40627 z m 1.93811,-0.80785 c 2.05532,-2.40117 2.13524,-7.03852 0.16891,-9.79998 -0.56455,-0.79283 -2.03079,-1.72481 -2.29613,-1.45947 -0.0801,0.0801 0.0551,0.22259 0.30044,0.31672 1.14755,0.44036 1.61191,2.14654 1.61304,5.92672 10e-4,3.57449 -0.0334,3.75365 -1.13151,5.88698 -0.31521,0.61234 0.56139,0.0448 1.34525,-0.87097 z m -94.801221,3.76716 c 0,-0.28059 0.886565,-0.66063 4.101042,-1.758 1.477341,-0.50434 2.243364,-0.61074 3.785906,-0.52585 3.050088,0.16786 3.126849,0.54376 0.144603,0.70814 -1.871051,0.10312 -3.1681,0.3435 -4.591967,0.851 -2.452894,0.87427 -3.439584,1.08216 -3.439584,0.72471 z m 57.67671,-2.76389 c -5.287686,-3.59973 -3.312512,-13.22544 2.577599,-12.56153 0.654212,0.0737 1.503296,0.36084 1.886855,0.638 0.898624,0.64936 2.109976,3.08985 2.208311,4.44905 l 0.07657,1.05833 -3.54383,0.13229 c -4.164741,0.15547 -4.214951,0.1882 -3.746999,2.44232 0.55701,2.68309 2.035323,4.13352 3.863456,3.79056 1.082328,-0.20305 2.322332,-1.38196 2.654287,-2.52351 0.237833,-0.81788 0.851325,-1.0589 0.686699,-0.26979 -0.438987,2.10424 -2.100308,3.43959 -4.279238,3.43959 -1.129654,0 -1.729182,-0.14973 -2.383708,-0.59531 z m 1.108938,-0.20649 c -1.476935,-0.90046 -2.894952,-5.4626 -1.890797,-6.0832 0.29331,-0.18127 0.293888,-0.29015 0.0034,-0.64016 -0.438858,-0.52879 -0.221968,-2.68004 0.389399,-3.86229 0.568891,-1.10011 0.374676,-1.22355 -0.519004,-0.32987 -1.181172,1.18117 -1.555813,2.17836 -1.680992,4.47433 -0.172554,3.16489 0.876223,5.53481 2.88792,6.52584 1.261616,0.62151 1.864917,0.55847 0.810072,-0.0847 z m 5.24352,-7.10244 c 0,-1.15043 -0.729375,-2.97982 -1.514988,-3.79982 -0.927684,-0.9683 -1.245857,-0.92749 -0.718575,0.0922 0.584646,1.13058 0.81407,3.55003 0.385588,4.06632 -0.289085,0.34833 -0.188266,0.40183 0.757245,0.40183 1.024931,0 1.09073,-0.0459 1.09073,-0.76049 z m -2.363856,0.22201 c 0.584783,-0.31296 0.653701,-1.17895 0.220353,-2.76881 -0.862384,-3.16392 -3.886172,-2.99945 -4.705894,0.25596 -0.407831,1.61965 -0.369535,2.18749 0.168668,2.50097 0.607465,0.35381 3.662253,0.36222 4.316873,0.0119 z m 8.713856,7.49132 c -2.474106,-0.92966 -4.105059,-4.6733 -3.437301,-7.88988 0.820173,-3.95075 4.577154,-6.30654 7.355824,-4.61243 1.79655,1.09532 2.16292,4.25269 0.51548,4.44235 -1.31773,0.15169 -1.73933,-2.32497 -0.46464,-2.72954 1.29386,-0.41065 0.0165,-1.71959 -1.67811,-1.71959 -1.545587,0 -2.909965,1.45557 -3.351076,3.57506 -0.46295,2.22443 -0.184845,5.41944 0.59474,6.83267 1.430376,2.593 4.340446,2.16787 5.354646,-0.78224 0.419,-1.21879 1.0452,-1.58891 0.77339,-0.45712 -0.55136,2.29575 -1.9334,3.54071 -3.89732,3.51074 -0.752815,-0.0115 -1.547352,-0.088 -1.765633,-0.17002 z m 0.04856,-0.82206 c -2.222028,-2.07569 -2.205131,-8.64891 0.02851,-11.09172 0.825049,-0.90231 0.07413,-0.7119 -1.035831,0.26266 -3.650869,3.2055 -2.523851,10.80554 1.714346,11.56067 0.05177,0.009 -0.266392,-0.32 -0.707025,-0.73161 z m 4.985503,-8.13352 c 0.43619,-1.14726 0.0868,-1.95914 -0.6889,-1.60092 -0.78513,0.36256 -1.03052,1.02375 -0.64634,1.74158 0.39704,0.74189 1.02484,0.67576 1.33524,-0.14066 z m 26.71348,8.55118 c -5.28769,-3.59973 -3.31251,-13.22544 2.5776,-12.56153 0.65421,0.0737 1.5033,0.36084 1.88685,0.638 0.89863,0.64936 2.10998,3.08985 2.20831,4.44905 l 0.0766,1.05833 -3.54383,0.13229 c -4.16474,0.15547 -4.21495,0.1882 -3.747,2.44232 0.55701,2.68309 2.03533,4.13352 3.86346,3.79056 1.08233,-0.20305 2.32233,-1.38196 2.65429,-2.52351 0.23783,-0.81788 0.85132,-1.0589 0.6867,-0.26979 -0.43899,2.10424 -2.10031,3.43959 -4.27924,3.43959 -1.12966,0 -1.72918,-0.14973 -2.38371,-0.59531 z m 1.10894,-0.20649 c -1.47694,-0.90046 -2.89495,-5.4626 -1.8908,-6.0832 0.29331,-0.18127 0.29389,-0.29015 0.003,-0.64016 -0.43886,-0.52879 -0.22197,-2.68004 0.3894,-3.86229 0.56889,-1.10011 0.37468,-1.22355 -0.519,-0.32987 -1.18117,1.18117 -1.55582,2.17836 -1.68099,4.47433 -0.17256,3.16489 0.87622,5.53481 2.88792,6.52584 1.26161,0.62151 1.86491,0.55847 0.81007,-0.0847 z m 5.24352,-7.10244 c 0,-1.15043 -0.72938,-2.97982 -1.51499,-3.79982 -0.92768,-0.9683 -1.24586,-0.92749 -0.71858,0.0922 0.58465,1.13058 0.81408,3.55003 0.38559,4.06632 -0.28908,0.34833 -0.18826,0.40183 0.75725,0.40183 1.02493,0 1.09073,-0.0459 1.09073,-0.76049 z m -2.36386,0.22201 c 0.58478,-0.31296 0.6537,-1.17895 0.22035,-2.76881 -0.86238,-3.16392 -3.88617,-2.99945 -4.70589,0.25596 -0.40783,1.61965 -0.36953,2.18749 0.16867,2.50097 0.60746,0.35381 3.66225,0.36222 4.31687,0.0119 z m 36.93678,7.14103 c -1.00949,-0.79407 -1.2323,-2.01872 -1.23395,-6.78209 -10e-4,-4.30321 -0.17217,-5.11213 -1.0787,-5.11213 -0.13513,0 -0.24569,-0.10757 -0.24569,-0.23905 0,-0.25201 2.54297,-0.53354 3.10886,-0.34417 0.25049,0.0838 0.33073,1.45167 0.33073,5.63861 0,6.06282 0.13507,6.58628 1.69949,6.58628 2.03468,0 3.06301,-2.39439 3.06301,-7.13201 0,-3.44204 -0.28543,-4.50966 -1.20563,-4.50966 -1.07516,0 -0.19026,-0.53491 0.94104,-0.56885 0.72761,-0.0218 1.47175,-0.0516 1.65365,-0.0661 0.2513,-0.0201 0.3625,1.32989 0.46302,5.62145 l 0.13229,5.6479 0.7276,0.57975 c 1.03979,0.82848 0.92452,0.95673 -0.85989,0.95673 -1.56675,0 -1.5875,-0.01 -1.5875,-0.74965 0,-1.17194 -0.27363,-1.18068 -1.32458,-0.0423 -0.91107,0.98687 -1.07167,1.05654 -2.43556,1.05654 -1.07036,0 -1.64384,-0.14448 -2.14819,-0.5412 z m 2.3952,0.022 c -1.70493,-0.33039 -1.7607,-0.5412 -1.77012,-6.69075 l -0.008,-5.4901 h -1.23163 c -1.17643,0 -1.21201,0.0217 -0.79375,0.48385 0.36643,0.4049 0.43976,1.14965 0.4494,4.56406 0.0184,6.52842 0.37952,7.41559 2.99436,7.35708 1.33602,-0.0299 1.3423,-0.0338 0.36016,-0.22414 z m 5.47236,-0.56632 c -0.45574,-0.503 -0.51178,-1.086 -0.58502,-6.08542 l -0.081,-5.52911 h -1.05848 c -1.04097,0 -1.05167,0.01 -0.64661,0.58804 0.49144,0.70163 0.59648,7.35863 0.13526,8.57175 -0.22161,0.58287 -0.1953,0.77309 0.13229,0.95641 0.2456,0.13745 0.40891,0.59343 0.40891,1.14174 0,0.89433 0.0224,0.91289 1.09934,0.91289 h 1.09934 z m 26.41176,0.90838 c -0.9076,-0.36517 -1.11891,-1.57432 -1.11891,-6.40272 0,-5.12609 -0.0671,-5.59103 -0.80644,-5.59103 -0.79981,0 -0.93033,-0.58653 -0.23143,-1.03999 1.2051,-0.78189 1.80459,-1.65463 2.12739,-3.09707 0.48349,-2.16045 0.76257,-1.97869 0.76257,0.49666 0,2.60353 0.16458,2.84665 1.92704,2.84665 1.80453,0 1.52322,0.62009 -0.36009,0.79375 l -1.43466,0.1323 -0.0778,4.6302 c -0.0917,5.45614 0.0127,6.2714 0.85239,6.65398 1.22757,0.55932 2.26222,-0.81735 2.26668,-3.01595 8.1e-4,-0.40019 0.12054,-0.72761 0.26606,-0.72761 0.67861,0 0.15847,2.92673 -0.68115,3.8327 -0.60172,0.64927 -2.44918,0.90755 -3.49161,0.48813 z m 1.11447,-0.46259 c -0.4748,-0.34677 -0.51974,-0.78787 -0.59504,-5.84142 -0.0504,-3.38214 0.0195,-5.58796 0.1833,-5.78534 0.16561,-0.19955 0.17286,-0.46432 0.0194,-0.70702 -0.13497,-0.2134 -0.24983,-1.04284 -0.25526,-1.84321 l -0.01,-1.45521 -0.48571,1.06928 c -0.26713,0.58811 -0.86897,1.39178 -1.3374,1.78594 -0.46844,0.39416 -0.75327,0.71848 -0.63296,0.72071 0.92596,0.0171 1.01146,0.46248 1.14478,5.96277 0.12947,5.34183 0.1456,5.46892 0.75691,5.96337 0.34354,0.27787 0.87232,0.50522 1.17505,0.50522 0.54019,0 0.54087,-0.007 0.0368,-0.37509 z m -133.731296,0.15298 c 0,-0.12216 0.291234,-0.35481 0.647185,-0.51699 0.879449,-0.4007 1.006839,-1.28976 0.898438,-6.2702 l -0.09041,-4.15408 -0.78341,-0.62431 c -0.965332,-0.76928 -0.901559,-0.83556 0.915701,-0.95164 l 1.455209,-0.093 0.132291,1.03765 c 0.113911,0.89348 0.79375,1.73936 0.79375,0.98762 0,-0.59634 1.793562,-2.15756 2.478638,-2.15756 1.411257,0 2.427991,2.39587 1.437196,3.38667 -1.029132,1.02913 -2.237838,-0.48843 -1.463558,-1.83754 0.371404,-0.64713 0.384045,-0.80042 0.07576,-0.91872 -1.648026,-0.63241 -3.043589,3.1013 -3.05261,8.16699 -0.0049,2.77573 0.37024,3.63802 1.582906,3.63802 0.291041,0 0.529166,0.11906 0.529166,0.26458 0,0.15959 -1.10243,0.26458 -2.778125,0.26458 -1.527968,0 -2.778125,-0.0999 -2.778125,-0.22211 z m 3.836459,-0.45864 c -0.645914,-0.48744 -0.905929,-5.26295 -0.411963,-7.56623 0.251567,-1.17302 0.235202,-1.41416 -0.109046,-1.60681 -0.269025,-0.15055 -0.405033,-0.62206 -0.405033,-1.40414 v -1.17748 h -1.241195 c -1.04885,0 -1.173701,0.0513 -0.805663,0.33073 0.796101,0.60453 0.988525,1.78297 0.988525,6.05389 0,4.09886 -0.159617,5.08969 -0.899505,5.58372 -0.160116,0.10691 0.542317,0.19243 1.560963,0.19003 1.709164,-0.004 1.811249,-0.0352 1.322917,-0.40371 z m 3.783541,-9.16175 c 0.360926,-0.36092 0.415235,-1.5001 0.09553,-2.00385 -0.165492,-0.26076 -0.305086,-0.23084 -0.617163,0.13229 -0.694651,0.80829 -0.78152,1.10358 -0.486712,1.65443 0.328815,0.6144 0.561069,0.66441 1.008343,0.21713 z m 26.511246,9.59575 c 0,-0.13571 0.24495,-0.3245 0.54433,-0.41951 0.87345,-0.27723 1.04317,-1.22348 1.04317,-5.81603 0,-4.61347 -0.16548,-5.53172 -1.03803,-5.75989 -1.18702,-0.31042 -0.51958,-0.7224 1.17033,-0.7224 h 1.71979 v 5.40674 c 0,5.65292 0.14431,6.60629 1.04317,6.89158 1.22232,0.38794 0.39971,0.66626 -1.96921,0.66626 -1.38245,0 -2.51355,-0.11103 -2.51355,-0.24675 z m 3.82089,-0.39296 c -0.47705,-0.34843 -0.51932,-0.79082 -0.59406,-6.2177 l -0.0805,-5.84259 h -1.04401 c -1.13582,0 -1.22799,0.13139 -0.63872,0.91047 0.30791,0.4071 0.38846,1.4942 0.38846,5.24292 0,4.59662 -0.14486,5.57565 -0.89951,6.07954 -0.16011,0.10691 0.53531,0.19621 1.54539,0.19844 1.64973,0.004 1.78427,-0.0341 1.32292,-0.37108 z m 71.32078,0.41889 c 0,-0.12146 0.98227,-0.16538 2.18281,-0.0976 l 2.18282,0.12324 -0.52055,-0.58212 c -0.65896,-0.73691 -0.8876,-4.90014 -0.41738,-7.60029 0.21996,-1.26311 0.22889,-1.82472 0.0301,-1.89099 -0.15553,-0.0518 -0.28279,-0.56059 -0.28279,-1.13055 v -1.03628 h -1.09934 c -1.04826,0 -1.07899,0.0225 -0.66146,0.48385 0.37466,0.414 0.43789,1.19965 0.43789,5.44135 0,4.7911 -0.16793,5.98105 -0.84407,5.98105 -0.16703,0 -0.10526,-0.21108 0.1416,-0.48386 0.69227,-0.76495 0.65229,-10.08801 -0.046,-10.71993 -0.26612,-0.24083 -0.62331,-0.43788 -0.79375,-0.43788 -0.17045,0 -0.3099,-0.10757 -0.3099,-0.23905 0,-0.25201 2.54297,-0.53354 3.10886,-0.34417 0.1819,0.0609 0.33073,0.51465 0.33073,1.0084 0,1.15518 0.39919,1.13626 1.44045,-0.0683 0.73085,-0.84547 1.01503,-0.9808 2.27699,-1.08434 2.88815,-0.23696 3.42264,0.89555 3.42483,7.25672 l 0.001,4.28031 0.85989,0.68609 0.8599,0.68609 -1.85209,-0.0716 -1.85208,-0.0716 -0.13229,-5.51404 c -0.13079,-5.45136 -0.13962,-5.51998 -0.77702,-6.03555 -1.13747,-0.92007 -2.59488,-0.18464 -3.48787,1.76001 -0.72027,1.56853 -0.73062,8.30607 -0.0138,8.95483 0.26612,0.24083 0.62331,0.43788 0.79375,0.43788 0.17045,0 0.3099,0.11906 0.3099,0.26458 0,0.15875 -1.05833,0.26458 -2.64583,0.26458 -1.45521,0 -2.64584,-0.0994 -2.64584,-0.22082 z m 10.75663,-0.52761 c -0.36696,-0.40549 -0.4389,-1.14468 -0.44419,-4.56407 -0.009,-6.10585 -0.54062,-7.41619 -2.985,-7.36363 l -1.10973,0.0239 0.85852,0.24793 c 1.61572,0.4666 1.77642,1.05626 1.88107,6.90241 l 0.0937,5.23735 h 1.07173 c 1.02152,0 1.05122,-0.0227 0.63385,-0.48385 z m 3.26629,0.50168 c 0,-0.13571 0.24494,-0.3245 0.54432,-0.41951 0.87346,-0.27723 1.04318,-1.22348 1.04318,-5.81603 0,-4.61347 -0.16548,-5.53172 -1.03804,-5.75989 -1.18702,-0.31042 -0.51958,-0.7224 1.17033,-0.7224 h 1.71979 v 5.40674 c 0,5.65292 0.14431,6.60629 1.04318,6.89158 1.22231,0.38794 0.39971,0.66626 -1.96922,0.66626 -1.38245,0 -2.51354,-0.11103 -2.51354,-0.24675 z m 3.82088,-0.39296 c -0.47705,-0.34843 -0.51931,-0.79082 -0.59406,-6.2177 l -0.0805,-5.84259 h -1.04402 c -1.13582,0 -1.22799,0.13139 -0.63872,0.91047 0.30792,0.4071 0.38846,1.4942 0.38846,5.24292 0,4.59662 -0.14485,5.57565 -0.8995,6.07954 -0.16012,0.10691 0.53531,0.19621 1.54538,0.19844 1.64973,0.004 1.78428,-0.0341 1.32292,-0.37108 z m -91.51525,-15.55874 c -0.99867,-1.42579 0.37678,-3.348 1.55359,-2.17119 0.82563,0.82563 0.27991,2.75923 -0.77874,2.75923 -0.19964,0 -0.54832,-0.26462 -0.77485,-0.58804 z m 1.58025,-0.49474 c 0.20213,-0.63685 -0.0544,-1.47359 -0.50484,-1.64643 -0.59282,-0.22748 -1.04632,0.26736 -1.04632,1.14171 0,1.29889 1.1775,1.68203 1.55116,0.50472 z m 87.58433,0.49474 c -0.99866,-1.42579 0.37678,-3.348 1.5536,-2.17119 0.82563,0.82563 0.2799,2.75923 -0.77875,2.75923 -0.19963,0 -0.54832,-0.26462 -0.77485,-0.58804 z m 1.58025,-0.49474 c 0.20213,-0.63685 -0.0544,-1.47359 -0.50484,-1.64643 -0.59282,-0.22748 -1.04632,0.26736 -1.04632,1.14171 0,1.29889 1.1775,1.68203 1.55116,0.50472 z m -182.259925,0.37887 c -0.227641,-0.22764 0.07364,-4.82947 0.350358,-5.35142 0.309606,-0.58399 0.593863,1.97888 0.388819,3.50561 -0.202536,1.50806 -0.452569,2.13242 -0.739177,1.84581 z m 31.805213,-19.33828 c -0.01723,-0.10914 -0.01535,-0.29339 0.0042,-0.40944 0.01954,-0.11604 -0.115193,-0.19123 -0.299397,-0.16708 -0.631403,0.0828 -0.897467,-0.0196 -1.493144,-0.57456 -0.950329,-0.88537 -0.472625,-0.8708 1.131486,0.0345 1.456527,0.82202 1.909018,1.19771 1.041672,0.86488 -0.296039,-0.11361 -0.377603,-0.0675 -0.248968,0.14059 0.10522,0.17025 0.124752,0.30955 0.0434,0.30955 -0.08135,0 -0.162006,-0.0893 -0.179239,-0.19844 z"
         id="path8" /><path
         style="fill:#3c83b0"
         d="m 10.0113,182.16168 c -2.1195825,-1.06949 -4.2621347,-2.44083 -3.8135067,-2.44083 0.150197,0 0.4054543,0.13236 0.5672383,0.29415 0.161784,0.16178 1.5250497,0.93169 3.0294792,1.71091 1.5044292,0.77922 2.6140162,1.42076 2.4657482,1.42564 -0.148269,0.005 -1.1603,-0.44056 -2.248959,-0.98987 z m 32.555928,0.007 c 0.004,-0.10914 0.931561,-0.63575 2.061357,-1.17024 1.268137,-0.59994 2.883339,-1.68831 4.22105,-2.84427 2.343952,-2.02549 2.441661,-2.08343 2.441661,-1.44806 0,0.81569 -3.052123,3.44999 -5.301738,4.57596 -1.995698,0.99887 -3.439935,1.37303 -3.42233,0.88661 z M -0.96001707,174.09845 C -10.917147,164.01972 -14.297513,150.21967 -10.064181,136.93149 c 2.6002116,-8.16191 8.4992808,-15.95265 15.3179765,-20.23004 3.9976427,-2.50773 4.7935555,-2.77829 1.3890625,-0.47219 -2.6802628,1.81553 -5.542262,4.22663 -5.76821001,4.85945 -0.0986285,0.27623 -0.85609271,1.22972 -1.68325392,2.11885 -0.82716117,0.88914 -2.02085117,2.38954 -2.65264427,3.33422 -0.6317932,0.94468 -1.4238428,2.01568 -1.7601102,2.38 -1.2068082,1.30747 -3.6005087,7.49327 -4.5073324,11.64784 -0.6964512,3.19075 -0.7052952,12.10832 -0.015212,15.33873 1.5156536,7.09505 4.8468095,13.42232 9.88329874,18.77256 3.18622526,3.38471 2.41759516,2.9775 -1.09941101,-0.58246 z M 115.21331,157.73265 c 0.47108,-0.52054 0.50403,-1.05488 0.50403,-8.17431 0,-7.11942 -0.0329,-7.65376 -0.50403,-8.1743 l -0.50403,-0.55695 h 1.09934 c 1.07699,0 1.09934,0.0186 1.09934,0.9129 0,0.54854 0.16331,1.00428 0.40917,1.14187 0.34034,0.19047 0.36368,0.42632 0.13876,1.40221 -0.49533,2.14913 -0.31174,5.79086 0.37593,7.45709 0.13543,0.32816 0.0673,0.46302 -0.23409,0.46302 -0.70653,0 -0.61602,4.83624 0.10398,5.55625 l 0.52917,0.52917 h -1.7608 -1.7608 z m 96.57828,-0.6496 c -0.51384,-1.33906 0.33807,-2.82422 1.05647,-1.84175 0.49203,0.6729 0.47227,0.79211 -0.26272,1.58518 -0.53244,0.57451 -0.65637,0.61457 -0.79375,0.25657 z M 86.512705,153.07453 c -2.011697,-0.99103 -3.060474,-3.36095 -2.88792,-6.52584 0.125179,-2.29597 0.49982,-3.29316 1.680992,-4.47433 0.89368,-0.89368 1.087895,-0.77024 0.519004,0.32987 -0.611367,1.18225 -0.828257,3.3335 -0.389399,3.86229 0.290486,0.35001 0.289908,0.45889 -0.0034,0.64016 -1.004155,0.6206 0.413862,5.18274 1.890797,6.0832 1.054845,0.64312 0.451544,0.70616 -0.810072,0.0847 z m 12.403728,0.15532 c -3.738675,-1.49081 -4.31998,-8.32913 -0.958897,-11.2802 1.109958,-0.97456 1.86088,-1.16497 1.035831,-0.26266 -2.233642,2.44281 -2.250539,9.01603 -0.02851,11.09172 0.440634,0.41161 0.758796,0.74084 0.707026,0.73161 -0.05177,-0.009 -0.391722,-0.13543 -0.755449,-0.28047 z m 32.046277,-0.15532 c -2.0117,-0.99103 -3.06048,-3.36095 -2.88792,-6.52584 0.12517,-2.29597 0.49982,-3.29316 1.68099,-4.47433 0.89368,-0.89368 1.08789,-0.77024 0.519,0.32987 -0.61137,1.18225 -0.82826,3.3335 -0.3894,3.86229 0.29049,0.35001 0.28991,0.45889 -0.003,0.64016 -1.00415,0.6206 0.41386,5.18274 1.8908,6.0832 1.05484,0.64312 0.45154,0.70616 -0.81007,0.0847 z m 40.71813,-0.0201 c -0.81107,-0.65677 -1.03747,-2.14638 -1.05094,-6.91488 -0.01,-3.41441 -0.083,-4.15916 -0.4494,-4.56406 -0.41826,-0.46216 -0.38268,-0.48385 0.79375,-0.48385 h 1.23163 l 0.008,5.4901 c 0.009,6.14955 0.0652,6.36036 1.77012,6.69075 0.98214,0.19033 0.97586,0.19424 -0.36016,0.22414 -0.94661,0.0212 -1.5371,-0.11318 -1.94342,-0.4422 z m 34.09029,-0.0326 c -0.61131,-0.49445 -0.62744,-0.62154 -0.75691,-5.96337 -0.13332,-5.50029 -0.21882,-5.94562 -1.14478,-5.96277 -0.12031,-0.002 0.16452,-0.32655 0.63296,-0.72071 0.46843,-0.39416 1.07027,-1.19783 1.3374,-1.78594 l 0.48571,-1.06928 0.01,1.45521 c 0.005,0.80037 0.12029,1.62981 0.25526,1.84321 0.1535,0.2427 0.14625,0.50747 -0.0194,0.70702 -0.16382,0.19738 -0.2337,2.4032 -0.1833,5.78534 0.0753,5.05355 0.12024,5.49465 0.59504,5.84142 0.50404,0.36812 0.50336,0.37509 -0.0368,0.37509 -0.30273,0 -0.83151,-0.22735 -1.17505,-0.50522 z m 8.79992,-5.13112 c -1.07389,-3.08465 -2.19598,-5.87634 -2.49351,-6.20376 l -0.54098,-0.59531 h 1.48469 1.4847 l -0.14609,0.9002 c -0.24093,1.48469 2.1836,8.36021 2.94808,8.36021 0.22345,0 0.40628,0.0383 0.40628,0.0852 0,0.23573 -0.88628,2.71804 -1.02736,2.87746 -0.0898,0.10146 -1.04191,-2.33932 -2.11581,-5.42396 z m -140.366758,5.16927 c 0.739888,-0.49403 0.899505,-1.48486 0.899505,-5.58372 0,-4.27092 -0.192424,-5.44936 -0.988525,-6.05389 -0.368038,-0.27948 -0.243187,-0.33073 0.805663,-0.33073 h 1.241195 v 1.17748 c 0,0.78208 0.136008,1.25359 0.405033,1.40414 0.344248,0.19265 0.360613,0.43379 0.109046,1.60681 -0.493966,2.30328 -0.233951,7.07879 0.411963,7.56623 0.488332,0.36853 0.386247,0.39968 -1.322917,0.40371 -1.018646,0.002 -1.721079,-0.0831 -1.560963,-0.19003 z m 34.131248,0 c 0.75465,-0.50389 0.89951,-1.48292 0.89951,-6.07954 0,-3.74872 -0.0806,-4.83582 -0.38846,-5.24292 -0.58927,-0.77908 -0.4971,-0.91047 0.63872,-0.91047 h 1.04401 l 0.0805,5.84259 c 0.0747,5.42688 0.11701,5.86927 0.59406,6.2177 0.46135,0.33698 0.32681,0.37472 -1.32292,0.37108 -1.01008,-0.002 -1.7055,-0.0915 -1.54539,-0.19844 z m 13.65756,0.004 c 1.09814,-2.13333 1.13257,-2.31249 1.13151,-5.88698 -0.001,-3.78018 -0.46549,-5.48636 -1.61304,-5.92672 -0.2453,-0.0941 -0.3805,-0.23666 -0.30044,-0.31672 0.26534,-0.26534 1.73158,0.66664 2.29613,1.45947 1.96633,2.76146 1.88641,7.39881 -0.16891,9.79998 -0.78386,0.91577 -1.66046,1.48331 -1.34525,0.87097 z m 55.76903,-0.71445 c 0,-0.54831 -0.16331,-1.00429 -0.40891,-1.14174 -0.32759,-0.18332 -0.3539,-0.37354 -0.13229,-0.95641 0.46122,-1.21312 0.35618,-7.87012 -0.13526,-8.57175 -0.40506,-0.57831 -0.39436,-0.58804 0.64661,-0.58804 h 1.05848 l 0.081,5.52911 c 0.0732,4.99942 0.12928,5.58242 0.58502,6.08542 l 0.50403,0.5563 h -1.09934 c -1.07698,0 -1.09934,-0.0186 -1.09934,-0.91289 z m 6.08542,0.38372 c 0.74007,-0.74007 0.81873,-10.35399 0.0913,-11.15781 -0.41753,-0.46137 -0.3868,-0.48385 0.66146,-0.48385 h 1.09934 v 1.03628 c 0,0.56996 0.12726,1.07871 0.28279,1.13055 0.1988,0.0663 0.18987,0.62788 -0.0301,1.89099 -0.46003,2.64165 -0.24102,6.86585 0.39224,7.56559 l 0.49541,0.54742 h -1.7608 -1.7608 z m 7.63438,-4.70818 c -0.10465,-5.84615 -0.26535,-6.43581 -1.88107,-6.90241 l -0.85852,-0.24793 1.10973,-0.0239 c 2.44438,-0.0526 2.97555,1.25778 2.985,7.36363 0.005,3.41939 0.0772,4.15858 0.44419,4.56407 0.41737,0.46118 0.38767,0.48385 -0.63385,0.48385 h -1.07173 z m 6.0182,5.03486 c 0.75465,-0.50389 0.8995,-1.48292 0.8995,-6.07954 0,-3.74872 -0.0805,-4.83582 -0.38846,-5.24292 -0.58927,-0.77908 -0.4971,-0.91047 0.63872,-0.91047 h 1.04402 l 0.0805,5.84259 c 0.0747,5.42688 0.11701,5.86927 0.59406,6.2177 0.46136,0.33698 0.32681,0.37472 -1.32292,0.37108 -1.01007,-0.002 -1.7055,-0.0915 -1.54538,-0.19844 z M 90.718322,146.2461 c 0.428482,-0.51629 0.199058,-2.93574 -0.385588,-4.06632 -0.527282,-1.01965 -0.209109,-1.06046 0.718575,-0.0922 0.785613,0.82 1.514988,2.64939 1.514988,3.79982 0,0.71461 -0.0658,0.76049 -1.09073,0.76049 -0.945511,0 -1.04633,-0.0535 -0.757245,-0.40183 z m 44.449998,0 c 0.42849,-0.51629 0.19906,-2.93574 -0.38559,-4.06632 -0.52728,-1.01965 -0.2091,-1.06046 0.71858,-0.0922 0.78561,0.82 1.51499,2.64939 1.51499,3.79982 0,0.71461 -0.0658,0.76049 -1.09073,0.76049 -0.94551,0 -1.04633,-0.0535 -0.75725,-0.40183 z m -32.5532,-1.46025 c -0.38418,-0.71783 -0.13879,-1.37902 0.64634,-1.74158 0.5683,-0.26243 0.6593,-0.22665 0.79459,0.31236 0.35863,1.4289 -0.81703,2.595 -1.44093,1.42922 z m -22.75175,-1.31839 c -0.294808,-0.55085 -0.207939,-0.84614 0.486712,-1.65443 0.480351,-0.55893 0.828645,-0.19216 0.83508,0.87938 0.0071,1.18995 -0.835356,1.68396 -1.321792,0.77505 z m 139.91367,-1.58803 -0.45071,-0.78775 h 0.95474 c 0.88655,0 0.92593,0.0331 0.55139,0.46302 -0.22185,0.25466 -0.44866,0.60915 -0.50403,0.78775 -0.0554,0.1786 -0.30349,-0.0298 -0.55139,-0.46302 z M 109.2331,137.38631 c -0.19296,-0.11926 -0.35083,-0.59496 -0.35083,-1.05713 0,-1.29889 1.1775,-1.68203 1.55116,-0.50473 0.33403,1.05245 -0.42549,2.04074 -1.20033,1.56186 z m 89.16459,0 c -0.19296,-0.11926 -0.35084,-0.59496 -0.35084,-1.05713 0,-1.29889 1.1775,-1.68203 1.55116,-0.50473 0.33404,1.05245 -0.42548,2.04074 -1.20032,1.56186 z"
         id="path7" /></g></g></svg>
