<?xml version="1.0" encoding="UTF-8" standalone="no"?>
<!-- Created with Inkscape (http://www.inkscape.org/) -->

<svg
   width="201.32957mm"
   height="104.17112mm"
   viewBox="0 0 201.32957 104.17112"
   version="1.1"
   id="svg1"
   xml:space="preserve"
   xmlns="http://www.w3.org/2000/svg"
   xmlns:svg="http://www.w3.org/2000/svg"><defs
     id="defs1" /><g
     id="layer1"
     transform="translate(-194.6442,89.239835)"><g
       id="g10"
       transform="translate(-0.39939915,-114.62756)"><path
         style="fill:#e5ae9e"
         d="m 237.23986,112.09421 c 0,-2.40109 0.0401,-3.38336 0.0891,-2.18281 0.049,1.20054 0.049,3.16508 0,4.36562 -0.049,1.20055 -0.0891,0.21828 -0.0891,-2.18281 z m 11.34632,-26.501116 c -0.467,-0.340272 -2.90778,-2.529369 -5.42396,-4.864661 -7.95961,-7.387408 -20.50427,-18.41722 -23.62486,-20.772002 -0.75032,-0.566192 -3.18114,-1.768251 -5.61618,-2.777244 -4.90777,-2.033611 -4.64379,-1.725221 -4.61237,-5.388223 0.0492,-5.7346 2.86376,-11.859664 8.16103,-17.760013 2.9304,-3.264022 2.46994,-3.119963 6.38922,-1.998902 7.84198,2.243095 10.91056,2.395474 16.92721,0.840566 7.53015,-1.946051 13.306,-4.266453 15.86613,-6.374093 1.70695,-1.405249 1.66606,-1.39904 2.76231,-0.41954 0.78467,0.701102 0.85966,0.903378 0.85966,2.318805 0,2.907497 -1.17201,4.258678 -7.1464,8.238845 -5.30011,3.530966 -6.82564,5.216159 -6.36899,7.035584 0.1634,0.651047 3.81134,4.888012 5.56857,6.467716 0.54101,0.486345 0.90244,0.962596 0.8032,1.058333 -0.26948,0.25995 -6.07067,-5.879155 -6.59028,-6.974157 -1.01906,-2.147505 0.6376,-4.163453 6.7726,-8.241398 5.46059,-3.629664 6.80355,-5.270439 6.50218,-7.944133 -0.24413,-2.165914 -1.41219,-2.759151 -2.7237,-1.383316 -1.89656,1.989579 -8.2768,4.605535 -16.51981,6.773279 -2.435,0.640352 -3.26832,0.731076 -6.74688,0.734529 -4.25027,0.0042 -3.47319,0.14709 -11.70582,-2.152184 l -1.65166,-0.461287 -1.08647,1.047826 c -6.34943,6.123598 -10.63887,15.562783 -9.60929,21.145847 l 0.24206,1.312603 3.8358,1.616065 c 2.10969,0.888836 4.19299,1.804482 4.62955,2.034769 1.82509,0.962738 20.10167,16.923217 27.38437,23.914093 3.39126,3.255362 4.57762,3.728735 6.18203,2.466705 1.10208,-0.866897 0.87523,-1.373973 -2.15338,-4.813404 -4.98811,-5.664727 -6.50056,-7.602809 -5.93311,-7.602809 0.12695,0 2.60169,1.981009 5.49941,4.402242 9.43979,7.887537 10.74196,8.777356 12.36877,8.451994 1.56554,-0.313108 2.04741,-1.694682 0.93925,-2.692917 -1.57935,-1.422681 -9.23005,-11.323806 -9.23005,-11.945029 0,-0.547274 0.37457,-0.259429 4.84229,3.721116 8.90346,7.932617 10.64418,8.990611 12.45224,7.56839 0.74853,-0.588795 0.89974,-1.530125 0.44002,-2.739274 -0.23168,-0.609367 -0.21043,-0.647109 0.21478,-0.38156 0.56088,0.350274 0.73699,2.071858 0.2962,2.895482 -0.16305,0.304665 -0.70795,0.725868 -1.21088,0.936006 -2.10164,0.878123 -3.69096,-0.151198 -13.05185,-8.453035 -1.08368,-0.961077 -2.02036,-1.69738 -2.08151,-1.636231 -0.15492,0.154921 4.00425,5.628087 6.41704,8.444363 2.14507,2.503779 2.37521,3.166723 1.40511,4.047609 -1.97595,1.794223 -3.3801,1.04768 -12.76615,-6.78737 -2.03729,-1.700638 -3.88276,-3.19558 -4.10104,-3.322092 -0.53595,-0.310628 -0.22432,0.09292 2.6387,3.417 4.90054,5.689705 4.65854,5.238719 3.50428,6.530561 -1.0235,1.145494 -2.73802,1.347166 -3.94937,0.464546 z m 77.18139,0.119661 c -1.78854,-0.657635 -1.71561,-1.791822 0.25709,-3.998228 3.11048,-3.478976 8.02893,-10.104802 7.49693,-10.099401 -0.11737,0.0012 -1.82074,1.441587 -3.78527,3.200879 -8.01813,7.180452 -10.10431,8.547809 -12.0578,7.9031 -1.98973,-0.656671 -1.97027,-2.427267 0.0542,-4.932966 0.49009,-0.606574 0.89107,-1.148308 0.89107,-1.203854 0,-0.05555 1.30373,-1.440446 2.89719,-3.077555 1.59345,-1.637109 2.99243,-3.08148 3.10885,-3.209713 0.11642,-0.128233 0.84793,-0.803881 1.62559,-1.50144 1.46728,-1.316149 3.38279,-3.556052 2.68712,-3.142188 -0.69106,0.411125 -4.32775,3.355639 -5.29167,4.284502 -1.45023,1.397493 -5.4761,3.850133 -6.68163,4.070578 -0.96983,0.177348 -1.1464,0.126488 -1.61089,-0.464014 -0.28692,-0.364756 -0.66895,-0.799283 -0.84897,-0.965615 -0.7406,-0.684315 0.87175,-3.572397 2.75669,-4.93784 3.58789,-2.599052 23.18156,-21.710185 23.9464,-23.356672 1.01335,-2.181448 -0.43076,-3.996424 -6.28099,-7.893988 -2.20251,-1.467365 -4.3966,-3.040546 -4.87575,-3.495958 -2.17958,-2.071603 -2.79999,-5.38545 -1.25676,-6.712881 0.91558,-0.787547 0.92767,-0.785202 2.42986,0.471136 2.47343,2.068622 8.43281,4.493288 15.54742,6.325711 6.08975,1.568463 8.86068,1.559506 14.97462,-0.04841 1.67349,-0.440112 3.29354,-0.856336 3.60011,-0.924941 0.42974,-0.09617 0.93041,0.29188 2.18603,1.694296 5.805,6.483708 8.53098,12.387785 8.46615,18.336495 -0.0472,4.329262 0.30892,3.863527 -4.72729,6.18255 -2.74272,1.262939 -3.77963,2.07566 -13.36146,10.472538 -6.56415,5.75239 -13.30649,11.849027 -16.28527,14.72566 -2.83647,2.739211 -4.37617,3.161051 -5.99315,1.641978 -0.97923,-0.919936 -0.75527,-1.413599 2.11762,-4.667693 3.05035,-3.455115 5.47643,-6.356765 5.47643,-6.549953 0,-0.305018 -1.20556,0.621093 -5.55625,4.268317 -8.5794,7.192188 -10.2055,8.230921 -11.90625,7.605566 z M 263.25976,70.67534 c -8.17249,-8.423832 -8.2289,-8.745849 -0.42322,-2.41569 6.45612,5.235712 8.48535,6.252963 9.87299,4.949336 0.36526,-0.343142 0.76626,-0.509765 0.95142,-0.395332 0.3959,0.244681 -1.48761,1.443005 -2.26526,1.441198 -1.05213,-0.0024 -3.24314,-1.29719 -6.7462,-3.986582 -1.96416,-1.507939 -3.29629,-2.392218 -2.96029,-1.965063 1.09309,1.389649 7.98425,8.336836 8.2696,8.336836 0.15262,0 0.20391,0.119062 0.11398,0.264583 -0.29234,0.473015 -0.45489,0.324395 -6.81302,-6.229286 z m 9.60615,-0.357251 c -0.1475,-0.275617 -2.50318,-2.565347 -5.23483,-5.088289 -6.70927,-6.196658 -10.9301,-10.319391 -10.79264,-10.541807 0.0625,-0.101122 1.34519,1.016486 2.85042,2.483574 1.50524,1.467089 4.97989,4.731708 7.72145,7.25471 5.76085,5.301596 6.78154,6.392932 5.97907,6.392932 -0.1404,0 -0.37596,-0.225504 -0.52347,-0.50112 z M 386.2321,51.492916 c 0.39556,-0.640033 9.72213,-6.63663 9.95689,-6.401869 0.86982,0.869825 -1.35075,2.624705 -6.45537,5.10155 -3.30617,1.604215 -3.80348,1.788893 -3.50152,1.300319 z"
         id="path14" /><path
         style="fill:#60c8b0"
         d="m 379.78032,129.02196 c -0.68193,-0.30944 -1.10152,-0.65833 -1.02715,-0.85409 0.86844,-2.28617 1.5527,-5.23537 1.42637,-6.14775 -0.0809,-0.5843 -0.98622,-3.89463 -2.01182,-7.35628 -1.02561,-3.46165 -1.86474,-6.51055 -1.86474,-6.77533 0,-0.54061 3.05544,-1.04678 3.51923,-0.583 0.13258,0.13259 0.63711,2.27626 1.12118,4.76373 0.9742,5.00615 1.12099,5.58122 1.4246,5.58122 0.11468,0 0.65375,-2.23242 1.19794,-4.96094 0.54418,-2.72851 1.1242,-5.12477 1.28893,-5.325 0.2929,-0.35604 3.72107,-0.28347 4.09115,0.0866 0.0797,0.0797 -0.99799,3.56805 -2.3949,7.75183 -1.39692,4.18379 -2.98079,9.12493 -3.51971,10.98032 -1.10144,3.79203 -1.11809,3.80656 -3.25108,2.83869 z m -136.17724,-2.17758 c -0.0699,-0.18209 -0.0959,-5.15295 -0.0578,-11.04635 l 0.0692,-10.71528 1.14404,-0.0823 c 1.2479,-0.0898 1.89867,0.26693 1.89867,1.04075 0,0.65065 0.16536,0.62731 1.0945,-0.15452 2.36631,-1.99112 5.09562,-1.21019 6.62452,1.89546 0.87541,1.7782 0.87992,1.80721 0.87502,5.62943 -0.003,2.25968 -0.13887,4.28869 -0.33016,4.92654 -1.08221,3.60854 -4.37989,5.21416 -6.73015,3.27688 -1.2227,-1.00785 -1.30662,-0.85438 -1.26785,2.31853 0.0173,1.41927 0.0241,2.72932 0.0151,2.91122 -0.0227,0.45828 -3.15919,0.45796 -3.33506,-3.5e-4 z m 3.05407,-3.09289 c 0,-3.64974 0.13807,-3.87011 1.59824,-2.55093 1.25348,1.13244 2.42958,1.24588 3.96576,0.38251 3.76678,-2.11705 3.95669,-13.28689 0.26817,-15.77271 -1.49248,-1.00584 -3.61274,-0.70158 -4.88161,0.70051 -0.70414,0.77807 -1.20102,0.69299 -1.38712,-0.23749 -0.14736,-0.73681 -0.2418,-0.79375 -1.3163,-0.79375 h -1.15755 v 10.53923 c 0,5.79658 0.0794,10.61861 0.17638,10.71563 0.097,0.097 0.75186,0.17639 1.45521,0.17639 h 1.27882 z m 1.30724,-5.49336 c -1.21756,-1.02451 -1.57182,-2.09355 -1.57182,-4.7432 0,-4.62408 2.95263,-6.91433 5.13367,-3.982 0.75895,1.02038 0.96986,6.25119 0.30827,7.64539 -0.83859,1.7672 -2.50173,2.23123 -3.87012,1.07981 z m 3.53595,-1.15017 c 0.57875,-1.1061 0.52085,-5.96438 -0.086,-7.21641 -0.49451,-1.02023 -1.61359,-1.57706 -2.49556,-1.24174 -2.85744,1.0864 -3.11738,8.27212 -0.34777,9.61348 1.12482,0.54477 2.27769,0.0901 2.92933,-1.15533 z m -24.43855,7.33516 c -3.36089,-0.93431 -5.006,-4.32851 -4.67522,-9.6459 0.32856,-5.2816 2.61526,-7.99468 6.73828,-7.99468 2.91848,0 4.65786,1.39592 5.38254,4.31968 0.3793,1.53033 0.17669,1.81585 -1.5926,2.24427 -1.44013,0.34871 -1.45348,0.34071 -1.86095,-1.11461 -0.91123,-3.2546 -3.3836,-2.93784 -4.40159,0.56391 -0.4843,1.66594 -0.55425,5.03192 -0.13656,6.57169 0.78802,2.90498 3.46691,2.81978 4.2627,-0.13556 0.31973,-1.18737 0.33975,-1.19518 1.99527,-0.77831 1.67643,0.42213 1.88216,0.77335 1.31811,2.2503 -1.1892,3.11386 -3.9512,4.5751 -7.02998,3.71921 z m 4.27501,-0.75335 c 1.27865,-0.71865 2.42954,-2.41545 2.46287,-3.63112 0.0236,-0.86156 -0.046,-0.93992 -1.11406,-1.25419 l -1.13925,-0.33521 -0.48779,1.13798 c -2.02146,4.71588 -5.72457,1.62139 -5.18521,-4.33299 0.50334,-5.55663 4.1406,-7.70092 5.46244,-3.2203 l 0.33937,1.15036 1.07485,-0.17043 c 1.62835,-0.2582 1.81768,-0.56957 1.33489,-2.19532 -1.57937,-5.31831 -8.61532,-5.10201 -10.72239,0.32962 -1.26038,3.24902 -0.7585,8.8739 0.99997,11.20744 1.39129,1.84628 4.86344,2.50053 6.97431,1.31416 z m 6.36251,0.82732 -0.62347,-0.25583 0.19194,-8.39863 c 0.10556,-4.61924 0.24432,-8.48793 0.30835,-8.59707 0.064,-0.10914 0.75721,-0.19843 1.5404,-0.19843 0.78319,0 1.47832,0.0893 1.54475,0.19843 0.0664,0.10914 0.16275,4.06797 0.21405,8.7974 l 0.0933,8.59896 -1.32292,0.0555 c -0.7276,0.0305 -1.60347,-0.0596 -1.94638,-0.20032 z m 2.77511,-8.52028 -0.12356,-8.53281 -1.11613,-0.0831 c -0.61388,-0.0457 -1.20824,0.0138 -1.32081,0.13229 -0.11257,0.11847 -0.24522,3.90634 -0.29478,8.41749 l -0.0901,8.20208 1.05833,0.16089 c 2.24026,0.34058 2.02578,1.2836 1.88706,-8.29683 z m 118.49836,8.5664 c -1.00668,-0.21356 -0.97144,0.24235 -0.72856,-9.42629 l 0.19939,-7.9375 h 1.5875 1.5875 l 0.13726,8.46666 c 0.0755,4.65667 0.0925,8.6155 0.0378,8.7974 -0.10452,0.34768 -1.43108,0.39458 -2.82093,0.0997 z m -147.9152,-0.67033 c -3.34439,-1.45672 -4.67821,-9.12596 -2.46557,-14.17662 0.93697,-2.13876 2.5857,-3.33948 4.9739,-3.62232 3.57968,-0.42396 5.82752,2.30741 6.27052,7.61938 0.23565,2.82565 0.18156,2.87495 -3.17574,2.89405 -4.90906,0.0279 -5.53467,0.40315 -4.56035,2.73502 0.81796,1.95765 2.36008,1.8056 3.73221,-0.368 0.36246,-0.57416 0.80853,-0.99374 0.99128,-0.93241 0.18276,0.0613 0.8383,0.24105 1.45676,0.39936 1.31571,0.3368 1.46301,0.95332 0.61954,2.5931 -1.39895,2.71972 -5.08044,4.06154 -7.84255,2.85844 z m 4.4054,-0.19747 c 1.46002,-0.49521 2.32779,-1.24715 3.02336,-2.61979 0.87897,-1.73456 0.83701,-2.02659 -0.33804,-2.35291 -1.3902,-0.38608 -1.91823,-0.34621 -1.91823,0.14483 0,0.62298 -1.70726,2.2225 -2.37219,2.2225 -1.38248,0 -2.39031,-1.38429 -2.39031,-3.28318 0,-1.2653 0.18318,-1.32931 4.23333,-1.47932 l 3.57188,-0.13229 v -2.64583 c 0,-5.14275 -2.42654,-7.82597 -6.34221,-7.01308 -3.42064,0.71012 -5.02004,3.62188 -5.01489,9.12974 0.006,6.34019 3.03294,9.56052 7.5473,8.02933 z m -4.19385,-9.64495 c -0.74933,-0.33592 -0.0991,-3.02233 0.99678,-4.11821 1.37458,-1.37459 3.09842,-0.7279 3.7059,1.39024 0.30831,1.07504 0.33649,2.27964 0.0573,2.45216 -0.32596,0.20146 -4.39938,0.43748 -4.76003,0.27581 z m 4.53494,-1.48135 c -0.11304,-3.8048 -3.4831,-4.14201 -4.3167,-0.43194 -0.34333,1.52805 -0.2733,1.57576 2.18502,1.48874 l 2.1608,-0.0765 z m 45.52434,11.32377 c -3.34439,-1.45672 -4.6782,-9.12596 -2.46557,-14.17662 0.93697,-2.13876 2.58571,-3.33948 4.9739,-3.62232 3.57968,-0.42396 5.82752,2.30741 6.27052,7.61938 0.23565,2.82565 0.18156,2.87495 -3.17573,2.89405 -4.90906,0.0279 -5.53468,0.40315 -4.56036,2.73502 0.81796,1.95765 2.36009,1.8056 3.73222,-0.368 0.36245,-0.57416 0.80852,-0.99374 0.99128,-0.93241 0.18275,0.0613 0.83829,0.24105 1.45675,0.39936 1.31571,0.3368 1.46301,0.95332 0.61955,2.5931 -1.39896,2.71972 -5.08045,4.06154 -7.84256,2.85844 z m 4.40541,-0.19747 c 1.46001,-0.49521 2.32778,-1.24715 3.02335,-2.61979 0.87897,-1.73456 0.83701,-2.02659 -0.33804,-2.35291 -1.39019,-0.38608 -1.91823,-0.34621 -1.91823,0.14483 0,0.62298 -1.70725,2.2225 -2.37218,2.2225 -1.38248,0 -2.39032,-1.38429 -2.39032,-3.28318 0,-1.2653 0.18318,-1.32931 4.23334,-1.47932 l 3.57187,-0.13229 v -2.64583 c 0,-5.14275 -2.42654,-7.82597 -6.34221,-7.01308 -3.42064,0.71012 -5.02004,3.62188 -5.01489,9.12974 0.006,6.34019 3.03294,9.56052 7.54731,8.02933 z m -4.19385,-9.64495 c -0.74934,-0.33592 -0.0991,-3.02233 0.99677,-4.11821 1.37459,-1.37459 3.09842,-0.7279 3.7059,1.39024 0.30832,1.07504 0.33649,2.27964 0.0573,2.45216 -0.32596,0.20146 -4.39937,0.43748 -4.76002,0.27581 z m 4.53493,-1.48135 c -0.11304,-3.8048 -3.48309,-4.14201 -4.31669,-0.43194 -0.34333,1.52805 -0.27331,1.57576 2.18501,1.48874 l 2.16081,-0.0765 z m 14.91194,11.51239 -0.7276,-0.11619 v -6.72426 -6.72426 l -0.72761,-0.15943 c -1.30662,-0.28631 -1.38906,-0.35418 -1.38906,-1.14362 0,-1.25823 0.26067,-1.61057 1.31642,-1.77939 l 0.99408,-0.15896 0.17547,-1.89007 c 0.4486,-4.83181 1.98327,-6.453944 5.87173,-6.206346 2.61083,0.166245 3.67245,1.198146 3.98986,3.878166 0.17163,1.44916 0.13478,1.49426 -1.43292,1.75367 -0.83637,0.13839 -1.14865,0.0954 -1.22066,-0.16792 -0.4301,-1.57292 -0.66072,-1.97973 -1.29456,-2.28352 -1.44743,-0.69373 -2.314,0.58506 -2.314,3.41474 v 1.53844 l 2.57968,0.0757 2.57969,0.0757 v 1.45521 1.45521 l -2.37926,0.0774 c -1.30859,0.0426 -2.49921,0.1971 -2.64583,0.34342 -0.15709,0.15677 -0.32091,2.95023 -0.39887,6.80178 l -0.13229,6.53575 -1.05833,0.0325 c -0.58209,0.0178 -1.38576,-0.0198 -1.78594,-0.0837 z m 50.20469,-0.3898 c -2.68246,-1.48362 -3.38746,-4.19833 -3.25231,-12.52353 l 0.0773,-4.7625 1.37288,-0.23296 c 2.30102,-0.39044 2.19899,-0.64339 2.19899,5.45192 0,5.66581 0.15815,6.78742 1.09814,7.78799 0.81164,0.86395 1.70276,0.78152 2.73751,-0.25322 1.25313,-1.25314 1.45288,-2.34078 1.45454,-7.92005 l 10e-4,-4.95589 0.61653,-0.15474 c 0.3391,-0.0851 1.14277,-0.11714 1.78594,-0.0712 l 1.1694,0.0836 0.074,8.33438 c 0.0906,10.20086 0.20557,9.57331 -1.73593,9.47181 -1.46718,-0.0767 -1.51542,-0.10317 -1.59059,-0.87285 -0.1513,-1.54921 -0.27408,-1.6055 -1.32049,-0.60541 -1.6077,1.53654 -3.31482,1.98184 -4.6874,1.22269 z m 11.95034,-0.13221 c -0.097,-0.097 -0.17638,-3.94379 -0.17638,-8.54839 0,-9.60352 -0.0555,-9.34695 1.99313,-9.21758 1.24499,0.0786 1.31824,0.12476 1.39168,0.87673 0.1513,1.54921 0.27408,1.6055 1.32049,0.60541 2.12496,-2.03091 4.06828,-2.07739 6.07148,-0.14523 1.4499,1.39848 1.91741,4.23004 1.92104,11.6352 0.003,5.12106 0.0377,5.05413 -2.58441,4.9171 l -1.51446,-0.0792 -0.13229,-6.50844 c -0.14517,-7.14227 -0.20051,-7.38218 -1.70269,-7.38218 -0.57997,0 -1.05651,0.2277 -1.52277,0.7276 -1.27382,1.36575 -1.31911,1.63158 -1.24566,7.31201 0.038,2.94216 -0.019,5.49202 -0.12672,5.66635 -0.20737,0.33553 -3.37682,0.45619 -3.69244,0.14057 z m -46.61076,-0.46321 c -2.66073,-1.18763 -4.034,-5.58437 -3.33307,-10.67134 0.56575,-4.10592 2.04671,-5.90318 5.18768,-6.29562 5.19562,-0.64915 7.38386,2.85921 6.73819,10.8032 -0.30765,3.78517 -0.83599,4.92895 -2.70763,5.86163 -1.55756,0.77616 -4.48633,0.92652 -5.88517,0.30213 z m 3.85111,-3.07241 c 1.71368,-0.91714 2.09677,-7.69131 0.55317,-9.78174 -0.71116,-0.9631 -2.35064,-1.05093 -3.17799,-0.17026 -1.50269,1.59955 -1.48497,8.01981 0.0266,9.62911 0.59993,0.63873 1.74272,0.78074 2.59823,0.32289 z m -105.14243,2.74187 c -0.33925,-0.33926 -0.20366,-17.15301 0.14111,-17.49778 0.17463,-0.17463 0.94853,-0.3175 1.71979,-0.3175 h 1.4023 l 0.004,0.8599 c 0.007,1.47443 0.32346,1.6117 1.30843,0.56743 1.96854,-2.08703 4.89623,-1.78923 6.55105,0.66635 0.9625,1.42826 0.81449,1.98357 -0.70269,2.63624 -1.61832,0.69618 -1.54881,0.69921 -2.28922,-0.0997 -0.8574,-0.92515 -2.16659,-0.89709 -3.0855,0.0661 -1.19965,1.25752 -1.30922,1.92997 -1.21786,7.47448 0.0468,2.83766 -0.009,5.30821 -0.12495,5.49011 -0.22101,0.34813 -3.38113,0.47972 -3.70651,0.15434 z m 2.68687,-0.25074 0.81274,-0.16255 0.0802,-5.74578 0.0802,-5.74578 0.75361,-0.98727 c 1.26913,-1.66265 2.77439,-1.86458 4.00456,-0.53721 l 0.61202,0.66038 1.21751,-0.59151 c 1.35435,-0.658 1.38309,-0.72132 0.82091,-1.80845 -1.37105,-2.65132 -4.37724,-3.06108 -6.38819,-0.87074 -1.27806,1.39207 -1.68188,1.30791 -1.68188,-0.35053 v -1.18951 l -1.25677,0.0806 -1.25677,0.0806 -0.23248,8.25328 c -0.12787,4.53931 -0.16137,8.4386 -0.0744,8.66511 0.16702,0.43525 1.11024,0.52897 2.50873,0.24928 z m 110.17474,0.21702 c -0.26634,-0.17795 -0.29862,-2.01752 -0.15578,-8.87639 0.20273,-9.73415 0.0345,-9.0693 2.24107,-8.85852 0.83859,0.0801 0.90192,0.15401 0.98033,1.14397 0.12053,1.52167 0.37295,1.59971 1.32843,0.41074 1.86503,-2.32079 5.32965,-1.77921 6.79933,1.06285 0.58085,1.12324 0.50524,1.27428 -0.98309,1.96383 l -1.37047,0.63495 -0.8877,-0.77941 c -1.36269,-1.19646 -2.52872,-0.93033 -3.70275,0.84511 l -0.73841,1.11666 0.0656,5.64087 0.0656,5.64086 h -0.89244 c -0.49084,0 -1.23474,0.0628 -1.65311,0.13947 -0.41837,0.0767 -0.91186,0.0385 -1.09664,-0.085 z m 61.19013,-0.42797 c -2.11871,-0.94167 -2.49822,-2.2569 -2.50708,-8.68849 l -0.006,-4.69635 h -0.87312 c -1.18407,0 -1.50813,-0.40825 -1.50813,-1.89996 0,-1.34702 0.0579,-1.39692 1.85209,-1.59784 l 0.66146,-0.0741 0.0741,-3.38585 0.0741,-3.385856 1.64565,0.07856 1.64565,0.07856 0.13229,3.307286 0.13229,3.30729 1.3644,0.0791 1.36441,0.0791 0.0908,1.32907 c 0.1244,1.82065 -0.0799,2.08457 -1.61382,2.08457 -1.61812,0 -1.60266,-0.0432 -1.60266,4.48007 0,4.87235 0.41806,5.83868 2.52599,5.83868 0.61553,0 0.64901,0.0804 0.64901,1.55919 0,1.17771 -0.1024,1.59849 -0.41852,1.71979 -0.72408,0.27786 -2.85561,0.15463 -3.68252,-0.21289 z M 237.66132,102.56921 c -1.14298,-1.14298 -0.27092,-2.910417 1.436,-2.910417 0.908,0 2.00358,0.940407 2.00358,1.719787 0,1.44231 -2.36815,2.26206 -3.43958,1.19063 z m 2.49464,-0.15119 c 0.53849,-0.53848 0.5316,-1.54727 -0.0143,-2.09316 -0.65191,-0.651912 -1.98269,-0.420078 -2.45636,0.42792 -0.81037,1.4508 1.27771,2.85818 2.47065,1.66524 z m 118.41994,0.15119 c -1.13439,-1.13439 -0.27139,-2.910417 1.4142,-2.910417 1.04678,0 1.82695,0.734407 1.82695,1.719787 0,1.56107 -2.09947,2.3323 -3.24115,1.19063 z M 285.81549,89.848284 c -5.18555,-0.492054 -11.03743,-1.725797 -11.47468,-2.419188 -0.65787,-1.04325 0.0737,-1.13298 4.92453,-0.60398 9.70814,1.058714 16.13768,0.626223 25.55953,-1.719294 8.03934,-2.001347 9.68766,-2.168715 9.51346,-0.965986 -0.19928,1.375878 -5.04806,3.714597 -9.99006,4.818517 -5.00758,1.11857 -12.38824,1.472984 -18.53278,0.889931 z m 17.4625,-1.114003 c 3.86368,-0.837338 7.21872,-2.064119 9.26888,-3.389204 3.06876,-1.983438 1.3153,-1.999294 -6.49076,-0.0587 -8.69336,2.16118 -9.1719,2.231413 -16.13958,2.368677 -5.17128,0.101874 -7.13582,0.03166 -10.58334,-0.378237 -5.90253,-0.701796 -6.36265,-0.1179 -0.79375,1.007274 7.58995,1.533515 18.79862,1.737488 24.73855,0.450186 z m -20.37292,-7.22995 c -6.99641,-0.844158 -10.9476,-1.88526 -12.10469,-3.189474 -0.47294,-0.533076 -0.85989,-1.086101 -0.85989,-1.228946 0,-0.362113 3.26619,-0.06945 8.06979,0.723083 13.84094,2.283582 26.54852,1.273412 36.43549,-2.896384 1.19768,-0.505121 2.43384,-0.918401 2.74701,-0.918401 0.31317,0 1.5074,-0.613881 2.65386,-1.364181 2.24613,-1.469983 4.28556,-2.476052 4.52793,-2.233678 0.0828,0.08279 -1.02843,1.359298 -2.46938,2.836689 -2.23108,2.287498 -2.93872,2.837298 -4.76796,3.70448 -3.88143,1.840048 -8.72364,3.184076 -14.78529,4.103876 -2.545,0.386181 -17.193,0.73488 -19.44687,0.462936 z m 2.24896,-6.359025 c -0.43657,-0.05089 -1.9044,-0.221428 -3.26185,-0.378966 -2.79346,-0.324192 -7.63768,-1.434126 -8.16341,-1.870444 -0.40194,-0.33358 -0.47239,-1.969012 -0.0949,-2.20233 0.1396,-0.08628 2.49108,0.203831 5.22552,0.644692 13.3893,2.158702 25.799,1.402888 34.97402,-2.130097 2.31311,-0.890701 2.3783,-0.873572 1.51526,0.39819 -0.3605,0.531218 -0.73151,1.312151 -0.82447,1.735407 -0.18714,0.852061 -0.76753,1.106968 -4.76395,2.09232 -6.0125,1.482435 -18.88797,2.377852 -24.60625,1.711228 z m 5.17927,-10.157378 c -5.89935,-0.569142 -12.33907,-2.014054 -18.01156,-4.041343 -5.49706,-1.964589 -6.13975,-2.359568 -5.26171,-3.233668 0.31212,-0.310711 0.96839,-0.230322 4.39443,0.538285 21.62753,4.85198 30.90063,4.877652 43.07108,0.119242 9.12249,-3.566717 14.41703,-7.958641 14.41703,-11.959213 0,-1.616919 -0.32892,-2.414717 -1.73605,-4.210823 -1.63058,-2.081333 -1.51583,-3.131199 0.34226,-3.131199 2.74059,0 4.89353,2.464458 5.26599,6.027961 0.74145,7.093838 -8.55513,14.956987 -21.68395,18.340504 -5.78431,1.490716 -14.60187,2.14798 -20.79752,1.550254 z m 14.48061,-0.662903 c 12.66926,-1.747794 23.37163,-7.587893 26.84873,-14.65089 2.07041,-4.2056 0.27068,-9.54035 -3.45429,-10.239157 -1.92299,-0.360756 -2.35252,0.643937 -0.97843,2.28861 4.90664,5.872867 0.59695,11.677159 -12.5632,16.920147 -11.82856,4.712479 -20.71983,4.833887 -40.46124,0.552485 -6.7535,-1.464658 -7.17541,-1.521387 -7.17541,-0.964783 0,0.618396 6.97123,3.169659 12.31578,4.507208 8.46148,2.117605 17.52502,2.682165 25.46806,1.58638 z m -3.87258,-8.136456 c -0.60137,-0.724606 0.28696,-0.971339 8.68666,-2.412714 6.11796,-1.049834 8.62994,-1.964468 10.74192,-3.911223 3.35939,-3.096575 -1.01632,-5.920087 -11.16239,-7.202752 -4.0771,-0.515427 -5.97969,-0.953034 -6.12965,-1.409859 -0.14718,-0.448348 0.71183,-0.423224 6.42352,0.187872 10.66207,1.140741 14.28057,2.65344 15.06552,6.298086 0.55397,2.572194 -3.33101,5.777706 -8.70989,7.186568 -4.74528,1.242908 -14.26376,2.049546 -14.91569,1.264022 z m -44.78784,-2.051652 c -0.34804,-0.305768 -0.46521,-0.46872 -0.26039,-0.362118 0.29033,0.151103 0.33249,0.05349 0.19129,-0.442862 -1.53507,-5.396095 1.62771,-11.552255 7.528,-14.652768 5.17651,-2.720176 14.94537,-4.806896 23.7906,-5.081891 5.55616,-0.172739 6.74894,-0.03714 13.27101,1.508674 5.58408,1.3235 8.07009,1.595627 8.33238,0.912091 0.32738,-0.853124 -2.08847,-2.538675 -5.14664,-3.590838 -6.66098,-2.291716 -20.56327,-2.220328 -30.61196,0.15719 -10.20926,2.415507 -15.81994,5.882828 -18.60118,11.495264 -0.94194,1.900802 -0.97516,2.065103 -0.97655,4.829798 -0.001,2.352739 -0.0603,2.782227 -0.33217,2.41346 -0.80137,-1.086968 -0.19303,-5.420393 1.12648,-8.024313 0.83408,-1.645981 3.75608,-4.770897 5.68369,-6.078394 3.89256,-2.640309 10.06525,-4.730664 18.14232,-6.143812 5.09655,-0.891682 18.17937,-0.880612 22.33524,0.0189 5.09758,1.103337 9.36431,3.506339 8.88837,5.00589 -0.36458,1.148666 -2.55495,1.027869 -8.61724,-0.475231 -8.55709,-2.121665 -15.21497,-2.191127 -24.87084,-0.259478 -8.80438,1.761309 -12.99824,3.497939 -16.19142,6.704683 -3.05606,3.069047 -4.31952,7.267569 -3.27169,10.871969 0.51608,1.775248 0.45507,1.95318 -0.4093,1.193786 z m 6.8062,-7.278005 c -0.50548,-1.317269 0.99862,-4.489539 2.94172,-6.204326 6.25504,-5.520071 23.3832,-7.221571 32.01876,-3.180722 1.82369,0.853358 2.24633,1.701093 1.0036,2.012999 -0.54777,0.137481 -6.25026,-0.220271 -13.39224,-0.840177 -2.36361,-0.205156 -7.49456,0.332288 -10.53456,1.103448 -4.08093,1.035213 -5.57038,1.87861 -8.6235,4.883044 -2.73383,2.690234 -3.13513,2.951877 -3.41378,2.225734 z"
         id="path13" /><path
         style="fill:#3d87b4"
         d="m 243.92312,126.73449 c -0.097,-0.097 -0.17638,-4.91905 -0.17638,-10.71563 v -10.53923 h 1.15755 c 1.0745,0 1.16894,0.0569 1.3163,0.79375 0.1861,0.93048 0.68298,1.01556 1.38712,0.23749 1.26887,-1.40209 3.38913,-1.70635 4.88161,-0.70051 3.68852,2.48582 3.49861,13.65566 -0.26817,15.77271 -1.53618,0.86337 -2.71228,0.74993 -3.96576,-0.38251 -1.46017,-1.31918 -1.59824,-1.09881 -1.59824,2.55093 v 3.15939 h -1.27882 c -0.70335,0 -1.35819,-0.0794 -1.45521,-0.17639 z m 6.72383,-8.21251 c 1.31232,-0.77521 1.62254,-1.84275 1.52256,-5.23949 -0.0751,-2.55077 -0.17205,-3.11602 -0.64327,-3.74956 -0.89985,-1.20981 -1.73025,-1.56628 -2.7066,-1.16187 -2.87969,1.19281 -3.44338,7.7093 -0.85525,9.88707 0.98608,0.82973 1.61919,0.892 2.68256,0.26385 z m -12.05959,5.77166 -1.05833,-0.16089 0.0901,-8.20208 c 0.0496,-4.51115 0.18221,-8.29902 0.29478,-8.41749 0.11257,-0.11848 0.70693,-0.17801 1.32081,-0.13229 l 1.11613,0.0831 0.12356,8.53281 c 0.13872,9.58043 0.3532,8.63741 -1.88706,8.29683 z m -12.46613,-0.53478 c -2.34347,-1.06421 -3.37183,-3.49088 -3.37344,-7.96048 -0.002,-5.86175 2.15125,-8.73125 6.5522,-8.73125 2.43707,0 4.04015,1.26353 4.78492,3.77142 0.48279,1.62575 0.29346,1.93712 -1.33489,2.19532 l -1.07485,0.17043 -0.33937,-1.15036 c -1.32184,-4.48062 -4.9591,-2.33633 -5.46244,3.2203 -0.53936,5.95438 3.16375,9.04887 5.18521,4.33299 l 0.48779,-1.13798 1.13925,0.33521 c 1.06808,0.31427 1.13768,0.39263 1.11406,1.25419 -0.0871,3.17659 -4.32954,5.22101 -7.67844,3.70021 z m -14.79907,-0.13056 c -2.17706,-0.94827 -3.4026,-3.81282 -3.40648,-7.96222 -0.005,-5.50786 1.59425,-8.41962 5.01489,-9.12974 3.91567,-0.81289 6.34221,1.87033 6.34221,7.01308 v 2.64583 l -3.57188,0.13229 c -4.05015,0.15001 -4.23333,0.21402 -4.23333,1.47932 0,1.89889 1.00783,3.28318 2.39031,3.28318 0.66493,0 2.37219,-1.59952 2.37219,-2.2225 0,-0.49104 0.52803,-0.53091 1.91823,-0.14483 1.17505,0.32632 1.21701,0.61835 0.33804,2.35291 -1.25906,2.48463 -4.59308,3.67258 -7.16418,2.55268 z m 4.707,-9.85365 c 0.27914,-0.17252 0.25096,-1.37712 -0.0573,-2.45216 -0.60748,-2.11814 -2.33132,-2.76483 -3.7059,-1.39024 -1.09589,1.09588 -1.74611,3.78229 -0.99678,4.11821 0.36065,0.16167 4.43407,-0.0743 4.76003,-0.27581 z m 45.56383,9.85365 c -2.17705,-0.94827 -3.4026,-3.81282 -3.40648,-7.96222 -0.005,-5.50786 1.59425,-8.41962 5.01489,-9.12974 3.91567,-0.81289 6.34221,1.87033 6.34221,7.01308 v 2.64583 l -3.57187,0.13229 c -4.05016,0.15001 -4.23334,0.21402 -4.23334,1.47932 0,1.89889 1.00784,3.28318 2.39032,3.28318 0.66493,0 2.37218,-1.59952 2.37218,-2.2225 0,-0.49104 0.52804,-0.53091 1.91823,-0.14483 1.17505,0.32632 1.21701,0.61835 0.33804,2.35291 -1.25906,2.48463 -4.59307,3.67258 -7.16418,2.55268 z m 4.707,-9.85365 c 0.27914,-0.17252 0.25097,-1.37712 -0.0573,-2.45216 -0.60748,-2.11814 -2.33131,-2.76483 -3.7059,-1.39024 -1.09588,1.09588 -1.74611,3.78229 -0.99677,4.11821 0.36065,0.16167 4.43406,-0.0743 4.76002,-0.27581 z m -70.88206,8.49107 c -0.0869,-0.22651 -0.0534,-4.1258 0.0744,-8.66511 l 0.23248,-8.25328 1.25677,-0.0806 1.25677,-0.0806 v 1.18951 c 0,1.65844 0.40382,1.7426 1.68188,0.35053 2.01095,-2.19034 5.01714,-1.78058 6.38819,0.87074 0.56218,1.08713 0.53344,1.15045 -0.82091,1.80845 l -1.21751,0.59151 -0.61202,-0.66038 c -1.23017,-1.32737 -2.73543,-1.12544 -4.00456,0.53721 l -0.75361,0.98727 -0.0802,5.74578 -0.0802,5.74578 -0.81274,0.16255 c -1.39849,0.27969 -2.34171,0.18597 -2.50873,-0.24928 z m 42.33137,-20.12387 c -0.40603,-0.6197 -0.41272,-0.76474 -0.064,-1.38907 0.75789,-1.356817 2.88643,-0.895331 2.88643,0.6258 0,1.47823 -1.99965,2.01899 -2.82244,0.76327 z m 46.47869,-12.916727 c -3.30381,-0.419784 -8.39934,-1.423107 -9.09039,-1.789917 -1.10478,-0.586423 0.18578,-0.635142 4.19559,-0.158385 3.44752,0.409901 5.41206,0.480111 10.58334,0.378237 6.96768,-0.137264 7.44622,-0.207497 16.13958,-2.368677 7.80606,-1.940598 9.55952,-1.924742 6.49076,0.0587 -2.05016,1.325085 -5.4052,2.551866 -9.26888,3.389204 -3.79094,0.821572 -14.31331,1.092691 -19.05,0.490842 z m 7.01145,-24.507311 c -5.27089,-0.434199 -11.67889,-1.714273 -16.66875,-3.32978 -4.07255,-1.318522 -7.54062,-2.770299 -7.54062,-3.156595 0,-0.556604 0.42191,-0.499875 7.17541,0.964783 19.74141,4.281402 28.63268,4.159994 40.46124,-0.552485 13.16015,-5.242988 17.46984,-11.04728 12.5632,-16.920147 -1.37409,-1.644673 -0.94456,-2.649366 0.97843,-2.28861 3.72497,0.698807 5.5247,6.033557 3.45429,10.239157 -4.8409,9.833263 -22.7529,16.499297 -40.4232,15.043677 z m -36.54254,-11.98298 -1.22996,-1.229954 0.12325,-2.771179 c 0.34876,-7.841703 6.7412,-13.093291 19.65759,-16.149304 10.04869,-2.377518 23.95098,-2.448906 30.61196,-0.15719 3.05817,1.052163 5.47402,2.737714 5.14664,3.590838 -0.26229,0.683536 -2.7483,0.411409 -8.33238,-0.912091 -6.52207,-1.545816 -7.71485,-1.681413 -13.27101,-1.508674 -8.84523,0.274995 -18.61409,2.361715 -23.7906,5.081891 -5.62647,2.956626 -8.8504,8.772319 -7.67917,13.852563 0.36754,1.594246 0.18484,1.62426 -1.23632,0.2031 z"
         id="path12" /><path
         style="fill:#c57938"
         d="m 248.90611,85.32355 c -0.29104,-0.162929 -1.66026,-1.380585 -3.04271,-2.705902 -7.35648,-7.052471 -25.56442,-22.950914 -27.38437,-23.91094 -0.43656,-0.230287 -2.51986,-1.145933 -4.62955,-2.034769 l -3.8358,-1.616065 -0.24206,-1.312603 c -1.02958,-5.583064 3.25986,-15.022249 9.60929,-21.145847 l 1.08647,-1.047826 1.65166,0.461287 c 8.23263,2.299274 7.45555,2.156402 11.70582,2.152184 3.47856,-0.0035 4.31188,-0.09418 6.74688,-0.734529 8.24301,-2.167744 14.62325,-4.7837 16.51981,-6.773279 1.31151,-1.375835 2.47957,-0.782598 2.7237,1.383316 0.30137,2.673694 -1.04159,4.314469 -6.50218,7.944133 -6.1586,4.093634 -7.79279,6.09151 -6.76106,8.26572 0.66742,1.406472 10.9647,11.660917 21.03387,20.946369 2.70679,2.49611 5.1178,4.83808 5.35781,5.204379 0.96901,1.4789 0.0967,3.330448 -1.56897,3.330448 -1.42501,0 -4.24772,-1.919451 -11.4701,-7.799702 -1.5179,-1.235832 -2.8114,-2.195394 -2.87444,-2.132358 -0.21469,0.214695 1.02151,1.559716 7.28865,7.930228 3.44528,3.502101 6.47677,6.779585 6.73665,7.283297 0.69822,1.353332 0.61656,2.504318 -0.22463,3.165998 -1.80806,1.422221 -3.54878,0.364227 -12.45224,-7.56839 -4.46772,-3.980545 -4.84229,-4.26839 -4.84229,-3.721116 0,0.621223 7.6507,10.522348 9.23005,11.945029 1.10816,0.998235 0.62629,2.379809 -0.93925,2.692917 -1.62681,0.325362 -2.92898,-0.564457 -12.36877,-8.451994 -2.89772,-2.421233 -5.37246,-4.402242 -5.49941,-4.402242 -0.56745,0 0.945,1.938082 5.93311,7.602809 1.56778,1.780452 2.85052,3.468451 2.85052,3.751109 0,1.232028 -2.46485,2.066185 -3.83646,1.298339 z"
         id="path11" /></g></g></svg>
