<?xml version="1.0" encoding="UTF-8" standalone="no"?>
<!-- Created with Inkscape (http://www.inkscape.org/) -->

<svg
   width="315.91888mm"
   height="62.449806mm"
   viewBox="0 0 315.91888 62.449806"
   version="1.1"
   id="svg1"
   xml:space="preserve"
   xmlns="http://www.w3.org/2000/svg"
   xmlns:svg="http://www.w3.org/2000/svg"><defs
     id="defs1" /><g
     id="layer1"
     transform="translate(5.6936962,-296.92751)"><g
       id="g14"><path
         style="fill:#a6d4d7"
         d="m 32.6034,359.32339 c -9.347008,-0.7881 -16.868887,-2.30921 -17.327387,-3.50404 -0.223156,-0.58154 0.802055,-1.40249 1.545661,-1.23772 4.083719,0.90491 12.141541,1.54579 17.236934,1.37096 5.042304,-0.17302 6.869156,-0.44114 13.890625,-2.03866 3.268698,-0.7437 5.586709,-1.12494 6.977568,-1.1476 6.829626,-0.11127 -1.456729,4.69872 -10.417151,6.04685 -2.556796,0.38468 -9.742831,0.69262 -11.90625,0.51021 z m 12.964583,-1.03455 c 4.609978,-0.82739 10.378661,-3.10672 11.213896,-4.43084 0.856483,-1.35781 -1.562605,-1.20188 -9.512498,0.61316 -9.944629,2.27046 -17.183978,2.49736 -27.955308,0.87618 -2.947792,-0.44367 -3.644007,-0.39076 -3.644007,0.27692 0,0.70933 6.611649,2.25404 12.567709,2.93626 4.302798,0.49285 13.909615,0.34225 17.330208,-0.27168 z m 101.533857,-2.79951 c -0.43181,-0.25151 -0.46302,-1.2207 -0.46302,-14.37935 0,-15.99203 -0.18967,-14.78002 2.29278,-14.65135 l 1.54368,0.08 0.0821,0.99219 c 0.0985,1.19038 0.11496,1.19327 1.33502,0.23469 1.89647,-1.49004 2.65342,-1.75158 5.06516,-1.75005 2.70266,0.002 4.24413,0.67293 6.05359,2.63596 1.97588,2.14357 2.54537,3.74275 2.54537,7.14763 0,3.49031 -0.80492,5.61287 -2.90107,7.6501 -3.03183,2.94659 -8.51119,3.03985 -11.09139,0.18877 -0.27393,-0.3027 -0.60121,-0.4866 -0.72728,-0.40869 -0.12607,0.0779 -0.22922,2.8592 -0.22922,6.18061 v 6.03895 l -0.59532,0.15953 c -0.90742,0.24318 -2.39285,0.18244 -2.91041,-0.11901 z m 3.17979,-6.65953 c 0.0482,-4.27375 0.16221,-6.28386 0.35627,-6.28386 0.15694,0 0.82901,0.47856 1.4935,1.06347 5.67798,4.99796 14.25333,-0.95862 13.14525,-9.13092 -0.9847,-7.26238 -8.74725,-10.80132 -13.42714,-6.12143 -1.24892,1.24892 -1.50653,1.21029 -1.50653,-0.22587 0,-1.32292 -0.39208,-1.58116 -2.1462,-1.4136 l -0.8965,0.0856 -0.0685,14.23463 -0.0685,14.23463 1.52366,-0.0794 1.52366,-0.0794 z m 3.89781,-6.60309 c -4.14204,-1.44786 -5.36805,-7.77568 -2.17723,-11.23731 3.79801,-4.12035 9.96367,-1.14715 9.97404,4.80967 0.008,4.69326 -3.79321,7.8271 -7.79681,6.42764 z m 4.15798,-0.463 c 0.10408,-0.006 0.61711,-0.3872 1.14007,-0.84636 3.33896,-2.93165 2.73765,-9.11646 -1.05377,-10.83866 -4.18997,-1.90324 -8.11488,1.34847 -7.75185,6.42226 0.27354,3.823 2.96687,6.11963 6.41799,5.47268 0.58208,-0.10911 1.14349,-0.20358 1.24756,-0.20992 z m 133.62379,13.83617 c -0.6271,-0.25304 -0.31944,-1.00279 2.97657,-7.25382 1.81901,-3.44983 3.29828,-6.43405 3.28728,-6.63158 -0.011,-0.19754 -1.4134,-2.85948 -3.11643,-5.91541 l -3.09641,-5.55625 h -1.84451 -1.84452 l -0.13229,7.40833 -0.13229,7.40833 -1.61168,0.0777 c -1.12391,0.0542 -1.70311,-0.0325 -1.91382,-0.28638 -0.20587,-0.24806 -0.32463,-2.63266 -0.3727,-7.48353 l -0.0706,-7.11946 -0.79375,-0.13738 c -0.7863,-0.13608 -0.79375,-0.15349 -0.79375,-1.85457 v -1.71719 l 0.85211,-0.0823 0.85211,-0.0823 0.0739,-3.35725 0.0739,-3.35726 h 1.85209 1.85208 l 0.13229,3.3073 0.13229,3.30729 3.16198,0.13229 3.16198,0.13229 2.80963,5.27578 c 1.5453,2.90168 2.92253,5.31341 3.06051,5.3594 0.13798,0.046 1.37981,-2.19592 2.75963,-4.98204 1.37983,-2.78612 2.66611,-5.22762 2.8584,-5.42555 0.46743,-0.48114 3.90531,-0.50078 4.08852,-0.0234 0.16713,0.43554 -14.15048,28.22465 -14.77869,28.684 -0.45698,0.33416 -2.79663,0.45033 -3.48394,0.173 z m 3.73087,-0.94925 c 1.96464,-3.16419 14.16923,-27.5682 13.87906,-27.75223 -0.43299,-0.27461 -2.61886,-0.28818 -3.04243,-0.0189 -0.17342,0.11026 -1.43653,2.48699 -2.8069,5.28162 -2.5968,5.29571 -3.04349,6.04825 -3.38322,5.69966 -0.11237,-0.11531 -1.46948,-2.58764 -3.0158,-5.49407 -1.54632,-2.90643 -2.87374,-5.34721 -2.94984,-5.42396 -0.0761,-0.0767 -1.52794,-0.19907 -3.22634,-0.27183 l -3.088,-0.13229 -0.13229,-3.30729 -0.13229,-3.30729 -1.52136,-0.0793 -1.52135,-0.0793 v 3.03427 c 0,3.47549 -0.0943,3.8713 -0.92195,3.8713 -0.87544,0 -1.23808,0.60147 -1.14474,1.89868 0.0775,1.07731 0.13246,1.14887 0.94221,1.22694 0.47294,0.0456 0.88306,0.10513 0.91137,0.13229 0.0283,0.0272 0.11762,3.38313 0.19844,7.45772 l 0.14696,7.40833 0.89651,0.0856 c 0.49308,0.0471 1.1758,0.0155 1.51717,-0.0701 l 0.62067,-0.15578 0.0703,-7.33819 0.0703,-7.3382 1.44719,-0.082 c 0.79595,-0.0451 1.6056,-0.21345 1.79921,-0.37414 0.51894,-0.43068 0.67765,-0.19433 4.27124,6.3609 l 3.23701,5.90477 -3.43596,6.52721 c -1.88977,3.58996 -3.37981,6.61805 -3.31119,6.72908 0.0686,0.11104 0.82937,0.20188 1.69056,0.20188 1.33787,0 1.61959,-0.0867 1.93541,-0.59531 z M 28.201086,350.45976 c -6.168837,-0.4452 -11.827078,-1.66798 -16.49018,-3.56361 -2.74971,-1.11781 -3.2241013,-1.51367 -2.5826377,-2.15514 0.5619747,-0.56197 3.6349347,-0.26891 9.9893927,0.95268 10.457124,2.01028 19.111196,2.26557 27.90553,0.82317 6.011735,-0.98602 9.321967,-2.10162 17.270619,-5.82051 2.222799,-1.03997 4.246861,-1.85171 4.497917,-1.80386 1.62053,0.30881 -0.807983,3.06933 -4.899248,5.56903 -7.733753,4.72519 -21.432167,7.02733 -35.691393,5.99824 z m 13.001272,-0.51262 c 11.646917,-0.77338 20.865926,-3.80975 25.977755,-8.55601 2.914167,-2.70577 2.557699,-2.67192 -4.082918,0.38769 -2.874348,1.32433 -6.416712,2.8067 -7.87192,3.29416 -9.897883,3.31554 -22.620784,3.68631 -36.472645,1.06287 -5.403902,-1.02345 -9.1679806,-1.44276 -9.1679806,-1.02128 0,0.1449 0.8036716,0.62844 1.7859376,1.07455 7.047731,3.20077 17.808723,4.55638 29.831771,3.75802 z m 64.530892,-4.58902 c -7.620273,-2.47212 -8.445472,-15.05797 -1.21992,-18.60618 2.08318,-1.02297 5.79274,-1.07738 7.92202,-0.11619 2.67109,1.20576 4.33322,3.71234 4.87437,7.35081 0.42833,2.87988 0.83665,2.71686 -7.01364,2.80021 l -6.65206,0.0706 0.0852,0.66146 c 0.60831,4.72509 6.90604,6.21223 9.59406,2.26553 0.77922,-1.14409 1.11408,-1.16325 2.7044,-0.15469 1.53741,0.97499 1.54017,1.20493 0.0346,2.87954 -2.41397,2.6849 -6.96506,3.94016 -10.32895,2.84888 z m 7.18871,-0.94898 c 1.64243,-0.80857 3.81894,-2.83868 3.81894,-3.56208 0,-0.21329 -0.50602,-0.69023 -1.12448,-1.05988 l -1.12448,-0.67209 -1.23915,1.28994 c -2.18764,2.2773 -5.07605,2.75759 -7.38695,1.22831 -1.30736,-0.86517 -2.43992,-2.80136 -2.46618,-4.2161 l -0.0202,-1.08901 6.85102,-0.0707 6.85101,-0.0707 -0.1562,-1.78139 c -0.44768,-5.10542 -3.41247,-8.05542 -8.12077,-8.08024 -4.89852,-0.0258 -7.93518,2.63215 -8.73642,7.64697 -1.30823,8.18798 5.76161,13.92847 12.85388,10.43695 z m -9.28113,-10.8642 c -0.55457,-0.89732 1.29263,-3.32715 3.10355,-4.08246 2.93266,-1.22318 6.82152,0.87338 6.82152,3.67761 v 0.6746 h -4.87918 c -3.02975,0 -4.94237,-0.10225 -5.04589,-0.26975 z m 9.45778,-0.78858 c -0.26958,-2.53247 -4.41562,-4.14828 -6.84425,-2.66737 -1.06241,0.64782 -2.21346,2.15434 -2.21346,2.89703 0,0.5729 0.0291,0.57612 4.56406,0.50419 l 4.56407,-0.0724 z m 12.44922,12.58074 c -7.0733,-2.21058 -9.27632,-11.26757 -4.01941,-16.52448 1.95002,-1.95002 4.10723,-2.79887 7.11873,-2.8012 4.3874,-0.003 5.29167,0.58462 5.29167,3.44093 0,2.19934 -0.25161,2.5504 -1.28193,1.78866 -3.8369,-2.83669 -8.48445,-1.50862 -9.73143,2.78083 -1.66037,5.71147 4.27041,10.09562 9.18402,6.78901 0.74364,-0.50044 1.45946,-0.84352 1.59071,-0.76241 0.42875,0.26498 0.2858,4.00003 -0.17055,4.45638 -1.09418,1.09418 -5.63032,1.56717 -7.98181,0.83228 z m 6.73734,-0.54603 1.12448,-0.4505 v -1.94472 -1.94472 l -1.34811,0.83803 c -4.48973,2.79098 -9.76439,-0.23164 -9.76439,-5.59543 0,-5.19236 5.84447,-8.21108 9.97037,-5.14979 1.16736,0.86615 1.17475,0.85739 1.08758,-1.29071 -0.0898,-2.2139 -0.30389,-2.41376 -3.0606,-2.85771 -7.54173,-1.21456 -13.30795,5.92474 -10.60979,13.13623 1.72381,4.60731 7.84781,7.16341 12.60046,5.25932 z m 41.18142,0.56705 c -7.62028,-2.47212 -8.44548,-15.05797 -1.21993,-18.60618 2.08318,-1.02297 5.79275,-1.07738 7.92202,-0.11619 2.67109,1.20576 4.33322,3.71234 4.87438,7.35081 0.42833,2.87988 0.83664,2.71686 -7.01365,2.80021 l -6.65205,0.0706 0.0851,0.66146 c 0.60831,4.72509 6.90604,6.21223 9.59407,2.26553 0.77921,-1.14409 1.11407,-1.16325 2.7044,-0.15469 1.5374,0.97499 1.54016,1.20493 0.0346,2.87954 -2.41396,2.6849 -6.96506,3.94016 -10.32894,2.84888 z m 7.18871,-0.94898 c 1.64243,-0.80857 3.81893,-2.83868 3.81893,-3.56208 0,-0.21329 -0.50601,-0.69023 -1.12448,-1.05988 l -1.12447,-0.67209 -1.23916,1.28994 c -2.18764,2.2773 -5.07604,2.75759 -7.38695,1.22831 -1.30736,-0.86517 -2.43992,-2.80136 -2.46618,-4.2161 l -0.0202,-1.08901 6.85101,-0.0707 6.85101,-0.0707 -0.1562,-1.78139 c -0.44768,-5.10542 -3.41247,-8.05542 -8.12076,-8.08024 -4.89853,-0.0258 -7.93519,2.63215 -8.73643,7.64697 -1.30823,8.18798 5.76161,13.92847 12.85389,10.43695 z m -9.28114,-10.8642 c -0.55457,-0.89732 1.29264,-3.32715 3.10355,-4.08246 2.93267,-1.22318 6.82152,0.87338 6.82152,3.67761 v 0.6746 h -4.87917 c -3.02976,0 -4.94237,-0.10225 -5.0459,-0.26975 z m 9.45779,-0.78858 c -0.26959,-2.53247 -4.41563,-4.14828 -6.84426,-2.66737 -1.06241,0.64782 -2.21346,2.15434 -2.21346,2.89703 0,0.5729 0.0291,0.57612 4.56407,0.50419 l 4.56406,-0.0724 z m 23.58728,12.72861 c -7.50618,-1.92938 -9.97726,-11.52598 -4.32844,-16.80979 3.78567,-3.54105 9.66983,-3.66671 13.42912,-0.28678 6.65143,5.9802 2.73779,16.93233 -6.15922,17.23627 -1.16416,0.0398 -2.48782,-0.0231 -2.94146,-0.1397 z m 6.17707,-0.86776 c 6.23951,-2.3345 7.85868,-11.36534 2.83118,-15.79072 -2.12524,-1.87072 -3.29217,-2.28338 -6.46366,-2.28576 -2.50042,-0.002 -2.92688,0.071 -4.26629,0.72874 -1.75624,0.86248 -3.7428,2.8873 -4.54808,4.63566 -0.89525,1.9437 -0.83359,5.99534 0.12227,8.03413 2.12048,4.52287 7.39163,6.5236 12.32458,4.67795 z m -6.49835,-3.02466 c -4.0852,-2.03575 -4.75472,-7.53497 -1.2888,-10.5858 6.07012,-5.34313 14.112,3.21622 8.68133,9.23993 -1.91077,2.11943 -4.78875,2.64339 -7.39253,1.34587 z m 4.32072,0.13213 c 4.20487,-1.0588 5.7972,-6.5568 2.89567,-9.99816 -2.23243,-2.64777 -6.5513,-2.53044 -8.92479,0.24245 -3.77785,4.41356 0.39969,11.17322 6.02912,9.75571 z m 29.62385,3.58999 c -1.61006,-0.59393 -2.91528,-1.81481 -3.74366,-3.50173 l -0.74442,-1.51596 v -6.87916 -6.87917 l 1.61168,-0.0777 c 1.08988,-0.0525 1.70505,0.0348 1.90009,0.26984 0.18462,0.22246 0.31874,2.60018 0.3727,6.60742 0.0787,5.84184 0.12088,6.30974 0.63226,7.0062 1.72755,2.3528 5.55841,2.12385 6.67201,-0.39876 0.33946,-0.76895 0.45901,-2.26846 0.57322,-7.18931 l 0.14429,-6.21771 h 1.85209 1.85208 v 6.61458 c 0,5.85425 -0.0575,6.76372 -0.50042,7.912 -0.61227,1.58737 -2.01253,3.18295 -3.45028,3.93157 -1.40369,0.73088 -5.55343,0.91481 -7.17164,0.31787 z m 6.80098,-0.58761 c 1.5451,-0.68583 3.00307,-2.36695 3.54152,-4.08358 0.58658,-1.87004 0.90061,-12.95193 0.38465,-13.57363 -0.34761,-0.41885 -2.26627,-0.54913 -2.82781,-0.19202 -0.22179,0.14105 -0.33706,2.00339 -0.39687,6.41209 -0.0936,6.89833 -0.21389,7.44059 -1.88308,8.48806 -1.25217,0.78578 -4.10743,0.61883 -5.1016,-0.29829 -1.37324,-1.26682 -1.52015,-2.01739 -1.6815,-8.59104 l -0.14937,-6.08542 -0.8965,-0.0856 c -0.49308,-0.0471 -1.18695,-0.0127 -1.54192,0.0764 l -0.64541,0.16199 0.10367,6.40594 c 0.11372,7.02663 0.2791,7.92945 1.78774,9.7597 1.81761,2.20507 6.23777,2.9676 9.30648,1.60549 z m -157.306398,0.0575 c -0.248353,-0.64719 -0.190287,-17.66407 0.06163,-18.06123 0.387399,-0.61076 3.584247,-0.31225 3.688857,0.34445 0.200495,1.25862 0.31112,1.30096 1.186256,0.45398 1.607598,-1.55588 3.76251,-2.03836 5.626149,-1.25968 1.247204,0.52112 1.331376,0.91829 0.529828,2.50007 l -0.684639,1.35107 -1.795791,-0.1669 c -3.983534,-0.37023 -4.60783,0.82061 -4.802101,9.16 l -0.138682,5.95312 -1.753277,0.0775 c -1.42152,0.0628 -1.784489,-0.004 -1.918229,-0.35237 z m 3.185711,-0.0614 c 0.214787,-0.13665 0.334856,-1.9965 0.396875,-6.14751 0.08874,-5.93956 0.09038,-5.95408 0.814371,-7.18565 1.089516,-1.85337 2.664973,-2.36711 5.10836,-1.66576 0.449868,0.12912 0.649376,-0.0733 1.172159,-1.1895 0.719076,-1.53525 0.609997,-1.78319 -0.938138,-2.13235 -1.812342,-0.40875 -3.352944,0.13019 -4.862963,1.70119 -1.15431,1.20092 -1.33716,1.18978 -1.33716,-0.0814 0,-0.69518 -0.136056,-1.08224 -0.418515,-1.19063 -0.712165,-0.27328 -2.369572,-0.1771 -2.703569,0.1569 -0.454297,0.4543 -0.454297,17.16695 0,17.62125 0.347557,0.34756 2.276388,0.42661 2.76858,0.11347 z m 47.513217,0.16208 c -0.51387,-0.51387 -0.47017,-17.76731 0.0461,-18.19577 0.22091,-0.18334 1.00777,-0.27803 1.91823,-0.23084 l 1.54368,0.08 v 9.26042 9.26041 l -1.58977,0.0771 c -1.0085,0.0489 -1.70986,-0.043 -1.91823,-0.25136 z m 2.95719,-0.11865 c 0.37006,-0.142 0.41851,-1.18288 0.41851,-8.99079 v -8.83019 l -0.62484,-0.15683 c -0.34367,-0.0862 -1.02828,-0.11829 -1.52136,-0.0712 l -0.8965,0.0856 -0.0699,8.72924 c -0.0384,4.80108 -0.0124,8.87897 0.0578,9.06198 0.13233,0.34484 1.88748,0.45945 2.6362,0.17214 z m 47.58484,0.20977 c -0.2429,-0.15429 -0.34441,-2.06201 -0.39687,-7.45861 l -0.0705,-7.2513 -0.66146,-0.15505 c -0.60655,-0.14218 -0.668,-0.29173 -0.74033,-1.80182 -0.0784,-1.63684 -0.0741,-1.64772 0.70559,-1.80367 l 0.78447,-0.15689 0.0983,-5.72602 c 0.11211,-6.52926 0.30447,-7.33495 2.12288,-8.89143 1.19623,-1.02393 3.16862,-1.57385 4.6726,-1.30277 1.75419,0.31618 1.88146,0.47533 1.88146,2.35263 v 1.70229 l -1.74935,-0.058 c -2.77119,-0.0918 -2.86035,0.10975 -2.96233,6.69695 l -0.0815,5.26259 2.33043,0.0767 2.33043,0.0767 v 1.71979 1.71979 l -2.24896,0.1323 -2.24895,0.13229 -0.0706,7.12194 c -0.0467,4.71368 -0.16948,7.24116 -0.36312,7.47448 -0.31885,0.38419 -2.78365,0.48561 -3.33229,0.13712 z m 3.10451,-7.30357 c 0,-3.8444 0.0723,-7.17815 0.1606,-7.40833 0.12738,-0.33195 0.58586,-0.41852 2.21656,-0.41852 2.37534,0 2.72672,-0.23879 2.60085,-1.76747 l -0.0832,-1.01065 -2.19316,-0.13229 c -1.53887,-0.0928 -2.27307,-0.2507 -2.46099,-0.52917 -0.48502,-0.71874 -0.16161,-10.01447 0.38808,-11.15424 0.60687,-1.25834 1.70053,-1.73958 3.10278,-1.3653 1.25738,0.33561 1.29558,0.29759 1.29558,-1.28944 0,-1.13631 -0.0787,-1.31529 -0.67868,-1.5434 -1.92875,-0.73331 -4.82454,0.0545 -5.99622,1.63139 -1.14474,1.54058 -1.30618,2.46583 -1.45702,8.35012 l -0.14378,5.60935 -0.75694,0.26387 c -1.28419,0.44767 -0.98389,2.93723 0.35431,2.93723 0.44699,0 0.47625,0.44424 0.47625,7.23195 0,3.97757 0.0794,7.31132 0.17639,7.40833 0.097,0.097 0.81138,0.17639 1.5875,0.17639 h 1.41111 z m 28.36333,7.20148 c -0.45458,-0.45457 -0.45458,-17.69583 0,-18.15041 0.33063,-0.33063 2.505,-0.43616 3.23274,-0.1569 0.24818,0.0952 0.41851,0.47213 0.41851,0.92604 0,0.97418 0.11565,0.96157 1.342,-0.14636 1.68945,-1.52632 4.64986,-1.87589 6.07988,-0.71793 l 0.56552,0.45793 -0.73999,1.50881 -0.73999,1.50881 -1.74736,-0.1624 c -3.9602,-0.36806 -4.58683,0.8321 -4.71525,9.03091 -0.0633,4.04389 -0.18499,5.87925 -0.39871,6.01522 -0.49746,0.31651 -2.95177,0.23186 -3.29735,-0.11372 z m 3.38667,-6.29708 c 0.14529,-6.53817 0.33577,-7.37428 1.95561,-8.58396 0.71613,-0.5348 2.67666,-0.73593 3.99522,-0.40987 0.41427,0.10245 0.66806,-0.13611 1.18756,-1.11631 0.81451,-1.53683 0.60427,-1.8352 -1.41089,-2.00231 -1.9631,-0.1628 -3.14335,0.29136 -4.36556,1.67987 -1.26792,1.44044 -1.312,1.44192 -1.41288,0.0477 l -0.0813,-1.12448 -1.52136,-0.0793 -1.52135,-0.0794 v 8.88995 8.88995 l 1.52135,-0.0794 1.52136,-0.0793 z m 29.9618,6.30805 c -0.46458,-0.46458 -0.47499,-17.69736 -0.011,-18.16138 0.48128,-0.48128 3.37243,-0.41622 3.52726,0.0794 0.0682,0.21828 0.18082,0.57817 0.25028,0.79976 0.10254,0.3271 0.3241,0.25959 1.17796,-0.35894 3.07099,-2.22462 7.64125,-1.64244 9.53355,1.21442 1.13173,1.70859 1.38134,3.77765 1.28459,10.64789 l -0.0838,5.95312 h -1.85208 -1.85208 l -0.1323,-6.66169 c -0.12386,-6.23719 -0.16763,-6.70926 -0.68696,-7.40833 -0.84672,-1.13977 -1.62668,-1.4406 -3.47563,-1.34055 -3.31186,0.17921 -3.7913,1.32447 -4.01455,9.58974 l -0.15723,5.82083 -1.58976,0.0771 c -1.0085,0.0489 -1.70986,-0.043 -1.91823,-0.25136 z m 2.95718,-0.11865 c 0.36218,-0.13898 0.41852,-0.86739 0.41852,-5.41093 0,-6.00934 0.24301,-7.57789 1.37348,-8.86543 1.36835,-1.55847 4.30961,-1.85003 5.916,-0.58645 1.31215,1.03214 1.44177,1.7826 1.44177,8.34741 0,6.72154 -0.0119,6.676 1.74031,6.676 1.78817,0 1.78791,10e-4 1.62496,-7.08086 -0.15196,-6.60438 -0.32811,-7.75798 -1.43236,-9.38015 -1.81854,-2.67149 -6.62988,-2.93359 -9.38856,-0.51144 -1.02874,0.90325 -1.2756,0.85205 -1.2756,-0.26452 0,-0.84102 -0.61348,-1.11904 -2.1462,-0.97263 l -0.89651,0.0856 -0.0698,8.72924 c -0.0384,4.80108 -0.0124,8.87897 0.0578,9.06198 0.13233,0.34484 1.88748,0.45945 2.63619,0.17214 z m 18.20948,0.11865 c -0.51387,-0.51387 -0.47017,-17.76731 0.0461,-18.19577 0.22091,-0.18334 1.00777,-0.27803 1.91823,-0.23084 l 1.54368,0.08 v 9.26042 9.26041 l -1.58977,0.0771 c -1.0085,0.0489 -1.70985,-0.043 -1.91823,-0.25136 z m 2.95719,-0.11865 c 0.37006,-0.142 0.41851,-1.18288 0.41851,-8.99079 v -8.83019 l -0.62484,-0.15683 c -0.34367,-0.0862 -1.02828,-0.11829 -1.52136,-0.0712 l -0.8965,0.0856 -0.0698,8.72924 c -0.0384,4.80108 -0.0124,8.87897 0.0578,9.06198 0.13233,0.34484 1.88749,0.45945 2.6362,0.17214 z M 31.545066,343.95752 c -7.641585,-0.4098 -14.335983,-1.80789 -19.128955,-3.99499 -1.708792,-0.77974 -2.049764,-1.03648 -1.984375,-1.49416 0.119165,-0.83408 3.232341,-0.67653 9.491536,0.48036 13.316335,2.46127 23.278934,2.46206 33.109165,0.003 3.572943,-0.89392 5.686171,-1.69237 11.256036,-4.25294 5.372393,-2.46978 6.250824,-2.75135 6.506338,-2.08549 0.368027,0.95907 -3.90682,4.55733 -7.64947,6.43879 -7.200453,3.61973 -19.622165,5.54813 -31.600275,4.90579 z m 10.715625,-0.62448 c 8.640812,-0.54981 14.919859,-2.00226 20.642506,-4.77497 2.81157,-1.36226 7.062674,-4.5183 7.225606,-5.36434 0.128386,-0.66665 -0.176914,-0.55863 -5.980934,2.11607 -9.708716,4.47414 -16.225854,5.91322 -26.779066,5.91322 -5.404898,0 -10.984121,-0.51288 -15.866031,-1.45851 -6.970738,-1.35025 -10.595206,-1.76877 -10.595206,-1.22345 0,0.12565 0.718207,0.55076 1.596016,0.9447 7.228471,3.24394 17.786327,4.60896 29.757109,3.84728 z m -3.96875,-9.69302 c -8.778126,-0.45299 -17.890593,-2.46389 -25.632086,-5.65638 -3.7035822,-1.52732 -4.3981222,-1.94302 -4.3981222,-2.63241 0,-1.14611 0.7078204,-1.08612 7.9527572,0.67404 20.234606,4.916 29.011355,5.07784 41.26078,0.76084 13.664403,-4.81567 18.606564,-10.89237 13.608067,-16.73199 -1.531553,-1.78928 -1.053374,-3.13121 1.086253,-3.04841 4.369536,0.16911 6.80274,6.39498 4.404278,11.26928 -4.561541,9.27025 -21.858289,16.21256 -38.281927,15.36503 z m 9.445905,-0.74721 c 11.108431,-1.29943 20.1566,-5.13748 25.554065,-10.83953 2.736328,-2.89074 3.594529,-4.58248 3.7219,-7.33685 0.198202,-4.28609 -1.938928,-7.36007 -5.11696,-7.36007 -1.562831,0 -1.793571,0.97909 -0.568132,2.41074 5.00338,5.84532 0.968613,11.57703 -11.703333,16.62552 -12.800753,5.0998 -22.152161,5.12725 -42.957029,0.12611 -7.5325408,-1.8107 -7.7534837,-1.84993 -8.0169123,-1.4237 -0.3223175,0.52152 0.4357903,1.00213 3.6580423,2.31903 11.841349,4.83943 24.353125,6.77429 35.428359,5.47875 z m -48.35218301,-7.522 c -4.92048259,-2.82233 -6.52636629,-9.55116 -3.66283359,-15.34766 4.00415909,-8.10541 17.1169256,-13.06375 34.6316116,-13.09527 7.18845,-0.0129 10.924407,0.3167 14.875099,1.31249 5.925647,1.49358 10.25849,4.95937 7.666075,6.13201 -0.878075,0.39718 -3.769155,-0.0442 -8.180755,-1.24903 -6.238418,-1.70372 -7.216429,-1.86908 -12.024007,-2.03308 -8.2428,-0.28118 -18.435944,1.2236 -24.7319196,3.65109 -9.3406717,3.60142 -12.9689907,12.64419 -7.49876013,18.68899 1.50176473,1.65951 1.75113823,2.27527 1.03304483,2.55083 -0.61362813,0.23547 -0.65259506,0.22418 -2.10755511,-0.61037 z m 2.07791161,0.0726 c 0.093062,-0.0931 -0.4423832,-0.83721 -1.18987739,-1.65365 -5.30456831,-5.79387 -2.71204911,-14.37015 5.60614719,-18.54563 5.2239936,-2.62228 15.7977836,-4.56718 24.8714716,-4.57475 5.780464,-0.005 6.727716,0.1272 13.000386,1.8118 7.133446,1.91578 9.489198,2.09622 9.489198,0.72683 0,-0.93189 -3.565621,-3.21341 -6.482292,-4.14781 -7.02062,-2.24916 -20.682967,-2.4529 -30.470087,-0.45439 -10.1472174,2.07204 -16.09545534,5.18201 -19.4127895,10.14975 -2.9655447,4.44094 -2.8332154,10.75909 0.300254,14.33582 1.4805358,1.68998 3.72073849,2.91888 4.2875891,2.35203 z m 43.1783664,-0.79929 c -1.035519,-0.17033 -1.356819,-0.49683 -0.959744,-0.97528 0.444987,-0.53617 1.788985,-0.82406 8.141456,-1.74391 7.617717,-1.10305 10.603667,-2.0768 12.653195,-4.12632 2.871393,-2.8714 -1.765077,-5.71581 -11.858152,-7.27482 -4.343148,-0.67085 -6.256963,-1.19293 -6.256963,-1.70686 0,-0.68946 0.503515,-0.69052 5.714213,-0.012 10.021555,1.305 13.980932,2.5606 15.865395,5.03126 3.254768,4.26722 -2.149519,8.84435 -12.167393,10.30511 -2.807988,0.40945 -9.784014,0.72454 -11.132007,0.50281 z m 11.90625,-0.99711 c 8.129199,-1.44542 12.732389,-4.62743 11.76461,-8.13244 -0.909877,-3.2953 -5.16737,-4.9525 -16.176634,-6.29663 -2.426613,-0.29626 -4.629269,-0.53504 -4.894791,-0.53062 -1.726227,0.0288 2.24259,1.03454 6.213022,1.57449 8.095997,1.10101 13.267556,3.97347 12.115963,6.72962 -1.042706,2.49554 -5.238021,4.14276 -13.520086,5.30842 -4.758867,0.66979 -7.493443,1.14758 -7.87567,1.37605 -1.315,0.78601 7.911625,0.76447 12.373586,-0.0289 z m 81.603609,-3.5703 c -2.15966,-2.15966 0.48399,-5.60498 3.08414,-4.0194 0.44816,0.27328 0.96767,0.86584 1.15445,1.31679 1.06583,2.57312 -2.25235,4.68886 -4.23859,2.70261 z m 2.91184,0.12173 c 1.95523,-1.01109 1.1255,-4.12383 -1.09353,-4.10242 -2.10323,0.0203 -3.03087,2.23896 -1.55373,3.71611 0.86191,0.8619 1.53704,0.96042 2.64726,0.38631 z m 133.61316,-0.12173 c -2.15966,-2.15966 0.48399,-5.60498 3.08414,-4.0194 0.44816,0.27328 0.96767,0.86584 1.15446,1.31679 1.06582,2.57312 -2.25235,4.68886 -4.2386,2.70261 z m 2.91184,0.12173 c 1.95523,-1.01109 1.1255,-4.12383 -1.09352,-4.10242 -2.10324,0.0203 -3.03088,2.23896 -1.55374,3.71611 0.86191,0.8619 1.53704,0.96042 2.64726,0.38631 z M 4.8750661,313.91803 c -0.4210926,-0.4211 -0.4003867,-1.15943 0.077659,-2.76919 1.6564278,-5.57779 10.8908249,-9.34873 22.8934939,-9.34873 8.316588,0 17.708985,3.25968 14.757257,5.12158 -0.329825,0.20805 -2.000051,0.11749 -6.217709,-0.33714 -16.019895,-1.72678 -21.929877,-0.66917 -28.0294865,5.01598 -3.0185471,2.81344 -2.9985681,2.80014 -3.4812144,2.3175 z m 7.6895489,-6.14314 c 5.298785,-2.54861 11.892462,-3.04504 23.213785,-1.74773 5.929027,0.6794 6.946556,0.69019 6.832421,0.0724 -0.115335,-0.62426 -3.125689,-2.06847 -5.665615,-2.71807 -8.214815,-2.101 -20.937995,-0.84074 -26.867708,2.6613 -2.8769196,1.69909 -4.9907653,4.55405 -4.9907653,6.74053 0,1.09079 0.357889,0.89834 2.9421732,-1.58212 1.951209,-1.87282 3.0823491,-2.7273 4.5357091,-3.42634 z"
         id="path18" /><path
         style="fill:#5fc8b0"
         d="m 33.741622,358.75269 c 1.426386,-0.0477 3.688574,-0.0474 5.027083,4.7e-4 1.338509,0.0479 0.171465,0.0869 -2.59343,0.0867 -2.764896,-2.5e-4 -3.86004,-0.0395 -2.433653,-0.0871 z m 20.557611,-3.33239 c 0,-0.0682 0.535781,-0.43807 1.190625,-0.82183 1.47173,-0.86249 1.541021,-1.4006 0.198438,-1.54104 l -0.992188,-0.10378 1.000491,-0.0445 c 1.066654,-0.0474 1.549171,0.46502 1.028549,1.09233 -0.312484,0.37652 -2.425915,1.61257 -2.425915,1.4188 z m -25.135417,-5.38236 c -4.682107,-0.26713 -11.046443,-1.3937 -14.684375,-2.59931 -2.044105,-0.67742 -4.8947916,-2.03093 -4.8947916,-2.32406 0,-0.42148 3.7640786,-0.002 9.1679806,1.02128 13.851861,2.62344 26.574762,2.25267 36.472645,-1.06287 1.455208,-0.48746 4.997572,-1.96983 7.87192,-3.29416 6.640617,-3.05961 6.997085,-3.09346 4.082918,-0.38769 -6.782922,6.29785 -21.302808,9.6004 -38.016297,8.64681 z m 175.683334,-4.93842 c -4.72483,-1.08646 -7.27756,-4.35021 -7.2743,-9.30045 0.002,-3.15323 0.46729,-4.41061 2.39399,-6.47041 2.00014,-2.13831 3.63684,-2.79045 6.99698,-2.78793 4.18349,0.003 6.77852,1.55579 8.52309,5.09951 3.50006,7.10964 -2.92228,15.23389 -10.63976,13.45928 z m 4.63021,-3.31178 c 4.07562,-1.85618 5.05028,-7.60097 1.81017,-10.66943 -4.0293,-3.81585 -10.64674,-0.94807 -10.6679,4.62311 -0.0179,4.71863 4.70069,7.93957 8.85773,6.04632 z m -20.5934,2.69848 c -0.097,-0.097 -0.17639,-3.43076 -0.17639,-7.40833 0,-6.78771 -0.0293,-7.23195 -0.47625,-7.23195 -0.74461,0 -1.11125,-0.54577 -1.11125,-1.65418 0,-0.88353 0.10074,-1.0543 0.75694,-1.28305 l 0.75694,-0.26387 0.14378,-5.60935 c 0.15084,-5.88429 0.31228,-6.80954 1.45702,-8.35012 1.17168,-1.57684 4.06747,-2.3647 5.99622,-1.63139 0.59998,0.22811 0.67868,0.40709 0.67868,1.5434 0,1.58703 -0.0382,1.62505 -1.29558,1.28944 -1.40225,-0.37428 -2.49591,0.10696 -3.10278,1.3653 -0.54969,1.13977 -0.8731,10.4355 -0.38808,11.15424 0.18792,0.27847 0.92212,0.43634 2.46099,0.52917 l 2.19316,0.13229 0.0832,1.01065 c 0.12587,1.52868 -0.22551,1.76747 -2.60085,1.76747 -1.6307,0 -2.08918,0.0866 -2.21656,0.41852 -0.0883,0.23018 -0.1606,3.56393 -0.1606,7.40833 v 6.98982 h -1.41111 c -0.77612,0 -1.49049,-0.0794 -1.5875,-0.17639 z m 31.57361,-8.68715 v -8.88995 l 1.52135,0.0794 1.52136,0.0793 0.0813,1.12448 c 0.10088,1.39423 0.14496,1.39275 1.41288,-0.0477 1.22221,-1.38851 2.40246,-1.84267 4.36556,-1.67987 2.01516,0.16711 2.2254,0.46548 1.41089,2.00231 -0.5195,0.9802 -0.77329,1.21876 -1.18756,1.11631 -1.31856,-0.32606 -3.27909,-0.12493 -3.99522,0.40987 -1.61984,1.20968 -1.81032,2.04579 -1.95561,8.58396 l -0.13229,5.95313 -1.52136,0.0793 -1.52135,0.0794 z m -132.70242,0 c -1e-4,-4.80219 0.03566,-6.80405 0.07946,-4.44858 0.04381,2.35547 0.04389,6.28454 1.83e-4,8.73125 -0.04371,2.44672 -0.07955,0.51951 -0.07965,-4.28267 z m 178.05692,3.57187 c 0,-2.83765 0.0389,-3.99851 0.0865,-2.57969 0.0476,1.41883 0.0476,3.74055 0,5.15938 -0.0476,1.41883 -0.0865,0.25797 -0.0865,-2.57969 z m 3.17585,-0.26458 c 0,-2.98318 0.0386,-4.20357 0.0858,-2.71198 0.0472,1.49159 0.0472,3.93237 0,5.42396 -0.0472,1.49159 -0.0858,0.2712 -0.0858,-2.71198 z M 31.0159,343.42499 c -7.057652,-0.3948 -13.821313,-1.83403 -18.512318,-3.93923 -3.7173814,-1.66826 -0.545088,-1.57 8.99919,0.27875 4.88191,0.94563 10.461133,1.45851 15.866031,1.45851 10.553212,0 17.07035,-1.43908 26.779066,-5.91322 2.659656,-1.22566 5.114574,-2.3131 5.455372,-2.41651 1.259737,-0.38227 0.451078,0.77322 -1.808857,2.58466 -7.31924,5.86671 -21.025127,8.82825 -36.778484,7.94704 z m 217.86283,-11.1978 c 0,-2.83765 0.0389,-3.99851 0.0865,-2.57969 0.0476,1.41883 0.0476,3.74055 0,5.15938 -0.0476,1.41883 -0.0865,0.25797 -0.0865,-2.57969 z m 39.21987,-5.4901 c -0.0679,-0.10914 0.84776,-0.16637 2.0349,-0.12717 3.70893,0.12245 4.12864,0.23488 1.04958,0.28113 -1.62852,0.0245 -3.01654,-0.0448 -3.08448,-0.15396 z m -288.3696798,-1.5404 c -0.981218,-0.53232 -0.9329318,-0.76218 0.0530066,-0.25233 1.5285927,0.79046 1.7910931,0.48663 0.62275403,-0.72081 -1.22053679,-1.26139 -2.46773053,-3.03113 -2.45000463,-3.47651 0.00643,-0.16159 0.239819,0.1379 0.5186391,0.66554 0.27882,0.52764 1.10376172,1.61236 1.83320384,2.41048 0.72944216,0.79813 1.25011706,1.52728 1.15705546,1.62035 -0.2734025,0.2734 -0.95448395,0.17653 -1.7346544,-0.24672 z m -2.3051116,-1.85284 c -1.4027808,-1.52184 -2.3780383,-3.62693 -2.5248509,-5.44988 l -0.1135135,-1.40949 0.2615709,1.44392 c 0.3648933,2.01428 1.3297865,3.99254 2.6413768,5.41545 0.6136545,0.66573 1.0562042,1.21043 0.9834438,1.21043 -0.07276,0 -0.6343726,-0.5447 -1.2480271,-1.21043 z m 46.7225744,0.73564 c -0.324825,-0.52558 0.811272,-0.78138 7.903892,-1.77964 8.282065,-1.16566 12.47738,-2.81288 13.520086,-5.30842 1.151593,-2.75615 -4.019966,-5.62861 -12.115963,-6.72962 -3.970432,-0.53995 -7.939249,-1.54572 -6.213022,-1.57449 2.647103,-0.0441 13.201574,1.70203 15.90052,2.63061 8.010473,2.756 6.786359,8.62192 -2.369696,11.35551 -4.129458,1.23287 -16.106821,2.2458 -16.625817,1.40605 z M 5.2580783,313.52493 c -0.6478631,-0.64787 0.3782255,-3.4585 1.8672055,-5.11461 3.2133032,-3.57396 9.7958862,-5.65219 18.9958242,-5.99727 4.307214,-0.16156 7.534885,0.12723 10.824098,0.96847 2.539926,0.6496 5.55028,2.09381 5.665615,2.71807 0.114135,0.61776 -0.903394,0.60697 -6.832421,-0.0724 -15.063909,-1.72617 -21.885623,-0.45422 -27.7494941,5.17407 -1.4297151,1.37227 -2.6765875,2.41794 -2.7708276,2.3237 z m -7.3090862,-0.15984 c -0.012575,-0.4373 1.15524441,-2.49262 2.17624294,-3.83011 1.15800656,-1.51697 3.56768536,-3.45313 5.54411886,-4.45467 1.9052497,-0.96546 1.8940995,-0.74509 -0.014336,0.28335 -3.2674764,1.7608 -5.25932458,3.68252 -6.8223171,6.58213 -0.4827344,0.89555 -0.8804031,1.53424 -0.8837087,1.4193 z m -2.3816219,-2.17227 c -0.00419,-1.64915 4.9048945,-6.88227 7.6672792,-8.17339 0.2182812,-0.10202 0.1034057,0.0284 -0.255279,0.28978 -4.006861,2.9201 -5.0723373,3.99749 -6.5545872,6.62784 -0.4712076,0.83619 -0.8570435,1.40129 -0.857413,1.25577 z m 56.0836628,-7.24964 c 1.509059,-0.20154 1.647729,-0.74545 0.47964,-1.88129 l -0.874148,-0.85002 0.857234,0.60649 c 1.6455,1.16419 1.349955,2.39272 -0.558902,2.32326 l -1.092082,-0.0397 z"
         id="path17" /><path
         style="fill:#4b8bb8"
         d="m 28.63465,358.3839 c -4.566011,-0.46962 -11.921704,-1.98925 -12.518731,-2.58627 -0.61485,-0.61485 0.279615,-0.62111 4.386923,-0.0307 8.358886,1.20156 16.969274,1.047 23.742224,-0.42618 10.624076,-2.31083 12.435417,-2.57845 12.435417,-1.8373 0,0.82262 -4.413607,2.95943 -8.008635,3.87732 -4.778272,1.22 -13.623258,1.66281 -20.037198,1.00313 z m 118.70972,-3.31435 c -0.097,-0.097 -0.17639,-6.4728 -0.17639,-14.16841 v -13.99202 l 1.52136,0.0794 1.52135,0.0793 0.0763,0.92604 c 0.14116,1.7122 0.25742,1.7593 1.45434,0.58918 3.89983,-3.81252 9.89594,-2.59168 12.41637,2.52804 1.21223,2.46239 1.28946,6.70281 0.16572,9.09995 -2.48653,5.30424 -8.47491,6.74366 -12.58972,3.02618 -0.58191,-0.52572 -1.13288,-0.95585 -1.22439,-0.95585 -0.0915,0 -0.16637,2.7287 -0.16637,6.06377 0,3.33508 -0.0723,6.25211 -0.1606,6.4823 -0.1641,0.42766 -2.45686,0.62326 -2.83801,0.24212 z m 2.46945,-6.41655 c 0,-7.71122 -0.003,-7.70263 2.0406,-5.8189 3.14516,2.89911 7.56465,2.81458 10.43495,-0.19959 5.60915,-5.89029 1.53321,-16.66421 -6.0098,-15.8857 -1.72135,0.17766 -2.80724,0.7241 -4.42758,2.22806 -1.51388,1.40514 -2.03817,1.24603 -2.03817,-0.61853 v -1.15823 h -1.19063 -1.19062 v 13.75833 13.75833 h 1.19062 1.19063 z m 4.23333,-6.08459 c -5.32748,-1.86787 -5.7992,-10.76743 -0.69665,-13.14327 5.41278,-2.52029 10.58804,2.67096 8.76905,8.79615 -1.09966,3.70296 -4.57372,5.57379 -8.0724,4.34712 z m 5.34309,-0.96677 c 4.2545,-2.99017 3.24825,-10.93226 -1.55405,-12.26578 -5.03195,-1.39729 -9.00412,3.38029 -7.36851,8.86258 1.16579,3.90757 5.7287,5.64794 8.92256,3.4032 z m 132.76941,13.3005 c 0,-0.1891 1.4963,-3.16935 3.32511,-6.62279 1.82881,-3.45344 3.28733,-6.43101 3.24115,-6.61681 -0.0462,-0.1858 -1.57225,-3.03888 -3.39126,-6.34017 -3.18625,-5.78269 -3.82264,-6.61957 -4.36562,-5.74101 -0.0899,0.14552 -0.80946,0.26458 -1.59893,0.26458 h -1.43541 l -0.0703,7.34219 -0.0703,7.34219 -1.51715,0.0792 -1.51715,0.0792 -0.0703,-7.35277 -0.0704,-7.35277 -0.79375,-0.13625 c -0.75052,-0.12882 -0.79811,-0.21183 -0.87373,-1.52384 -0.0758,-1.31498 -0.0463,-1.3876 0.56292,-1.3876 1.04307,0 1.21485,-0.51143 1.29417,-3.85294 l 0.075,-3.15852 1.2138,-0.0789 c 1.68393,-0.10944 1.79894,0.12223 1.88623,3.79953 l 0.075,3.15852 3.17391,0.1323 3.1739,0.13229 2.91151,5.40792 c 1.60133,2.97437 3.05562,5.45326 3.23175,5.50866 0.19233,0.0605 1.43463,-2.12612 3.11006,-5.47407 l 2.78982,-5.5748 h 1.58629 c 0.98278,0 1.5863,0.11136 1.5863,0.29271 0,0.43906 -14.04416,27.59011 -14.3877,27.81521 -0.53774,0.35234 -3.0748,0.23574 -3.0748,-0.14131 z m 7.7864,-9.37964 c 2.60401,-5.05684 5.79721,-11.24809 7.09599,-13.75833 l 2.36141,-4.56406 h -1.34465 -1.34466 l -2.76976,5.53472 c -1.52336,3.04409 -2.88238,5.60432 -3.02003,5.6894 -0.58357,0.36067 -1.10673,-0.40593 -3.86991,-5.67069 l -2.91041,-5.5453 -3.05594,-0.004 c -2.01907,-0.003 -3.16367,-0.1118 -3.37344,-0.32157 -0.21107,-0.21107 -0.3175,-1.36408 -0.3175,-3.43958 V 320.321 h -1.19062 -1.19063 v 3.27899 c 0,3.47605 -0.0464,3.60018 -1.34456,3.60018 -0.41572,0 -0.50752,0.19143 -0.50752,1.05833 0,0.92796 0.075,1.05834 0.60854,1.05834 1.20962,0 1.24354,0.21437 1.24354,7.85812 v 7.22312 h 1.19063 1.19062 v -7.12485 c 0,-8.1484 -0.0512,-7.95639 2.12242,-7.95639 0.92591,0 1.36013,-0.12377 1.53585,-0.43776 0.13774,-0.24612 0.41992,-0.37061 0.64463,-0.28438 0.48765,0.18712 7.33877,12.52169 7.33877,13.21251 0,0.27075 -1.47672,3.28618 -3.2816,6.70095 l -3.28159,6.20867 h 1.36792 1.36793 z m -192.80119,-0.33815 c -2.72815,-0.46424 -5.16387,-2.36625 -6.36868,-4.97318 -0.848164,-1.83522 -0.837652,-7.01094 0.018,-8.86491 1.61566,-3.5007 3.75722,-4.80772 7.87693,-4.80741 2.3669,1.9e-4 2.78945,0.0759 4.00812,0.7185 2.48124,1.30828 4.01204,3.96621 4.13267,7.17555 l 0.0613,1.63075 -6.74687,0.13229 -6.74688,0.13229 -0.0917,0.64983 c -0.14351,1.01709 0.43488,2.57791 1.33535,3.60348 2.36792,2.69692 6.31666,2.64712 8.67285,-0.10938 l 1.04089,-1.21774 1.20203,0.58399 c 1.44085,0.70001 1.46394,0.8782 0.29817,2.30087 -1.02101,1.24601 -3.46568,2.65769 -5.04926,2.91572 -2.02452,0.32987 -2.3886,0.34279 -3.64292,0.12935 z m 5.47943,-1.05955 c 1.46012,-0.69954 3.58744,-2.59966 3.58744,-3.20429 0,-0.21628 -0.40343,-0.58561 -0.89651,-0.82075 l -0.89652,-0.42751 -0.81264,1.01122 c -3.08471,3.83851 -9.10696,2.51987 -10.51861,-2.30316 -0.75019,-2.5631 -1.05989,-2.44895 6.64421,-2.44895 3.69238,0 6.76616,-0.0893 6.83061,-0.19844 0.22231,-0.37646 -0.35222,-3.56552 -0.84171,-4.6721 -1.96744,-4.4477 -8.17852,-5.82711 -12.25739,-2.72222 -2.06718,1.57356 -2.99415,3.875 -2.99415,7.43379 0,3.45723 0.61,5.16014 2.50832,7.0024 2.28132,2.21394 6.58624,2.81638 9.64695,1.35001 z m -9.3666,-10.16512 c -0.37781,-0.45523 -0.19635,-1.18036 0.67605,-2.70165 1.59611,-2.78328 6.04082,-3.46114 8.37555,-1.27734 1.4719,1.37674 2.2776,3.85324 1.36726,4.20257 -0.96357,0.36976 -10.08895,0.17394 -10.41886,-0.22358 z m 10.47599,-0.53894 c 0.0831,-0.21668 -0.20104,-1.01739 -0.63153,-1.77937 -1.38994,-2.46024 -4.25129,-3.29977 -6.89106,-2.02188 -1.2744,0.61693 -2.69936,2.50968 -2.69936,3.58554 v 0.60966 h 5.03539 c 4.21524,0 5.06001,-0.0642 5.18656,-0.39395 z m 13.26789,11.75564 c -2.9767,-0.48395 -5.59055,-2.37385 -7.01049,-5.0688 -1.08996,-2.06868 -1.09155,-6.23184 -0.003,-8.44735 0.89329,-1.81848 2.63617,-3.47635 4.64421,-4.41768 1.87658,-0.87971 6.08188,-1.01486 7.7854,-0.25021 l 0.99219,0.44535 v 1.73329 c 0,0.95331 -0.0474,1.7333 -0.10542,1.7333 -0.058,0 -0.78445,-0.35719 -1.61437,-0.79375 -4.50684,-2.37074 -9.45886,0.64598 -9.45886,5.76224 0,5.29254 5.51092,8.3285 9.91621,5.46282 0.54258,-0.35295 1.0486,-0.64173 1.12448,-0.64173 0.30415,0 0.12516,3.38528 -0.19277,3.6459 -0.8264,0.67743 -4.19996,1.14184 -6.07735,0.83662 z m 5.21746,-0.79469 c 0.71444,-0.34649 0.8018,-0.52548 0.8744,-1.79147 l 0.0806,-1.40651 -1.27128,0.74726 c -1.09379,0.64294 -1.54831,0.74641 -3.25565,0.74113 -4.12294,-0.0127 -6.73411,-2.67889 -6.73133,-6.87303 0.004,-5.33332 5.08601,-8.47586 9.82197,-6.07305 0.70124,0.35578 1.30475,0.64737 1.34113,0.64798 0.0364,6.1e-4 0.0661,-0.60028 0.0661,-1.33531 0,-1.76928 -0.86197,-2.20684 -4.36563,-2.21609 -10.27497,-0.0271 -13.09397,13.49793 -3.64326,17.47967 1.76892,0.74527 5.62085,0.78847 7.08285,0.0794 z m 42.65916,0.80266 c -2.72815,-0.46424 -5.16387,-2.36625 -6.36868,-4.97318 -0.84816,-1.83522 -0.83765,-7.01094 0.018,-8.86491 1.61567,-3.5007 3.75722,-4.80772 7.87693,-4.80741 2.36691,1.9e-4 2.78945,0.0759 4.00813,0.7185 2.48124,1.30828 4.01204,3.96621 4.13266,7.17555 l 0.0613,1.63075 -6.74688,0.13229 -6.74687,0.13229 -0.0917,0.64983 c -0.14351,1.01709 0.43488,2.57791 1.33535,3.60348 2.36793,2.69692 6.31667,2.64712 8.67285,-0.10938 l 1.0409,-1.21774 1.20203,0.58399 c 1.44084,0.70001 1.46393,0.8782 0.29816,2.30087 -1.02101,1.24601 -3.46568,2.65769 -5.04926,2.91572 -2.02452,0.32987 -2.3886,0.34279 -3.64292,0.12935 z m 5.47943,-1.05955 c 1.46012,-0.69954 3.58745,-2.59966 3.58745,-3.20429 0,-0.21628 -0.40343,-0.58561 -0.89652,-0.82075 l -0.89651,-0.42751 -0.81264,1.01122 c -3.08471,3.83851 -9.10697,2.51987 -10.51862,-2.30316 -0.75019,-2.5631 -1.05988,-2.44895 6.64421,-2.44895 3.69239,0 6.76616,-0.0893 6.83061,-0.19844 0.22232,-0.37646 -0.35222,-3.56552 -0.84171,-4.6721 -1.96743,-4.4477 -8.17851,-5.82711 -12.25739,-2.72222 -2.06718,1.57356 -2.99414,3.875 -2.99414,7.43379 0,3.45723 0.60999,5.16014 2.50832,7.0024 2.28131,2.21394 6.58623,2.81638 9.64694,1.35001 z m -9.3666,-10.16512 c -0.3778,-0.45523 -0.19635,-1.18036 0.67606,-2.70165 1.59611,-2.78328 6.04081,-3.46114 8.37554,-1.27734 1.4719,1.37674 2.2776,3.85324 1.36727,4.20257 -0.96358,0.36976 -10.08896,0.17394 -10.41887,-0.22358 z m 10.476,-0.53894 c 0.0831,-0.21668 -0.20105,-1.01739 -0.63153,-1.77937 -1.38995,-2.46024 -4.25129,-3.29977 -6.89106,-2.02188 -1.27441,0.61693 -2.69936,2.50968 -2.69936,3.58554 v 0.60966 h 5.03538 c 4.21525,0 5.06001,-0.0642 5.18657,-0.39395 z m 58.70201,11.84747 c -1.79804,-0.24578 -2.86442,-0.68494 -3.87062,-1.59398 -2.1937,-1.98187 -2.6814,-4.2407 -2.55719,-11.84391 l 0.0778,-4.7625 1.52135,-0.0793 1.52135,-0.0794 v 5.58458 c 0,6.12792 0.21209,7.54017 1.30863,8.71402 1.88674,2.01977 5.88962,1.43492 6.97819,-1.01957 0.18587,-0.41908 0.35674,-3.09819 0.44025,-6.90262 l 0.13648,-6.21771 1.53823,-0.0799 1.53823,-0.0798 -0.083,6.56215 c -0.0913,7.21887 -0.31556,8.32379 -2.02046,9.95643 -1.37567,1.31736 -4.30979,2.14491 -6.52923,1.84152 z m 3.70381,-0.63311 c 1.5707,-0.39551 3.10029,-1.76993 3.85809,-3.46671 0.58949,-1.3199 0.63116,-1.76254 0.72339,-7.68443 l 0.0979,-6.28385 h -1.18988 -1.18989 l -0.0913,6.01927 c -0.0887,5.85037 -0.10983,6.05202 -0.75273,7.18646 -1.28114,2.26065 -3.70572,3.01395 -6.17919,1.91981 -2.24104,-0.99131 -2.54634,-2.09762 -2.54947,-9.23856 l -0.003,-5.88698 h -1.21098 -1.21098 l 0.0865,6.54844 0.0865,6.54843 0.76368,1.37808 c 1.55283,2.80214 4.89865,3.93258 8.76097,2.96004 z M 87.901317,335.79907 v -8.88995 l 1.521354,0.0794 1.521354,0.0793 0.08136,1.12448 c 0.100132,1.38394 0.271926,1.39775 1.31056,0.10531 1.01697,-1.26548 2.294524,-1.89125 3.861139,-1.89125 1.306593,0 2.554748,0.44206 2.547798,0.90236 -0.0098,0.65007 -1.245534,2.40017 -1.605958,2.27447 -1.017322,-0.35481 -3.402774,-0.11651 -4.125338,0.41212 -1.597073,1.16841 -1.791682,2.03051 -1.937268,8.58188 l -0.132292,5.95313 -1.521354,0.0793 -1.521354,0.0794 z m 2.645833,3.88505 c 0,-8.69877 1.059175,-10.84515 5.221006,-10.58014 1.650939,0.10512 1.709802,0.0867 2.094439,-0.65715 0.526055,-1.01728 0.314386,-1.44577 -0.819248,-1.65844 -1.936471,-0.36329 -4.543119,0.95974 -5.052416,2.56439 -0.352256,1.10986 -1.302676,0.49822 -1.392132,-0.8959 l -0.08064,-1.25677 H 89.342028 88.1659 v 8.59896 8.59895 h 1.190625 1.190625 z m 47.88958,-3.88505 v -8.88995 l 1.52136,0.0794 1.52135,0.0793 v 8.73125 8.73125 l -1.52135,0.0793 -1.52136,0.0794 z m 2.64584,0 v -8.59896 h -1.19063 -1.19062 v 8.59896 8.59895 h 1.19062 1.19063 z m 112.7125,0 v -8.88995 l 1.52135,0.0794 c 1.50409,0.0784 1.5223,0.0891 1.60427,0.93924 0.10041,1.04146 0.53647,1.09268 1.39232,0.16354 2.05362,-2.22948 6.87379,-2.26336 8.89703,-0.0625 1.40284,1.52596 1.52147,2.23694 1.61658,9.68859 l 0.0887,6.94531 h -1.43952 -1.43952 l -0.12096,-6.3104 c -0.10783,-5.62496 -0.17776,-6.41983 -0.64384,-7.31794 -1.42743,-2.75059 -6.1573,-2.58503 -7.62457,0.26688 -0.48932,0.95107 -0.55791,1.67508 -0.67679,7.14375 l -0.13229,6.08542 -1.52136,0.0793 -1.52135,0.0794 z m 2.64736,3.9026 c 0.002,-7.10941 0.50518,-9.15512 2.5354,-10.3144 1.33963,-0.76493 3.80909,-0.81907 5.12676,-0.1124 1.79484,0.96259 1.98257,1.76012 2.08074,8.8393 l 0.0871,6.28385 h 1.19299 1.193 l -0.0926,-6.68072 c -0.10334,-7.45174 -0.28246,-8.3104 -2.04249,-9.79137 -2.22938,-1.87589 -6.22016,-1.56112 -8.23962,0.64991 -0.98001,1.07297 -1.68419,0.92144 -1.79261,-0.38574 -0.0815,-0.98261 -0.0909,-0.98999 -1.25678,-0.98999 h -1.17465 v 8.59896 8.59895 h 1.19063 1.19062 z m 18.5193,-3.9026 v -8.88995 l 1.52136,0.0794 1.52135,0.0793 v 8.73125 8.73125 l -1.52135,0.0793 -1.52136,0.0794 z m 2.64584,0 v -8.59896 h -1.19063 -1.19062 v 8.59896 8.59895 h 1.19062 1.19063 z M 37.233608,333.1313 c -7.789944,-0.57233 -14.592335,-1.99 -21.695834,-4.52156 -5.271148,-1.87854 -7.4187145,-3.07985 -6.509919,-3.64151 0.1303256,-0.0806 3.136654,0.56199 6.680729,1.42786 20.090859,4.90849 28.765903,5.18443 40.542279,1.28959 14.873455,-4.91914 20.643156,-11.62866 15.266108,-17.75278 -1.935494,-2.20441 0.26747,-3.48588 2.927173,-1.70276 2.584408,1.73265 3.382807,6.84872 1.58585,10.16198 -3.800035,7.00659 -14.858664,12.76776 -27.551594,14.35345 -2.475142,0.30921 -9.16353,0.53864 -11.244792,0.38573 z m 11.429678,-0.77541 c 12.698458,-1.62865 23.73485,-7.47283 27.126186,-14.36432 2.175197,-4.4202 0.110391,-10.10604 -3.669991,-10.10604 -1.426223,0 -1.507164,0.4511 -0.322946,1.79985 5.111148,5.82127 0.835062,11.98806 -11.785829,16.99699 -13.285025,5.27252 -23.183692,5.29385 -44.153513,0.0951 -7.6630498,-1.89978 -8.5810682,-1.89687 -4.069545,0.0129 11.662966,4.93706 25.496629,7.02491 36.875638,5.56549 z M -0.48892183,324.82482 C -2.6809517,323.666 -4.4520724,320.80698 -4.95905,317.60896 c -0.8000238,-5.04656 1.8376342,-10.12772 7.0990641,-13.67557 11.6025549,-7.82375 42.5017419,-8.88645 50.1234089,-1.72385 1.026296,0.96447 0.850155,1.55475 -0.493479,1.65373 -1.212705,0.0893 -3.668306,-0.42992 -9.773836,-2.06673 -4.211252,-1.12898 -4.262045,-1.13554 -9.737937,-1.25738 -8.886539,-0.19771 -18.096392,1.17944 -24.5638209,3.67303 -9.6798358,3.73219 -13.4406169,13.20916 -7.74114405,19.50728 1.57189435,1.737 1.42890495,2.09448 -0.44212788,1.10535 z M 138.99746,320.16434 c -1.34797,-0.56678 -1.56217,-2.43505 -0.39915,-3.48142 1.92593,-1.73275 4.62506,0.86761 3.01938,2.9089 -0.64438,0.8192 -1.55852,1.01893 -2.62023,0.57252 z m 2.34544,-0.82413 c 1.33779,-1.70073 -0.75387,-3.79239 -2.4546,-2.4546 -1.38408,1.08871 -0.71073,3.17075 1.02545,3.17075 0.62605,0 1.02183,-0.19833 1.42915,-0.71615 z m 134.17956,0.82413 c -1.34797,-0.56678 -1.56217,-2.43505 -0.39915,-3.48142 1.92593,-1.73275 4.62506,0.86761 3.01938,2.9089 -0.64438,0.8192 -1.55852,1.01893 -2.62023,0.57252 z m 2.34544,-0.82413 c 1.33779,-1.70073 -0.75387,-3.79239 -2.4546,-2.4546 -1.38408,1.08871 -0.71073,3.17075 1.02545,3.17075 0.62605,0 1.02183,-0.19833 1.42915,-0.71615 z"
         id="path16" /><path
         style="fill:#3d85b4"
         d="m 147.43257,340.95844 v -13.75833 h 1.19062 1.19063 v 1.15823 c 0,1.86456 0.52429,2.02367 2.03817,0.61853 1.62034,-1.50396 2.70623,-2.0504 4.42758,-2.22806 5.45547,-0.56306 9.6601,5.12518 8.37263,11.32691 -1.35028,6.50427 -8.15778,9.03539 -12.79778,4.75838 -2.04361,-1.88373 -2.0406,-1.89232 -2.0406,5.8189 v 6.06377 h -1.19063 -1.19062 z m 11.61997,1.23589 c 3.69575,-1.81613 4.61145,-8.07403 1.66041,-11.34717 -4.07871,-4.5239 -10.89913,-1.4299 -10.89913,4.94426 0,5.50533 4.59076,8.68697 9.23872,6.40291 z m 136.70468,6.31377 c 1.80488,-3.41477 3.2816,-6.4302 3.2816,-6.70095 0,-0.69082 -6.85112,-13.02539 -7.33877,-13.21251 -0.22471,-0.0862 -0.50689,0.0383 -0.64463,0.28438 -0.17572,0.31399 -0.60994,0.43776 -1.53585,0.43776 -2.17364,0 -2.12242,-0.19201 -2.12242,7.95639 v 7.12485 h -1.19062 -1.19063 v -7.22312 c 0,-7.64375 -0.0339,-7.85812 -1.24354,-7.85812 -0.53358,0 -0.60854,-0.13038 -0.60854,-1.05834 0,-0.8669 0.0918,-1.05833 0.50752,-1.05833 1.2982,0 1.34456,-0.12413 1.34456,-3.60018 v -3.27899 h 1.19063 1.19062 v 3.12209 c 0,2.0755 0.10643,3.22851 0.3175,3.43958 0.20977,0.20977 1.35437,0.31888 3.37344,0.32157 l 3.05594,0.004 2.91041,5.5453 c 2.76318,5.26476 3.28634,6.03136 3.86991,5.67069 0.13765,-0.0851 1.49667,-2.64531 3.02003,-5.6894 l 2.76976,-5.53472 h 1.34466 1.34465 l -2.36141,4.56406 c -1.29878,2.51024 -4.49198,8.70149 -7.09599,13.75833 l -4.73457,9.19427 h -1.36793 -1.36792 z m -190.30638,-4.11905 c -1.76058,-0.69693 -3.39449,-2.29379 -4.28031,-4.18325 -1.15036,-2.45373 -1.04668,-6.69447 0.22454,-9.18418 2.99387,-5.86357 11.72498,-5.83968 14.32549,0.0392 0.48949,1.10658 1.06402,4.29564 0.84171,4.6721 -0.0644,0.10914 -3.13823,0.19844 -6.83061,0.19844 -7.7041,0 -7.3944,-0.11415 -6.64421,2.44895 1.41165,4.82303 7.4339,6.14167 10.51861,2.30316 l 0.81264,-1.01122 0.89652,0.42751 c 1.17634,0.56096 1.13113,0.98918 -0.24354,2.30633 -2.45513,2.35244 -6.55354,3.19716 -9.62084,1.98296 z m 8.22571,-10.20579 c 0.91034,-0.34933 0.10464,-2.82583 -1.36726,-4.20257 -2.33473,-2.1838 -6.77944,-1.50594 -8.37555,1.27734 -1.70558,2.97417 -1.54334,3.08583 4.48354,3.08583 2.66242,0 5.02909,-0.0723 5.25927,-0.1606 z m 11.45963,10.11901 c -2.01999,-0.85106 -3.2555,-1.82535 -4.20042,-3.31237 -4.0694,-6.40402 0.23983,-14.18737 7.84368,-14.1673 3.50366,0.009 4.36563,0.44681 4.36563,2.21609 0,0.73503 -0.0298,1.33592 -0.0661,1.33531 -0.0364,-6.1e-4 -0.63989,-0.2922 -1.34113,-0.64798 -4.73596,-2.40281 -9.81842,0.73973 -9.82197,6.07305 -0.003,4.19414 2.60839,6.86029 6.73133,6.87303 1.70734,0.005 2.16186,-0.0982 3.25565,-0.74113 l 1.27128,-0.74726 -0.0806,1.40651 c -0.10347,1.80432 -0.70379,2.14022 -4.0494,2.26583 -2.05153,0.077 -2.59264,3.4e-4 -3.90785,-0.55378 z m 48.04799,0.0868 c -1.76058,-0.69693 -3.39449,-2.29379 -4.28031,-4.18325 -1.15036,-2.45373 -1.04668,-6.69447 0.22454,-9.18418 2.99388,-5.86357 11.72498,-5.83968 14.32549,0.0392 0.48949,1.10658 1.06403,4.29564 0.84171,4.6721 -0.0644,0.10914 -3.13822,0.19844 -6.83061,0.19844 -7.70409,0 -7.3944,-0.11415 -6.64421,2.44895 1.41165,4.82303 7.43391,6.14167 10.51862,2.30316 l 0.81264,-1.01122 0.89651,0.42751 c 1.17635,0.56096 1.13113,0.98918 -0.24353,2.30633 -2.45514,2.35244 -6.55355,3.19716 -9.62085,1.98296 z m 8.22572,-10.20579 c 0.91033,-0.34933 0.10463,-2.82583 -1.36727,-4.20257 -2.33473,-2.1838 -6.77943,-1.50594 -8.37554,1.27734 -1.70558,2.97417 -1.54335,3.08583 4.48354,3.08583 2.66241,0 5.02908,-0.0723 5.25927,-0.1606 z m 57.207,10.47125 c -1.35336,-0.40542 -2.7245,-1.57097 -3.50502,-2.97945 l -0.76368,-1.37808 -0.0865,-6.54843 -0.0865,-6.54844 h 1.21098 1.21098 l 0.003,5.88698 c 0.003,7.14094 0.30843,8.24725 2.54947,9.23856 2.47347,1.09414 4.89805,0.34084 6.17919,-1.91981 0.6429,-1.13444 0.66402,-1.33609 0.75273,-7.18646 l 0.0913,-6.01927 h 1.18989 1.18988 l -0.0979,6.28385 c -0.1117,7.17182 -0.36861,8.24591 -2.38519,9.97202 -1.56079,1.33598 -5.09569,1.90449 -7.45224,1.19853 z M 88.1659,335.79907 v -8.59896 h 1.176128 1.176128 l 0.08064,1.25677 c 0.08946,1.39412 1.039876,2.00576 1.392132,0.8959 0.509297,-1.60465 3.115945,-2.92768 5.052416,-2.56439 1.133634,0.21267 1.345303,0.64116 0.819248,1.65844 -0.384637,0.7438 -0.4435,0.76227 -2.094439,0.65715 -4.161831,-0.26501 -5.221006,1.88137 -5.221006,10.58014 v 4.7139 H 89.356525 88.1659 Z m 50.53542,0 v -8.59896 h 1.19062 1.19063 v 8.59896 8.59895 h -1.19063 -1.19062 z m 115.35833,0 v -8.59896 h 1.17465 c 1.1659,0 1.17527,0.007 1.25678,0.98999 0.10842,1.30718 0.8126,1.45871 1.79261,0.38574 2.01946,-2.21103 6.01024,-2.5258 8.23962,-0.64991 1.76003,1.48097 1.93915,2.33963 2.04249,9.79137 l 0.0926,6.68072 h -1.193 -1.19299 l -0.0871,-6.28385 c -0.0982,-7.07918 -0.2859,-7.87671 -2.08074,-8.8393 -1.31767,-0.70667 -3.78713,-0.65253 -5.12676,0.1124 -2.03022,1.15928 -2.53308,3.20499 -2.5354,10.3144 l -0.002,4.69635 h -1.19062 -1.19063 z m 21.16667,0 v -8.59896 h 1.19062 1.19063 v 8.59896 8.59895 h -1.19063 -1.19062 z M 32.6034,332.36188 c -6.764333,-0.82078 -14.457138,-2.87981 -20.815752,-5.57148 -4.5115232,-1.90977 -3.5935048,-1.91268 4.069545,-0.0129 20.969821,5.19872 30.868488,5.17739 44.153513,-0.0951 12.620891,-5.00893 16.896977,-11.17572 11.785829,-16.99699 -1.184218,-1.34875 -1.103277,-1.79985 0.322946,-1.79985 3.780382,0 5.845188,5.68584 3.669991,10.10604 -5.001635,10.16377 -24.4686,16.64146 -43.186072,14.37031 z M 138.61003,319.5725 c -0.69009,-0.76254 -0.559,-2.02829 0.27827,-2.68689 1.70073,-1.33779 3.79239,0.75387 2.4546,2.4546 -0.67953,0.86388 -2.05545,0.98083 -2.73287,0.23229 z m 136.525,0 c -0.69009,-0.76254 -0.559,-2.02829 0.27827,-2.68689 1.70073,-1.33779 3.79239,0.75387 2.4546,2.4546 -0.67953,0.86388 -2.05545,0.98083 -2.73287,0.23229 z"
         id="path15" /></g></g></svg>
