<?xml version="1.0" encoding="UTF-8" standalone="no"?>
<!-- Created with Inkscape (http://www.inkscape.org/) -->

<svg
   width="213.27725mm"
   height="92.651581mm"
   viewBox="0 0 213.27725 92.651581"
   version="1.1"
   id="svg1"
   xml:space="preserve"
   xmlns="http://www.w3.org/2000/svg"
   xmlns:svg="http://www.w3.org/2000/svg"><defs
     id="defs1" /><g
     id="layer1"
     transform="translate(-239.09444,-167.21533)"><g
       id="g18"
       transform="translate(279.9788,204.49236)"><path
         style="fill:#eab6a7"
         d="M 41.540154,55.0742 C 31.316671,51.735554 31.073331,37.223374 41.249785,37.757327 c 9.201719,0.48281 13.992106,13.073829 6.450444,16.954305 -1.358071,0.69878 -4.554449,0.886912 -6.160075,0.362568 z m 5.669157,-0.599804 c 4.7053,-1.958376 5.046699,-8.852772 0.655804,-13.243667 -4.83508,-4.83508 -12.194037,-3.852669 -13.552302,1.809214 -1.639241,6.833123 6.536134,14.081676 12.896498,11.434453 z m -83.774295,0.265094 c -3.866124,-1.418499 -5.325064,-6.233239 -3.201735,-10.566246 2.869595,-5.85589 10.659426,-8.121507 14.327547,-4.167066 2.8095,3.0288 2.192523,8.420048 -1.371457,11.984028 -2.663551,2.663551 -6.805909,3.831083 -9.754355,2.749284 z M 16.416272,42.860338 C 12.855557,42.079342 9.6312574,40.293869 6.7386723,37.501318 L 4.9534979,35.777879 3.2912913,37.374012 C -10.624358,50.736505 -32.862995,38.18454 -28.214711,19.591347 c 0.812369,-3.249488 3.447771,-7.597529 5.664569,-9.345738 1.032827,-0.8145074 0.984937,-1.1853887 -0.303344,-2.3492739 -2.407041,-2.1746166 -4.696213,-6.1747438 -5.534368,-9.6708226 -2.233297,-9.3154425 2.951778,-18.9466245 11.869845,-22.0480215 7.0574585,-2.454342 15.0323547,-0.529335 20.2669063,4.892093 1.3088511,1.355577 1.1753668,1.375131 2.9910054,-0.438132 10.9740183,-10.959656 29.3620703,-5.569287 32.4543803,9.5138457 1.253255,6.1129075 -0.54829,12.1796825 -5.096659,17.1632077 l -1.678866,1.8394883 1.47106,1.5889203 c 3.828911,4.13568 5.546661,8.358565 5.538983,13.616933 -0.01772,12.133934 -11.17145,21.103676 -23.012529,18.506491 z M 26.604129,41.874437 C 32.247435,39.890706 36.500825,35.405534 38.326551,29.513222 40.294308,23.162522 37.671375,13.978601 32.836672,10.290994 31.676995,9.4064652 31.701184,9.217266 33.15433,7.8063318 45.27135,-3.9587086 37.97941,-23.996698 21.337748,-24.665209 15.32765,-24.906641 9.1362467,-22.238213 5.9283401,-18.023921 l -0.7434232,0.97665 0.5480649,0.769686 c 0.3014356,0.423327 0.9766168,1.672095 1.5004026,2.775039 1.1021093,2.320729 0.9048206,2.22196 2.4579237,1.230507 2.5454199,-1.624918 3.8377889,-1.97742 7.2992059,-1.990908 3.022766,-0.01178 3.259025,0.02744 4.927435,0.817946 6.268642,2.97013 8.461925,9.8492698 5.240672,16.4371471 C 25.845732,5.6771736 25.371095,6.0461095 23.737389,5.6514717 20.77642,4.9362204 15.769785,5.4153562 12.835864,6.6947496 l -1.061497,0.4628862 2.872657,0.014358 c 3.213764,0.016063 6.216634,0.8480438 6.394509,1.7716751 0.268287,1.3931021 -6.726875,2.5936361 -9.60727,1.6488331 -0.479668,-0.157336 -0.473056,-0.123879 0.07068,0.357679 1.982433,1.755725 9.145296,2.674653 12.747373,1.635367 1.27786,-0.368694 1.886761,0.108662 3.014809,2.363497 C 32.540998,25.490892 23.214706,35.982397 12.224926,31.870594 10.056986,31.059463 8.4587063,29.863857 6.5977491,27.661139 3.9010156,24.469155 3.1068337,22.43694 3.0892949,18.683429 3.079712,16.632591 3.0448811,16.47944 2.7241304,17.077806 1.5114795,19.340026 1.2007597,24.425853 2.0340366,28.373183 3.407164,34.877847 8.7806612,40.308808 15.765809,42.251802 c 2.681833,0.74598 8.188015,0.554268 10.83832,-0.377365 z M -3.4394857,32.271858 c 1.7331894,-0.449114 3.64916491,-1.335643 4.6658519,-2.158906 0.6075698,-0.49198 0.6208272,-0.570246 0.3072241,-1.81372 -1.11819358,-4.433771 -0.1105753,-11.26219 2.0847461,-14.12789 0.613083,-0.800298 0.9173876,-0.599985 0.5512989,0.362902 -1.0077699,2.650635 -0.8431825,6.67491 0.3826717,9.356582 0.7827346,1.712307 0.8101853,1.712166 1.5977986,-0.0082 0.7747627,-1.692305 1.1798459,-4.321321 1.0145149,-6.584268 -0.1199779,-1.642182 -0.1139528,-1.660999 0.3007574,-0.939295 1.2284521,2.137827 1.8815431,8.254539 1.1926164,11.169792 -0.3441644,1.456362 -0.1663135,1.837846 1.2681205,2.720075 8.1731702,5.026797 17.7908602,0.612215 18.2525002,-8.378016 0.144992,-2.823642 -0.27813,-4.797626 -1.517739,-7.080681 -0.974152,-1.79415 -0.995664,-1.812836 -2.020208,-1.754772 -0.569564,0.03228 -2.352672,0.135703 -3.962463,0.22983 -2.483915,0.14524 -3.264771,0.0865 -5.159375,-0.38809 C 11.96103,11.985974 7.4463412,9.4598967 8.3800152,8.8828545 8.5845112,8.756469 8.911666,8.8666669 9.2061144,9.1611153 10.602181,10.557182 15.430857,10.973492 18.661876,9.976355 20.893068,9.2877784 20.971938,8.9660722 19.085168,8.2497684 17.077372,7.4875174 13.452956,7.3942093 11.173486,8.0460875 9.1990468,8.6107336 8.7838633,8.5828657 9.6014948,7.9405723 12.597929,5.5867132 19.0755,4.2853298 23.481091,5.1520769 c 1.951786,0.3839904 2.088557,0.3014023 3.22777,-1.9490653 5.428467,-10.7237053 -4.510787,-21.1376806 -15.274598,-16.0041456 -0.873125,0.416415 -1.907495,1.028982 -2.2986005,1.361259 l -0.7111008,0.60414 0.3706468,1.8520829 C 9.6025215,-4.9495931 8.5393967,1.7451657 6.8768172,3.0969303 6.4922473,3.4096059 6.4650625,3.3888931 6.6480113,2.9225977 7.3663639,1.0916786 7.1072398,-2.9022755 6.0944103,-5.6102147 5.527673,-7.1254648 5.1025467,-7.0257869 4.4017392,-5.2133397 3.5098962,-2.9068314 3.3999522,0.61822462 4.1435057,3.0662128 4.8360811,5.3463663 4.7251746,5.5843832 3.6571401,4.1100045 1.3889142,0.97880979 0.40789915,-4.9012383 1.3845028,-9.5118223 1.8360481,-11.643586 1.8078692,-11.689195 -0.73657031,-12.944884 -11.419395,-18.216892 -21.993332,-8.0152412 -16.908863,2.6580143 c 1.507931,3.1654284 1.533429,3.1826372 4.119626,2.7803222 2.9037209,-0.4517097 6.2052262,-0.2167044 8.8824945,0.6322671 3.60320176,1.1425885 3.55268542,1.3494322 -0.3304638,1.3531139 -3.5329843,0.00335 -6.4212397,0.7098573 -6.4212397,1.5707249 0,1.1700286 5.479444,2.2401396 8.5453806,1.6688756 2.40199347,-0.447555 2.37597944,-0.132367 -0.080045,0.969832 -3.1607267,1.418449 -7.5553626,1.797463 -12.1927076,1.051556 -0.905365,-0.145626 -0.987873,-0.09249 -1.784779,1.149378 -6.182976,9.635332 1.843148,21.259129 12.7311113,18.437774 z M 3.2376011,0.72762233 C 3.0120014,-1.5188024 3.4295763,-3.9251224 4.4265718,-6.1239488 L 5.1817737,-7.7895107 4.1847845,-9.0480397 C 2.2150841,-11.534451 1.9916897,-11.455447 1.5018903,-8.0992273 1.0460971,-4.9760263 1.5012633,-1.3173211 2.7035912,1.5602545 3.2951469,2.9760466 3.4406224,2.7492202 3.2376011,0.72762233 Z M 155.81577,42.93649 c -0.20501,-0.247021 0.54513,-1.894902 2.85478,-6.271294 l 3.13286,-5.936228 -0.75113,-1.467769 c -0.41312,-0.807273 -2.06884,-3.849018 -3.67938,-6.759435 -3.27928,-5.926036 -3.28275,-5.953125 -0.7641,-5.953125 1.67818,0 1.75846,0.09484 4.53361,5.356048 1.28438,2.434947 2.44207,4.493209 2.57265,4.573915 0.13059,0.08071 1.31015,-1.996193 2.62125,-4.615332 1.32376,-2.644406 2.61339,-4.884931 2.90006,-5.038351 0.72479,-0.387897 2.81082,-0.344556 3.15111,0.06547 0.30671,0.369571 -12.48485,25.679453 -13.21059,26.138975 -0.5658,0.358249 -3.04354,0.289784 -3.36112,-0.09287 z m 9.89147,-12.883669 c 3.55377,-6.906502 6.4614,-12.651267 6.4614,-12.766145 0,-0.114879 -0.68711,-0.20887 -1.52692,-0.20887 h -1.52692 l -2.50241,5.027083 c -1.37632,2.764896 -2.63236,5.027083 -2.79118,5.027083 -0.15883,0 -1.47145,-2.232422 -2.91695,-4.960937 l -2.62816,-4.960938 -1.68617,-0.07964 c -2.04882,-0.09677 -2.24039,-0.789849 1.81372,6.561932 1.72531,3.128698 3.27884,6.0021 3.45231,6.385337 0.29081,0.642503 0.0761,1.149207 -2.75576,6.502999 -1.68913,3.193411 -3.07114,5.891863 -3.07114,5.996558 0,0.104696 0.72378,0.154909 1.60839,0.111585 l 1.6084,-0.07877 z M 71.469166,33.79233 c -6.447307,-2.228661 -8.04019,-10.633928 -2.904711,-15.327466 5.729502,-5.236442 15.057939,-1.186026 15.086199,6.550442 0.0237,6.487376 -6.080865,10.885845 -12.181488,8.777024 z m 6.904683,-0.594018 c 6.716353,-3.197226 6.642894,-12.926397 -0.120517,-15.961635 -6.203936,-2.784161 -12.83418,1.863233 -12.388625,8.683666 0.395575,6.055352 7.002489,9.899333 12.509142,7.277969 z m -5.225683,-2.471994 c -4.697212,-1.26172 -5.65853,-7.634666 -1.560701,-10.346481 4.161907,-2.754219 9.674807,1.299538 8.408134,6.182686 -0.838403,3.232129 -3.742224,4.997887 -6.847433,4.163795 z m 3.422521,-0.436178 c 3.022851,-1.142113 4.249893,-5.490658 2.320136,-8.22239 -3.179426,-4.500742 -10.206602,-1.700275 -9.55428,3.807566 0.40738,3.439691 4.004644,5.635013 7.234144,4.414824 z m 28.579703,3.603967 c -1.88943,-0.673977 -3.00358,-1.625318 -3.79788,-3.242913 -0.75015,-1.527691 -0.75407,-1.56254 -0.84244,-7.474968 -0.0998,-6.676339 -0.11333,-6.627587 1.84024,-6.627587 1.76702,0 1.82041,0.179283 1.82041,6.112813 0,5.577703 0.15376,6.479045 1.27567,7.478373 0.76343,0.68002 2.60969,0.84881 3.80797,0.348136 1.74161,-0.727692 1.91688,-1.401851 2.00746,-7.721614 0.0889,-6.205948 0.0926,-6.217708 1.93641,-6.217708 1.74145,0 1.82041,0.239717 1.82041,5.526556 0,6.732833 -0.48801,8.7991 -2.49422,10.560575 -1.68189,1.476713 -5.11803,2.063072 -7.37403,1.258337 z m 5.63492,-0.584274 c 1.19226,-0.495807 2.28173,-1.538002 3.00079,-2.870569 0.53022,-0.982596 0.57709,-1.499592 0.65495,-7.224338 l 0.0839,-6.166004 -1.40679,0.08059 -1.40678,0.08059 -0.13229,5.688542 c -0.14589,6.273363 -0.32076,7.013328 -1.84342,7.80073 -1.11385,0.57599 -3.13259,0.511169 -4.19177,-0.134596 -1.5214,-0.927569 -1.73133,-1.836386 -1.85022,-8.009756 l -0.10597,-5.502997 -1.36212,0.07904 -1.36213,0.07904 -0.0746,4.630209 c -0.0889,5.518455 0.17825,7.586427 1.19181,9.225831 1.58767,2.567993 5.57899,3.585104 8.80465,2.243696 z M 58.056219,33.581357 C 57.95305,33.478188 57.86864,30.503087 57.86864,26.970021 v -6.423758 l -0.727604,-0.348731 c -0.662643,-0.317596 -0.727604,-0.478018 -0.727604,-1.79681 0,-1.318791 0.06496,-1.479213 0.727604,-1.796809 l 0.727604,-0.348732 0.0015,-4.681917 c 0.0024,-7.6008347 1.077854,-9.4444163 5.509425,-9.4444163 2.259556,0 2.693778,0.3395218 2.687132,2.1010905 -0.0058,1.5345211 -0.18212,1.6804936 -1.980324,1.6393759 -2.32412,-0.053143 -2.512589,0.4153836 -2.51313,6.2475539 l -4.11e-4,4.431771 h 1.975066 c 2.219364,0 2.522851,0.234345 2.522851,1.948082 0,1.406361 -0.529776,1.756085 -2.66019,1.756085 h -1.828641 l -0.07069,6.680729 -0.07069,6.680729 -1.598358,0.07734 c -0.879098,0.04253 -1.68277,-0.0071 -1.785938,-0.110243 z m 3.190402,-6.912406 0.07069,-6.680729 1.781394,-0.0041 c 2.310774,-0.0053 2.49451,-0.138965 2.39286,-1.741338 l -0.0823,-1.297319 -2.050521,-0.07728 -2.050521,-0.07728 v -4.579596 c 0,-2.7322739 0.121067,-4.9268883 0.300129,-5.4405473 0.376397,-1.0797331 1.545637,-1.6400184 2.719771,-1.3032811 1.212569,0.3477603 1.213434,0.346885 1.213434,-1.228573 0,-1.3256484 -0.06319,-1.4857833 -0.678683,-1.7197916 -1.508019,-0.5733477 -3.637762,-0.1043433 -5.014236,1.1042174 -1.420379,1.2471091 -1.715415,2.6568035 -1.715415,8.1963326 v 4.700041 l -0.727604,0.347142 c -1.151923,0.549586 -1.202027,2.401637 -0.08066,2.981518 l 0.808264,0.41797 v 6.431399 c 0,3.53727 0.08472,6.516124 0.188275,6.619675 0.103551,0.103551 0.78816,0.15316 1.521354,0.110243 l 1.33308,-0.07803 z m 25.384599,6.912406 c -0.103169,-0.103169 -0.187579,-3.844095 -0.187579,-8.313169 0,-9.228349 -0.107356,-8.7978 2.161335,-8.667975 1.318818,0.07547 1.415984,0.128031 1.49426,0.808322 0.104548,0.90862 0.172799,0.905656 1.26694,-0.05501 1.592631,-1.398349 4.101245,-1.642397 5.47154,-0.532293 l 0.586134,0.474838 -0.738471,1.506386 c -0.64794,1.321717 -0.810118,1.483051 -1.322917,1.316042 -1.394086,-0.45403 -2.443523,-0.413246 -3.312347,0.128727 -1.488001,0.928218 -1.710573,1.867709 -1.881764,7.943082 l -0.152835,5.423959 -1.598359,0.07734 c -0.879097,0.04253 -1.682769,-0.0071 -1.785937,-0.110243 z m 3.263515,-5.655635 c 0.129357,-4.879115 0.20112,-5.533256 0.714406,-6.512028 0.778647,-1.484777 2.030206,-2.067946 3.928961,-1.830712 l 1.419583,0.177365 0.58743,-1.20911 c 0.703959,-1.448958 0.524382,-1.738578 -1.198393,-1.93276 -1.923237,-0.216777 -3.000484,0.112982 -4.16134,1.273837 -1.068482,1.068483 -1.19662,1.041505 -1.35533,-0.285342 -0.08512,-0.711649 -1.176989,-1.007208 -2.496981,-0.675911 l -0.624847,0.156826 v 8.020654 c 0,4.411359 0.08472,8.105377 0.188275,8.208928 0.10355,0.103551 0.78816,0.15316 1.521354,0.110243 l 1.33308,-0.07803 z m 29.101965,5.309061 c -0.49126,-0.917921 -0.36177,-15.766717 0.14188,-16.27037 0.78062,-0.780621 3.2884,-0.482692 3.2884,0.390669 0,0.723803 0.39912,0.83413 0.92308,0.25516 1.3904,-1.536377 5.49427,-1.787722 7.50145,-0.459432 2.15595,1.426737 2.68293,3.595273 2.68597,11.052725 0.002,5.526179 -0.004,5.545137 -1.83686,5.538969 -1.88123,-0.0063 -1.81044,0.229543 -1.90868,-6.359833 -0.0759,-5.088006 -0.15555,-6.065513 -0.54257,-6.655578 -0.85889,-1.309484 -3.57471,-1.632024 -5.13478,-0.609824 -1.29724,0.84998 -1.51886,1.908029 -1.63556,7.808453 -0.0728,3.678671 -0.20481,5.486507 -0.41039,5.618344 -0.67638,0.433751 -2.78806,0.221146 -3.07194,-0.309283 z m 2.74718,0.08659 c 0.36088,-0.138485 0.42011,-0.858025 0.43009,-5.225521 0.0169,-7.373037 0.72359,-8.90138 4.11614,-8.90138 3.4096,0 3.65589,0.510603 3.76276,7.801146 0.0906,6.18033 0.15575,6.486354 1.3807,6.486354 1.63341,0 1.57688,0.221807 1.57526,-6.17987 -0.002,-6.108615 -0.14138,-7.183336 -1.1279,-8.66792 -1.65464,-2.49001 -6.49279,-2.794664 -8.50277,-0.53541 -0.68692,0.772106 -1.16396,0.711334 -1.26434,-0.16107 -0.0781,-0.678639 -0.1772,-0.732987 -1.47278,-0.807577 l -1.38906,-0.07997 v 8.06157 c 0,6.201692 0.0763,8.092358 0.33072,8.195022 0.47877,0.193185 1.67477,0.201281 2.16118,0.01463 z m 16.61101,0.107682 c -0.23295,-0.232956 -0.3175,-2.449736 -0.3175,-8.325065 0,-8.925822 -0.0802,-8.555351 1.85209,-8.555351 1.93228,0 1.85208,-0.370471 1.85208,8.555351 0,5.875329 -0.0845,8.092109 -0.3175,8.325065 -0.41164,0.411641 -2.65753,0.411641 -3.06917,0 z m 2.80459,-0.264583 c 0.33589,-0.335897 0.48097,-14.823622 0.1569,-15.668152 -0.22692,-0.591344 -2.62688,-0.591344 -2.85381,0 -0.32407,0.84453 -0.17899,15.332255 0.15691,15.668152 0.17462,0.174625 0.74612,0.3175 1.27,0.3175 0.52387,0 1.09537,-0.142875 1.27,-0.3175 z m 5.91095,0.230035 c -0.19103,-0.230172 -0.31674,-2.588802 -0.36313,-6.813021 l -0.071,-6.460972 -0.7276,-0.08372 c -0.70298,-0.08089 -0.72761,-0.137083 -0.72761,-1.66026 0,-1.540045 0.0184,-1.580216 0.79375,-1.735291 l 0.79375,-0.15875 v -2.868034 c 0,-3.180402 0.12765,-3.41582 1.85209,-3.41582 1.72759,0 1.85208,0.231815 1.85208,3.448892 v 2.901108 h 1.07573 c 1.65406,0 2.09997,0.35392 2.09522,1.662955 -0.006,1.523621 -0.1999,1.729833 -1.72086,1.825785 l -1.3178,0.08313 -0.0709,6.460972 c -0.0464,4.224219 -0.1721,6.582849 -0.36313,6.813021 -0.16821,0.202689 -0.82594,0.352048 -1.55029,0.352048 -0.72436,0 -1.38208,-0.149359 -1.5503,-0.352048 z m 2.83601,-0.264584 c 0.19103,-0.230171 0.31674,-2.588802 0.36313,-6.81302 l 0.071,-6.460972 1.38906,-0.07997 1.38906,-0.07997 V 18.400722 17.10546 l -1.38906,-0.07997 -1.38906,-0.07997 -0.13229,-3.042708 -0.1323,-3.042709 -1.38906,-0.07997 -1.38906,-0.07997 v 2.741382 c 0,2.873263 -0.2066,3.512474 -1.19063,3.683721 -0.43656,0.07597 -0.52916,0.299175 -0.52916,1.275467 0,0.976293 0.0926,1.199494 0.52916,1.275468 1.11747,0.194469 1.19063,0.636741 1.19063,7.197671 0,3.440433 0.0794,6.334708 0.17639,6.431722 0.31652,0.316525 2.13262,0.185364 2.43224,-0.17566 z M 123.39711,12.4035 c -0.097,-0.09701 -0.17638,-6.0374002 -0.17638,-13.2008587 0,-14.4073643 -0.13682,-13.3456683 1.71979,-13.3456683 1.33988,0 1.71979,0.236592 1.71979,1.071026 0,0.990968 0.34457,1.16121 0.95683,0.472734 1.58499,-1.782317 5.42369,-2.353227 7.90671,-1.175927 6.16728,2.92415 6.45309,13.00598501 0.46397,16.3659301 -2.6102,1.4643432 -5.68903,1.239783 -7.9902,-0.5827813 -0.55912,-0.4428318 -1.08875,-0.8051488 -1.17695,-0.8051488 -0.0882,0 -0.16036,2.4875741 -0.16036,5.5279425 0,4.7966845 -0.0554,5.5491875 -0.41852,5.6885415 -0.56331,0.216165 -2.62416,0.204726 -2.84468,-0.01579 z m 2.99862,-6.0413191 c 0,-6.24124995 -0.008,-6.21518997 1.53332,-4.8616933 1.33293,1.1703288 2.58975,1.6363488 4.4198,1.638834 9.7561,0.013249 10.25993,-16.4356566 0.52736,-17.2168936 -1.89157,-0.151837 -3.83462,0.543847 -5.04367,1.805829 -0.99696,1.040605 -1.38758,0.983434 -1.48699,-0.217638 l -0.0821,-0.992188 -1.38906,-0.07997 -1.38906,-0.07997 V -0.79539595 12.050722 h 1.45521 1.45521 z m 3.62081,-5.9575855 c -4.1914,-1.25808509 -5.0813,-8.0509146 -1.43394,-10.9456444 1.99769,-1.585465 5.61263,-1.113747 7.13185,0.9306421 3.51721,4.7330736 -0.39368,11.6071112 -5.69791,10.0150023 z m 4.05123,-0.78884345 c 2.92452,-1.49197725 3.53178,-6.69771935 1.08104,-9.26721345 -3.24185,-3.3989455 -8.46333,-0.9356775 -8.48269,4.0017648 -0.0179,4.5508429 3.66579,7.1713404 7.40165,5.26544865 z m 5.02796,11.87730305 c -2.84897,-1.11787 -1.31822,-5.4427073 1.57004,-4.4358554 1.3727,0.478526 2.01256,2.15003 1.31908,3.4458164 -0.22542,0.421194 -1.79796,1.346126 -2.15302,1.266352 -0.0411,-0.0092 -0.3723,-0.133565 -0.7361,-0.276313 z m 2.14027,-0.73116 c 1.36992,-1.1092965 0.4534,-3.4736724 -1.34652,-3.4736724 -1.15354,0 -1.95792,0.8152522 -1.95792,1.9843749 0,1.1691225 0.80438,1.9843745 1.95792,1.9843745 0.40432,0 1.01025,-0.222784 1.34652,-0.495077 z M 85.782182,3.3535051 c -4.060745,-1.0621365 -6.36189,-4.5333191 -6.161553,-9.2944489 0.220069,-5.2300652 2.834238,-8.1543242 7.519637,-8.4116112 4.854321,-0.266562 7.969934,2.427263 8.473394,7.3262751 0.252605,2.4580247 0.389203,2.4082527 -6.609374,2.4082527 h -5.804883 l 0.156295,0.9631294 c 0.375112,2.3115478 2.200904,3.79937051 4.662422,3.79937051 1.647566,0 2.474762,-0.39797805 3.793998,-1.82535681 1.170358,-1.2662972 1.075311,-1.2476429 2.436731,-0.4782427 1.377908,0.778718 1.436529,1.39190009 0.264025,2.76170822 C 92.653485,2.774859 88.533267,4.0730843 85.782182,3.3535051 Z m 5.75402,-1.0175039 c 1.426762,-0.6339602 3.638689,-2.60829278 3.638689,-3.24783915 0,-0.31913225 -1.560124,-1.32249515 -2.058604,-1.32395025 -0.186347,-5.44e-4 -0.721107,0.4344201 -1.188356,0.9665869 -2.752971,3.1354604 -7.489611,2.158542 -8.810093,-1.8170562 -0.690874,-2.0800291 -0.747799,-2.0609363 6.144629,-2.0609363 6.792341,0 6.431393,0.1493203 5.920182,-2.4491145 -0.884154,-4.4940667 -3.788584,-6.8253957 -8.074635,-6.4813527 -4.493646,0.360707 -7.265126,3.668591 -7.275816,8.6840075 -0.01396,6.5517117 5.765234,10.3684574 11.704004,7.7296547 z M 83.13187,-7.5356912 c -0.0924,-0.149507 0.0906,-0.8060336 0.406673,-1.4589481 1.582801,-3.2696317 6.413979,-3.4806957 8.158245,-0.3564164 1.127777,2.0200403 0.997836,2.0871952 -4.038603,2.0871952 -2.697606,0 -4.42233,-0.1035794 -4.526315,-0.2718307 z m 8.733918,-0.2544058 c 0.270706,-0.4380113 -0.674134,-2.0938159 -1.552162,-2.72012 -1.198996,-0.855252 -3.914458,-0.841454 -5.130748,0.02607 -0.968899,0.6910711 -1.761928,2.0169069 -1.54481,2.5827087 0.17303,0.4509089 7.95279,0.5561881 8.22772,0.1113413 z M 103.72089,3.1088514 C 95.949972,0.32504453 95.35474,-10.273857 102.7774,-13.691259 c 1.65185,-0.760513 5.99239,-0.837914 7.54489,-0.13454 l 0.99218,0.44952 v 1.997876 c 0,2.2672665 -0.11423,2.357389 -1.6442,1.297119 -3.64569,-2.526466 -8.40996,0.1188235 -8.40996,4.6695068 0,4.84284367 5.08354,7.2539521 8.92433,4.2327845 0.95084,-0.7479255 1.16944,-0.393305 1.07669,1.74656829 -0.079,1.82296701 -0.0807,1.82662831 -1.07922,2.31443621 -1.50088,0.7332424 -4.73105,0.8466466 -6.46122,0.2268396 z m 4.56843,-0.074257 c 2.38076,-0.432006 2.76057,-0.7698087 2.76057,-2.45524921 0,-1.79927569 -0.10171,-1.87308299 -1.39853,-1.01488342 -1.6504,1.09218238 -4.69334,1.04729434 -6.31774,-0.0931964 -4.127561,-2.89796037 -2.9201,-9.54864637 1.94552,-10.71589037 1.49567,-0.358805 3.27042,-0.03263 4.46995,0.821515 1.13297,0.8067395 1.3008,0.6664136 1.3008,-1.087585 0,-1.594867 -0.004,-1.602698 -0.99219,-2.044189 -1.71509,-0.766094 -5.41074,-0.624757 -7.24733,0.277168 -4.296738,2.110069 -6.181186,7.4191431 -4.12187,11.6125824 1.159153,2.36041346 3.54776,4.2036596 6.10234,4.7090645 1.56084,0.3088007 1.74799,0.3083012 3.49848,-0.00934 z m 39.66995,0.3189104 c -4.06075,-1.0621365 -6.36189,-4.5333191 -6.16156,-9.2944489 0.22007,-5.2300649 2.83424,-8.1543239 7.51964,-8.4116109 4.85432,-0.266562 7.96994,2.427263 8.4734,7.3262748 0.2526,2.4580247 0.3892,2.4082527 -6.60938,2.4082527 h -5.80488 l 0.15629,0.9631294 c 0.37512,2.3115478 2.20091,3.79937051 4.66243,3.79937051 1.64756,0 2.47476,-0.39797805 3.79399,-1.82535681 1.17036,-1.2662972 1.07531,-1.2476429 2.43673,-0.4782427 1.37791,0.778718 1.43653,1.39190009 0.26403,2.76170822 -1.85939,2.17227758 -5.97961,3.47050288 -8.73069,2.75092368 z m 5.75402,-1.0175039 c 1.42676,-0.6339602 3.63869,-2.60829278 3.63869,-3.24783915 0,-0.31913225 -1.56013,-1.32249515 -2.05861,-1.32395025 -0.18634,-5.44e-4 -0.7211,0.4344201 -1.18835,0.9665869 -2.75297,3.1354604 -7.48961,2.158542 -8.8101,-1.8170562 -0.69087,-2.0800291 -0.7478,-2.0609363 6.14463,-2.0609363 6.79234,0 6.43139,0.1493203 5.92018,-2.4491145 -0.88415,-4.4940664 -3.78858,-6.8253954 -8.07463,-6.4813524 -4.49365,0.360707 -7.26513,3.668591 -7.27582,8.6840072 -0.014,6.5517117 5.76524,10.3684574 11.70401,7.7296547 z m -8.40433,-9.8716924 c -0.0924,-0.149507 0.0906,-0.8060336 0.40667,-1.4589481 1.5828,-3.2696314 6.41398,-3.4806954 8.15824,-0.3564164 1.12778,2.0200403 0.99784,2.0871952 -4.0386,2.0871952 -2.69761,0 -4.42233,-0.1035794 -4.52631,-0.2718307 z m 8.73391,-0.2544058 c 0.27071,-0.4380113 -0.67413,-2.0938159 -1.55216,-2.7201197 -1.19899,-0.855252 -3.91446,-0.841454 -5.13075,0.02607 -0.9689,0.6910708 -1.76192,2.0169066 -1.54481,2.5827084 0.17303,0.4509089 7.95279,0.5561881 8.22772,0.1113413 z M 68.769474,2.7373893 c -0.232957,-0.2329568 -0.3175,-2.44973681 -0.3175,-8.3250658 0,-8.9258215 -0.0802,-8.5553505 1.852083,-8.5553505 1.191552,0 1.852083,0.4353 1.852083,1.220551 v 0.672767 l 1.101388,-0.942747 c 1.221592,-1.045637 2.303307,-1.347551 4.101786,-1.144836 1.901964,0.214379 2.21873,0.720539 1.409648,2.252473 l -0.659696,1.249084 -1.721829,-0.08851 c -1.449316,-0.0745 -1.837501,0.0025 -2.452683,0.486382 -1.499995,1.1798972 -1.631648,1.762423 -1.733768,7.6714067 C 72.13658,0.96034618 72.01144,2.7179658 71.80097,2.8518909 71.307097,3.1661494 69.115454,3.0833696 68.769474,2.7373893 Z M 71.574057,2.472806 c 0.223375,-0.2233748 0.317937,-1.73329995 0.318976,-5.0932291 0.0017,-5.4155003 0.207593,-6.4929229 1.485108,-7.7704379 0.877527,-0.877527 0.952021,-0.899743 2.65369,-0.791389 1.716813,0.109319 1.760393,0.09578 2.243866,-0.697042 0.675384,-1.107528 0.621159,-1.69971 -0.183656,-2.0057 -1.741123,-0.661974 -3.870903,-0.03445 -5.096565,1.501652 -0.899056,1.126778 -1.053232,1.112612 -1.154093,-0.106041 l -0.08212,-0.992188 -1.389062,-0.07997 -1.389063,-0.07997 v 8.0395209 c 0,4.4217367 0.07937,8.1188963 0.176389,8.2159102 0.298879,0.2988785 2.080579,0.1948376 2.416528,-0.1411111 z m 43.762083,0.2645833 c -0.23296,-0.2329568 -0.3175,-2.44973681 -0.3175,-8.3250658 0,-8.9258215 -0.0802,-8.5553505 1.85209,-8.5553505 1.93228,0 1.85208,-0.370471 1.85208,8.5553505 0,5.87532899 -0.0845,8.092109 -0.3175,8.3250658 -0.41164,0.4116408 -2.65753,0.4116408 -3.06917,0 z m 2.80459,-0.2645833 c 0.33589,-0.3358974 0.48097,-14.823622 0.1569,-15.668152 -0.22692,-0.591344 -2.62689,-0.591344 -2.85381,0 -0.32407,0.84453 -0.17899,15.3322546 0.15691,15.668152 0.17462,0.174625 0.74612,0.3175 1.27,0.3175 0.52387,0 1.09537,-0.142875 1.27,-0.3175 z m -2.06375,-21.671417 c -2.84897,-1.11787 -1.31822,-5.442707 1.57004,-4.435855 1.3727,0.478526 2.01256,2.15003 1.31908,3.445816 -0.22542,0.421194 -1.79797,1.346126 -2.15302,1.266352 -0.0411,-0.0092 -0.3723,-0.133565 -0.7361,-0.276313 z m 2.14027,-0.73116 c 1.36992,-1.109297 0.4534,-3.473672 -1.34652,-3.473672 -1.15354,0 -1.95792,0.815252 -1.95792,1.984374 0,1.169123 0.80438,1.984375 1.95792,1.984375 0.40431,0 1.01025,-0.222784 1.34652,-0.495077 z m -79.958186,0.145932 c -8.800131,-3.290921 -3.929665,-17.529944 5.983534,-17.493126 7.49757,0.02785 9.865496,8.672745 3.986005,14.552235 -2.692968,2.692969 -7.131396,4.00225 -9.969539,2.940891 z m 6.801238,-1.094199 c 6.960046,-3.432122 8.294923,-12.853553 2.193073,-15.478498 -5.121876,-2.203372 -12.202868,2.260707 -13.148203,8.289038 -1.015649,6.476716 4.740269,10.254119 10.95513,7.18946 z m -78.07604,0.807777 c -7.881313,-2.499074 -10.729627,-12.94059 -4.40438,-16.145835 5.363253,-2.717766 12.546669,1.521046 13.764161,8.121997 1.03375,5.604749 -3.83254,9.776462 -9.359781,8.023838 z"
         id="path22" /><path
         style="fill:#d8975c"
         d="m 42.847249,54.866237 c -5.41236,-0.83417 -9.73458,-6.823534 -8.534436,-11.826294 1.707264,-7.116676 12.16626,-6.269094 15.716066,1.273608 2.864423,6.086386 -0.840255,11.530038 -7.18163,10.552686 z M 15.765809,42.251802 C 8.7806612,40.308808 3.407164,34.877847 2.0340366,28.373183 1.2007597,24.425853 1.5114795,19.340026 2.7241304,17.077806 3.0448811,16.47944 3.079712,16.632591 3.0892949,18.683429 c 0.017539,3.753511 0.8117207,5.785726 3.5084542,8.97771 1.8609572,2.202718 3.4592369,3.398324 5.6271769,4.209455 10.98978,4.111803 20.316072,-6.379702 15.042201,-16.921549 -1.126945,-2.252631 -1.736958,-2.731556 -3.013062,-2.365574 -0.500532,0.143551 -1.2085,0.251023 -1.573263,0.238827 -0.755519,-0.02526 2.17638,-0.728609 3.14549,-0.754588 2.938336,-0.07877 8.507315,-4.9256604 11.023088,-9.5938091 0.982654,-1.82336751 1.252905,-1.92857885 0.349529,-0.1360752 -0.831297,1.6494834 -2.665644,4.1296269 -4.044579,5.4685061 -1.453146,1.4109342 -1.477335,1.6001334 -0.317658,2.4846622 4.834703,3.687607 7.457636,12.871528 5.489879,19.222228 -1.825726,5.892312 -6.079116,10.377484 -11.722422,12.361215 -2.650305,0.931633 -8.156487,1.123345 -10.83832,0.377365 z M 58.31382,33.296541 c -0.07221,-0.116294 0.510389,-0.170779 1.294669,-0.121077 l 1.425963,0.09037 0.07074,-6.70495 0.07074,-6.704949 1.852083,-0.01736 1.852083,-0.01736 -1.781418,0.095 -1.781419,0.095 -0.07066,6.669229 -0.07066,6.669229 -1.365409,0.07915 c -0.750975,0.04353 -1.424492,-0.016 -1.496703,-0.132292 z m 28.519703,-0.13426 c -0.07335,-0.191153 -0.09995,-3.918124 -0.0591,-8.282159 l 0.07427,-7.934608 0.06206,8.135937 0.06206,8.135938 h 1.315843 1.315844 l 0.08421,-3.836774 0.08421,-3.836775 -0.01099,3.90292 -0.01099,3.90292 -1.392022,0.08008 c -0.965765,0.05556 -1.43286,-0.02635 -1.525388,-0.267475 z M 61.151902,12.183014 c -3.04e-4,-2.473854 0.03946,-3.5214968 0.08837,-2.3280951 0.04891,1.1934021 0.04916,3.2174641 5.53e-4,4.4979161 -0.04861,1.280453 -0.08862,0.304033 -0.08893,-2.169821 z m -44.029097,0.665068 c -0.509323,-0.105223 0.324115,-0.132582 1.852084,-0.0608 1.527968,0.07178 2.827734,0.173548 2.888368,0.226144 0.196711,0.170633 -3.786701,0.03169 -4.740452,-0.165346 z m -3.674684,-0.923404 c -0.92967,-0.345202 -1.88217,-0.832152 -2.116667,-1.082111 -0.395276,-0.42134 -0.387781,-0.440693 0.102809,-0.265481 2.74191,0.979261 9.87681,-0.233807 9.60727,-1.6334172 C 20.863658,8.0200375 17.860788,7.1880566 14.647024,7.1719937 l -2.872657,-0.014358 1.061497,-0.4628862 c 2.933921,-1.2793934 7.940556,-1.7585292 10.901525,-1.0432779 0.955951,0.2309194 1.305103,0.212638 1.771435,-0.092752 0.793599,-0.5197083 2.670504,-4.4257616 2.983017,-6.20799727 l 0.25517,-1.45520833 -0.116306,1.45520833 C 28.42837,1.8823101 26.818247,4.701448 24.35032,6.8451758 23.212843,7.8332279 22.029774,8.8704917 21.721277,9.1502066 20.363341,10.38145 16.702124,11.378728 14.131529,11.217575 c -1.771021,-0.111026 -1.605393,0.161379 0.508716,0.836671 0.856085,0.273452 1.318394,0.497385 1.027352,0.497629 -0.291042,2.43e-4 -1.289806,-0.281995 -2.219476,-0.627197 z M 2.6988783,1.5489749 C 2.474417,1.0117636 2.233982,0.26762295 2.1645781,-0.10467095 2.0384073,-0.7814723 2.1692036,-0.56239479 2.623902,0.66467414 2.8200031,1.1938811 2.9120437,1.2438731 3.111028,0.92925746 3.2873587,0.65045965 3.3575081,0.82043196 3.36042,1.5335352 3.365511,2.780298 3.2148274,2.7838148 2.6988783,1.5489749 Z M 37.885459,0.27676438 c 0.385394,-1.16488708 0.927851,-3.75716498 0.968913,-4.63020828 0.03982,-0.8465555 0.05325,-0.8611704 0.156494,-0.1702694 0.128273,0.8583673 -0.587897,4.3320357 -1.016994,4.93276934 -0.228516,0.31992024 -0.249537,0.29426865 -0.108413,-0.13229166 z M 3.7883066,-5.1471938 C 3.8831096,-5.5109959 4.1241861,-6.1301614 4.324032,-6.5231171 4.863899,-7.5846542 4.795127,-7.8183791 3.5200521,-9.2554803 2.246675,-10.690668 2.229728,-10.684148 1.7819623,-8.5867771 l -0.2541855,1.190625 0.1396394,-1.4552083 c 0.2145841,-2.2362226 0.6001208,-2.4099246 1.9489521,-0.8780906 1.6080416,1.8262121 1.6176076,1.8721462 0.7614209,3.6562155 -0.4190185,0.873125 -0.6842857,1.2898437 -0.5894826,0.9260417 z m 24.2011534,-1.65194 c -0.938199,-3.1956906 -3.971479,-6.0998152 -7.559363,-7.2374922 -0.582083,-0.184572 -0.820208,-0.343456 -0.529167,-0.353076 1.75272,-0.05793 6.028963,3.060803 7.366706,5.372663 0.683518,1.1812423 1.356536,3.0400068 1.168722,3.2278203 -0.06395,0.063949 -0.265052,-0.3905133 -0.446898,-1.0099151 z m 10.763574,-2.0070041 c -0.603689,-5.1778581 -4.253056,-10.6320101 -8.926136,-13.3405351 -0.941514,-0.545703 -1.581001,-0.992187 -1.421082,-0.992187 0.713205,0 4.354423,2.724112 5.955419,4.45544 2.702493,2.922494 4.933702,8.049497 4.668604,10.7277945 -0.05423,0.5479036 -0.146993,0.2628848 -0.276805,-0.8505124 z M 7.2333844,-13.502546 C 6.7095986,-14.60549 6.0325303,-15.856908 5.7287881,-16.283474 l -0.5522585,-0.775576 0.821835,-1.037651 c 1.382992,-1.74617 5.8083524,-5.045472 6.7588154,-5.038996 0.145521,9.91e-4 -0.39026,0.375514 -1.190625,0.832271 -1.9772537,1.128394 -4.3390299,3.007348 -5.2015852,4.138216 -0.7092774,0.92991 -0.7100848,0.936159 -0.2261631,1.750108 0.2671106,0.449277 0.9160893,1.679428 1.4421749,2.733669 l 0.9565193,1.916802 0.9848187,-0.669202 c 1.0791954,-0.733332 3.2312694,-1.715704 3.7198164,-1.69801 0.169837,0.0062 -0.361379,0.289705 -1.18048,0.63012 -0.819101,0.340416 -1.948067,0.930696 -2.5088147,1.311733 -1.3452369,0.914112 -1.2314329,0.978513 -2.3194569,-1.312556 z m 6.9790046,-0.922236 c 0.636434,-0.1873 5.434958,-0.300039 4.894791,-0.115 -0.145521,0.04985 -1.455208,0.139916 -2.910416,0.20015 -1.455209,0.06023 -2.348178,0.02192 -1.984375,-0.08515 z m 24.077084,-5.791514 c -1.382215,-0.474677 -3.704167,-2.501476 -3.704167,-3.233314 0,-0.142754 0.388052,0.249217 0.862338,0.871047 1.08423,1.421521 2.787248,2.308576 4.976001,2.591862 1.523913,0.197237 1.577527,0.222934 0.511661,0.245236 -0.654844,0.0137 -1.845469,-0.199972 -2.645833,-0.474831 z m 4.894791,-0.118549 c 8.889041,-2.818612 10.650252,-14.659024 2.422593,-16.286807 -0.937485,-0.185474 -0.982606,-0.221457 -0.305926,-0.243967 1.192071,-0.03965 3.368022,1.091434 4.327318,2.249399 3.311601,3.997431 1.016258,10.950767 -4.531032,13.725963 -1.018467,0.509518 -2.103652,0.918432 -2.411522,0.908697 -0.339204,-0.01072 -0.142756,-0.149927 0.498569,-0.353285 z m -24.14323,-4.322456 c 0.836745,-0.05251 2.205964,-0.05251 3.042709,0 0.836745,0.05251 0.152135,0.09547 -1.521354,0.09547 -1.67349,0 -2.358099,-0.04296 -1.521355,-0.09547 z m 15.14175,-3.573153 c 0.258413,-2.546525 2.624645,-5.840207 5.297314,-7.373606 0.727604,-0.41745 1.441979,-0.757961 1.5875,-0.756691 0.145521,0.0013 -0.390261,0.362638 -1.190625,0.803038 -2.797693,1.539429 -4.777533,4.11363 -5.48158,7.127186 l -0.339975,1.455209 z"
         id="path21" /><path
         style="fill:#70468f"
         d="m 156.02906,42.577283 c 0,-0.104695 1.38201,-2.803147 3.07114,-5.996558 2.83184,-5.353792 3.04657,-5.860496 2.75576,-6.502999 -0.17347,-0.383237 -1.727,-3.256639 -3.45231,-6.385337 -4.05411,-7.351781 -3.86254,-6.6587 -1.81372,-6.561932 l 1.68617,0.07964 2.62816,4.960938 c 1.4455,2.728515 2.75812,4.960937 2.91695,4.960937 0.15882,0 1.41486,-2.262187 2.79118,-5.027083 l 2.50241,-5.027083 h 1.52692 c 0.83981,0 1.52692,0.09399 1.52692,0.20887 0,0.114878 -2.90763,5.859643 -6.4614,12.766145 l -6.46139,12.557276 -1.6084,0.07877 c -0.88461,0.04332 -1.60839,-0.0069 -1.60839,-0.111584 z m -50.28686,-8.91602 c -4.16654,-1.162338 -5.08956,-3.365098 -4.95335,-11.820957 l 0.0746,-4.630209 1.36213,-0.07904 1.36212,-0.07904 0.10597,5.502997 c 0.11889,6.17337 0.32882,7.082187 1.85022,8.009756 1.05918,0.645765 3.07792,0.710586 4.19177,0.134596 1.52266,-0.787402 1.69753,-1.527367 1.84342,-7.80073 l 0.13229,-5.688542 1.40678,-0.08059 1.40679,-0.08059 -0.0839,6.166004 c -0.0923,6.784976 -0.20943,7.317818 -1.97786,8.99624 -1.50744,1.430705 -4.48649,2.073456 -6.72099,1.450097 z m 13.8405,-0.354519 c -0.25442,-0.102664 -0.33072,-1.99333 -0.33072,-8.195022 v -8.06157 l 1.38906,0.07997 c 1.29558,0.07459 1.39469,0.128938 1.47278,0.807577 0.10038,0.872404 0.57742,0.933176 1.26434,0.16107 2.00998,-2.259254 6.84813,-1.9546 8.50277,0.53541 0.98652,1.484584 1.12636,2.559305 1.1279,8.66792 0.002,6.401677 0.0582,6.17987 -1.57526,6.17987 -1.22495,0 -1.29009,-0.306024 -1.3807,-6.486354 -0.10687,-7.290543 -0.35316,-7.801146 -3.76276,-7.801146 -3.39255,0 -4.09928,1.528343 -4.11614,8.90138 -0.01,4.367496 -0.0692,5.087036 -0.43009,5.225521 -0.48641,0.186652 -1.68241,0.178556 -2.16118,-0.01463 z m 19.03678,-0.142272 c -0.3359,-0.335897 -0.48098,-14.823622 -0.15691,-15.668152 0.22693,-0.591344 2.62689,-0.591344 2.85381,0 0.32407,0.84453 0.17899,15.332255 -0.1569,15.668152 -0.17463,0.174625 -0.74613,0.3175 -1.27,0.3175 -0.52388,0 -1.09538,-0.142875 -1.27,-0.3175 z m 8.85472,0.141111 c -0.097,-0.09701 -0.17639,-2.991289 -0.17639,-6.431722 0,-6.56093 -0.0732,-7.003202 -1.19063,-7.197671 -0.43656,-0.07597 -0.52916,-0.299175 -0.52916,-1.275468 0,-0.976292 0.0926,-1.199493 0.52916,-1.275467 0.98403,-0.171247 1.19063,-0.810458 1.19063,-3.683721 v -2.741382 l 1.38906,0.07997 1.38906,0.07997 0.1323,3.042709 0.13229,3.042708 1.38906,0.07997 1.38906,0.07997 v 1.295262 1.295263 l -1.38906,0.07997 -1.38906,0.07997 -0.071,6.460972 c -0.0464,4.224218 -0.1721,6.582849 -0.36313,6.81302 -0.29962,0.361024 -2.11572,0.492185 -2.43224,0.17566 z M 123.48531,-0.79539595 V -13.641514 l 1.38906,0.07997 1.38906,0.07997 0.0821,0.992188 c 0.0994,1.201072 0.49003,1.258243 1.48699,0.217638 1.20905,-1.261982 3.1521,-1.957666 5.04367,-1.805829 9.73257,0.781237 9.22874,17.2301427 -0.52736,17.2168936 -1.83005,-0.00249 -3.08687,-0.4685052 -4.4198,-1.638834 -1.54154,-1.35349667 -1.53332,-1.37955665 -1.53332,4.8616933 v 5.6885411 h -1.45521 -1.45521 z m 9.59838,1.18854306 c 4.8035,-1.33394311 5.35242,-9.39797361 0.77748,-11.42168811 -3.8243,-1.691672 -7.60445,1.1127671 -7.55595,5.6056538 0.0459,4.2501767 3.07085,6.8456481 6.77847,5.81603431 z m 5.45926,10.36874789 c -1.36992,-1.1092965 -0.4534,-3.4736724 1.34653,-3.4736724 1.15353,0 1.95791,0.8152522 1.95791,1.9843749 0,1.1691225 -0.80438,1.9843745 -1.95791,1.9843745 -0.40432,0 -1.01026,-0.222784 -1.34653,-0.495077 z M 85.649891,2.9056084 c -3.558324,-0.9817986 -5.826394,-4.2173255 -5.817693,-8.2992619 0.01069,-5.0154165 2.78217,-8.3233005 7.275816,-8.6840075 4.286051,-0.344043 7.190481,1.987286 8.074635,6.4813527 0.511211,2.5984348 0.872159,2.4491145 -5.920182,2.4491145 -6.892428,0 -6.835503,-0.019093 -6.144629,2.0609363 1.320482,3.9755982 6.057122,4.9525166 8.810093,1.8170562 0.978206,-1.1141147 1.212532,-1.1574357 2.387064,-0.4413092 1.096532,0.6685686 1.081865,0.83224834 -0.199105,2.2219371 -2.00482,2.1749728 -5.587952,3.1882812 -8.465999,2.3941818 z m 6.538827,-10.6182646 c 0.278208,-0.7249998 -1.024641,-2.7597928 -2.136505,-3.3367988 -2.32672,-1.207461 -5.404435,-0.236559 -6.51367,2.0548157 -0.316071,0.6529145 -0.499073,1.3094411 -0.406673,1.4589481 0.320603,0.5187474 8.85386,0.3520131 9.056848,-0.176965 z M 104.79084,3.0439312 c -8.084875,-1.5995344 -9.427502,-12.6645109 -1.98047,-16.3216472 1.83659,-0.901925 5.53224,-1.043262 7.24733,-0.277168 0.98839,0.441491 0.99219,0.449322 0.99219,2.044189 0,1.7539989 -0.16783,1.8943248 -1.3008,1.087585 -1.19953,-0.854146 -2.97428,-1.18032 -4.46995,-0.821515 -4.86562,1.167244 -6.073081,7.8179303 -1.94552,10.71589065 1.6244,1.14049076 4.66734,1.1853788 6.31774,0.0931964 1.29682,-0.85819955 1.39853,-0.78439225 1.39853,1.01488342 0,1.68544053 -0.37981,2.02324323 -2.76057,2.45524923 -1.75049,0.3176377 -1.93764,0.3181372 -3.49848,0.00934 z m 43.03614,-0.1383228 c -3.55833,-0.9817986 -5.8264,-4.2173255 -5.8177,-8.2992619 0.0107,-5.0154165 2.78217,-8.3233005 7.27582,-8.6840075 4.28605,-0.344043 7.19048,1.987286 8.07463,6.4813527 0.51121,2.5984348 0.87216,2.4491145 -5.92018,2.4491145 -6.89243,0 -6.8355,-0.019093 -6.14463,2.0609363 1.32049,3.9755982 6.05713,4.9525166 8.8101,1.8170562 0.9782,-1.1141147 1.21253,-1.1574357 2.38706,-0.4413092 1.09653,0.6685686 1.08187,0.83224834 -0.1991,2.2219371 -2.00482,2.1749728 -5.58796,3.1882812 -8.466,2.3941818 z m 6.53882,-10.6182646 c 0.27821,-0.7249998 -1.02464,-2.7597928 -2.1365,-3.3367988 -2.32672,-1.207461 -5.40444,-0.236559 -6.51367,2.0548157 -0.31607,0.6529145 -0.49908,1.3094411 -0.40667,1.4589481 0.3206,0.5187474 8.85386,0.3520131 9.05684,-0.176965 z M 69.157529,2.6139171 C 69.060515,2.5169032 68.98114,-1.1802564 68.98114,-5.6019931 v -8.0395209 l 1.389063,0.07997 1.389062,0.07997 0.08212,0.992188 c 0.100861,1.218653 0.255037,1.232819 1.154093,0.106041 1.225662,-1.536107 3.355442,-2.163626 5.096565,-1.501652 0.804815,0.30599 0.85904,0.898172 0.183656,2.0057 -0.483473,0.792823 -0.527053,0.806361 -2.243866,0.697042 -1.701669,-0.108354 -1.776163,-0.08614 -2.65369,0.791389 -1.277515,1.277515 -1.483435,2.3549376 -1.485108,7.7704379 -10e-4,3.35992915 -0.0956,4.8698543 -0.318976,5.0932291 C 71.23811,2.8087497 69.45641,2.9127906 69.157531,2.6139121 Z M 115.60073,2.472806 c -0.3359,-0.3358974 -0.48098,-14.823622 -0.15691,-15.668152 0.22692,-0.591344 2.62689,-0.591344 2.85381,0 0.32407,0.84453 0.17899,15.3322546 -0.1569,15.668152 -0.17463,0.174625 -0.74613,0.3175 -1.27,0.3175 -0.52388,0 -1.09538,-0.142875 -1.27,-0.3175 z m -0.0765,-22.402577 c -1.36992,-1.109297 -0.4534,-3.473672 1.34653,-3.473672 1.15353,0 1.95791,0.815252 1.95791,1.984374 0,1.169123 -0.80438,1.984375 -1.95791,1.984375 -0.40432,0 -1.01026,-0.222784 -1.34653,-0.495077 z"
         id="path20" /><path
         style="fill:#9c653e"
         d="M 71.537604,33.351958 C 63.920065,30.444716 64.20161,19.3954 71.953221,17.040921 c 9.926202,-3.014991 15.861056,10.665696 6.829202,15.742286 -1.738637,0.977246 -5.41771,1.26607 -7.244819,0.568751 z m 6.224015,-3.193988 c 3.21618,-2.260417 3.453017,-6.902062 0.481936,-9.445197 -5.354447,-4.583208 -12.585764,2.926008 -7.989125,8.296146 1.942553,2.269437 5.203017,2.768483 7.507189,1.149051 z M 58.309612,33.041 c -0.09701,-0.09701 -0.176389,-3.076523 -0.176389,-6.621132 v -6.444743 l -0.661458,-0.251486 c -0.953736,-0.36261 -0.976778,-2.274463 -0.03174,-2.633765 0.627313,-0.238504 0.630165,-0.258921 0.747591,-5.351263 0.170242,-7.3828174 1.198854,-9.2128883 5.178209,-9.2128883 1.737637,0 2.236874,0.4057794 2.128875,1.7303442 l -0.08543,1.0477807 -1.366739,-0.08847 c -1.609913,-0.1042102 -2.268158,0.3780285 -2.715647,1.9895185 -0.319491,1.1505461 -0.380001,9.0464759 -0.07303,9.5294089 0.119578,0.18812 1.009274,0.350184 2.178761,0.396875 l 1.976653,0.07892 v 1.190625 1.190625 l -2.116667,0.132292 -2.116666,0.132292 -0.07069,6.680729 -0.07069,6.68073 h -1.274277 c -0.700852,0 -1.353651,-0.07937 -1.450665,-0.176389 z m 28.663196,-7.893403 v -8.069791 h 1.2891 1.289101 l 0.169234,1.058333 c 0.208686,1.305051 0.279347,1.306478 1.460395,0.0295 1.422678,-1.538236 3.828448,-2.035541 5.310452,-1.097742 0.593168,0.375352 -0.604731,2.782951 -1.258746,2.529894 -1.730497,-0.669578 -3.769187,-0.03484 -4.64385,1.445847 -0.592306,1.002695 -0.958945,4.34573 -0.965152,8.800314 l -0.0047,3.373438 H 88.295724 86.972808 Z M 16.795618,12.571209 c -1.435885,-0.241779 -3.846461,-1.004091 -4.010675,-1.268321 -0.06091,-0.09801 0.550553,-0.136405 1.358815,-0.08531 2.557145,0.161643 6.221873,-0.838202 7.577519,-2.0673684 0.308497,-0.2797149 1.491566,-1.3169787 2.629043,-2.3050308 6.971427,-6.05562538 5.730191,-16.6920033 -2.396613,-20.5370208 -3.343682,-1.58199 -8.625363,-1.132011 -12.0478963,1.026433 l -1.381964,0.871545 -0.9496922,-1.902184 C 7.0518238,-14.742252 6.4059173,-15.965825 6.1388067,-16.415102 5.654885,-17.229051 5.6556924,-17.2353 6.3649698,-18.16521 c 1.5564371,-2.040594 5.2360742,-4.436257 8.5088772,-5.539787 2.920766,-0.984829 8.662899,-0.920354 11.728368,0.13169 11.904239,4.085437 16.153046,18.6358898 8.432792,28.8789132 -2.490168,3.3038868 -7.120836,6.7451158 -9.076522,6.7451158 -0.275826,0 -1.334895,0.176527 -2.353487,0.392281 -1.979428,0.419276 -4.768868,0.471795 -6.80938,0.128206 z M 2.5420025,0.47520187 C 1.6275211,-1.8994186 1.3059328,-5.7687557 1.7983795,-8.472038 c 0.3890357,-2.135609 0.5345863,-2.194277 1.8048248,-0.7274826 1.2277773,1.4177624 1.2265396,1.3837639 0.1523364,4.1846184 -0.5416669,1.4123308 -0.7195388,2.3702546 -0.749134,4.03443934 C 2.9632893,1.4440899 2.9414681,1.5124882 2.5420025,0.47520187 Z M 38.612738,-20.336731 c -7.740376,-2.526414 -4.47221,-14.875448 4.300873,-16.251202 6.219081,-0.975248 9.861792,4.481094 7.013064,10.504726 -2.04303,4.319984 -7.37976,7.030569 -11.313937,5.746476 z"
         id="path19" /></g></g></svg>
